<svg width="113" height="73" viewBox="0 0 113 73" fill="none" xmlns="http://www.w3.org/2000/svg">
<path d="M27.9873 64.3387C28.2009 62.9044 28.3637 61.5261 28.4756 60.2037C28.5976 58.8813 28.6587 57.681 28.6587 56.6027C28.6587 55.5245 28.5875 54.8175 28.445 54.4818C29.2893 54.7666 29.8183 55.2142 30.0319 55.8246C30.8253 55.3872 31.6391 55.1685 32.4732 55.1685C33.3074 55.1685 34.0347 55.3973 34.6552 55.8551C35.2859 56.3128 35.5961 56.9282 35.5859 57.7013C35.5859 58.4744 35.3367 59.1458 34.8383 59.7154C34.3398 60.2851 33.6329 60.7225 32.7174 61.0276C33.4294 61.1802 34.0754 61.5261 34.6552 62.0652C35.235 62.5942 35.5249 63.2503 35.5249 64.0335C35.5249 65.2339 35.1028 66.1595 34.2585 66.8106C33.4244 67.4514 32.3715 67.7718 31.1 67.7718C29.8386 67.7718 28.6892 67.3802 27.6516 66.5969C27.6618 66.5156 27.7737 65.7628 27.9873 64.3387ZM34.0296 58.1743C34.0296 57.6047 33.8465 57.152 33.4803 56.8164C33.1141 56.4705 32.6157 56.2976 31.985 56.2976C31.3543 56.2976 30.7643 56.4298 30.215 56.6943C30.215 57.3351 30.0777 58.9373 29.803 61.5007C29.5386 64.0539 29.4063 65.6916 29.4063 66.4138C29.9251 66.5969 30.4337 66.6885 30.9322 66.6885C31.807 66.6885 32.5292 66.4393 33.0988 65.9408C33.6685 65.4322 33.9533 64.7507 33.9533 63.8962C33.9533 63.2554 33.6583 62.6959 33.0683 62.2178C32.4885 61.7295 31.6798 61.4651 30.6422 61.4244L30.5965 60.8751C31.6747 60.7428 32.5139 60.4021 33.1141 59.8528C33.7244 59.2933 34.0296 58.7338 34.0296 58.1743ZM43.5618 62.4009C43.5618 61.404 43.4347 60.692 43.1804 60.2647C42.9362 59.8273 42.5802 59.6086 42.1121 59.6086C41.6544 59.6086 41.1915 59.8375 40.7236 60.2953C40.2557 60.7428 39.8844 61.3023 39.6097 61.9737C39.3453 62.6349 39.213 63.3266 39.213 64.0488C39.213 64.7609 39.3504 65.3814 39.625 65.9103C39.8997 66.4291 40.3167 66.6885 40.8762 66.6885C41.6696 66.6885 42.3156 66.2206 42.8142 65.2847C43.3126 64.3489 43.5618 63.3876 43.5618 62.4009ZM39.1367 61.8058C39.5233 60.7072 40.0421 59.9087 40.6931 59.4103C41.3543 58.9017 42.0206 58.6474 42.6921 58.6474C43.3736 58.6474 43.9382 58.9474 44.3858 59.5476C44.8333 60.1376 45.0571 60.9412 45.0571 61.9584C45.0571 63.0774 44.8435 64.1149 44.4163 65.0711C43.9382 66.129 43.2465 66.8665 42.341 67.2836C41.8527 67.5175 41.3136 67.6345 40.7236 67.6345C39.8996 67.6345 39.1774 67.2937 38.5569 66.6122C37.9364 65.9205 37.6262 64.9389 37.6262 63.6673C37.6262 62.3856 37.9008 61.2769 38.4501 60.341C38.9994 59.4052 39.7471 58.7542 40.6931 58.388C40.8965 58.388 40.9983 58.4897 40.9983 58.6931C39.9912 59.3543 39.3707 60.3919 39.1367 61.8058ZM48.4775 64.3235C48.4775 64.9033 48.5894 65.3763 48.8132 65.7425C49.037 66.1087 49.3829 66.2918 49.8508 66.2918C50.3289 66.2918 50.7612 66.0832 51.1478 65.6662C51.5445 65.239 51.8598 64.6693 52.0938 63.9573C52.3379 63.235 52.5464 62.4721 52.7194 61.6685C52.9025 60.8547 53.0347 59.9901 53.1161 59.0746C53.2687 57.3758 53.345 56.028 53.345 55.0311C53.345 54.0342 53.3043 53.2917 53.2229 52.8034C54.2706 53.1391 54.7945 54.1919 54.7945 55.9619C54.7945 56.6841 54.6216 58.1387 54.2757 60.3258C53.94 62.5128 53.7722 64.1098 53.7722 65.1169C53.7722 66.1239 53.818 66.9784 53.9095 67.6803C53.3297 67.487 52.933 67.1412 52.7194 66.6427C52.5058 66.1443 52.3989 65.5085 52.3989 64.7354C52.0836 65.6102 51.6157 66.3019 50.9952 66.8106C50.3747 67.3192 49.7287 67.5735 49.0574 67.5735C48.3962 67.5735 47.857 67.3192 47.44 66.8106C47.0331 66.2918 46.8296 65.5339 46.8296 64.5371C46.8296 62.879 47.262 61.5159 48.1266 60.4478C49.0014 59.3798 50.0848 58.8457 51.3766 58.8457C51.7428 58.8457 52.1345 58.9017 52.5515 59.0135C51.8598 59.1254 51.2393 59.3798 50.69 59.7765C50.1407 60.163 49.7135 60.6208 49.4083 61.1497C48.7878 62.228 48.4775 63.2859 48.4775 64.3235ZM63.0221 59.6544C63.0221 60.0104 62.8696 60.5038 62.5644 61.1345C62.2592 61.7651 61.8879 62.4569 61.4505 63.2096C61.0131 63.9623 60.5757 64.7659 60.1383 65.6204C59.7009 66.4647 59.3296 67.3904 59.0244 68.3974C58.7193 69.4147 58.5667 70.3861 58.5667 71.3118C58.5667 71.7695 58.6023 72.2069 58.6735 72.624C58.0225 72.4714 57.58 72.2425 57.346 71.9374C57.1222 71.6424 57.0103 71.2914 57.0103 70.8845C57.0103 70.3047 57.3664 69.201 58.0784 67.5735C57.9258 66.9428 57.7377 65.9561 57.5139 64.6134C57.2901 63.2605 57.0612 62.0856 56.8273 61.0887C56.6035 60.0918 56.3441 59.3492 56.0491 58.861C56.4356 58.5965 56.7662 58.4643 57.0409 58.4643C57.5698 58.4643 57.9309 58.7389 58.1242 59.2882C58.3175 59.8273 58.4853 60.8649 58.6277 62.4009C58.7803 63.9369 58.9329 65.066 59.0855 65.7883C61.0792 62.0347 62.0761 59.5273 62.0761 58.2659C62.7068 58.6931 63.0221 59.156 63.0221 59.6544ZM63.2451 66.7343C63.2451 66.541 63.5248 65.8239 64.0843 64.5828C64.6438 63.3317 65.2897 61.9025 66.0221 60.2953C66.7647 58.6779 67.2682 57.5233 67.5327 56.8316L67.8684 55.9619C67.7056 55.7178 67.5276 55.499 67.3343 55.3058C67.6497 55.1837 67.9497 55.1227 68.2346 55.1227C68.8754 55.1227 69.3738 55.5296 69.7299 56.3433C69.9537 56.8621 70.2537 58.0218 70.6301 59.8222C70.6403 59.8426 70.6555 59.9087 70.6759 60.0206C70.6962 60.1325 70.798 60.6513 70.9811 61.577C71.1743 62.4925 71.3066 63.1028 71.3778 63.408C71.449 63.7029 71.571 64.1607 71.744 64.7812C72.0186 65.8289 72.3645 66.6427 72.7815 67.2225C72.3034 67.5074 71.9067 67.6498 71.5914 67.6498C71.2862 67.6498 71.0624 67.5582 70.92 67.3751C70.7878 67.1818 70.6606 66.8919 70.5386 66.5054C70.4267 66.1087 70.1825 65.0152 69.8062 63.2249C69.5824 63.5707 69.1348 63.7538 68.4634 63.7742L65.7474 63.881C65.1676 65.4475 64.7455 66.7902 64.481 67.9092C63.6571 67.5633 63.2451 67.1717 63.2451 66.7343ZM68.4024 57.3199C67.2326 60.0969 66.4849 61.9025 66.1594 62.7366H69.6994C69.2213 60.4071 68.7889 58.6016 68.4024 57.3199ZM76.3147 62.4467C76.6809 61.1243 77.1183 60.1528 77.6269 59.5323C78.1457 58.9017 78.6238 58.5863 79.0612 58.5863C79.5088 58.5863 79.8445 58.7542 80.0682 59.0898C80.292 59.4154 80.4039 59.8324 80.4039 60.341C80.4039 60.8496 80.2717 61.2921 80.0072 61.6685C79.7427 62.0347 79.3562 62.2178 78.8476 62.2178C78.6848 62.2178 78.5577 62.2076 78.4661 62.1873C78.812 61.6888 78.9849 61.1802 78.9849 60.6615C78.9849 60.2953 78.8374 60.1122 78.5424 60.1122C78.3084 60.1122 78.0592 60.2495 77.7948 60.5241C77.5303 60.7988 77.276 61.1802 77.0318 61.6685C76.7877 62.1568 76.5843 62.7925 76.4215 63.5758C76.2587 64.3591 76.1774 65.2034 76.1774 66.1087C76.1774 66.2104 76.2028 66.6427 76.2537 67.4056C75.9892 67.426 75.8366 67.4362 75.7959 67.4362C74.9008 67.4362 74.4532 66.9987 74.4532 66.1239C74.4532 65.9205 74.56 65.1372 74.7736 63.7742C74.9872 62.4111 75.094 61.3277 75.094 60.5241C75.094 59.7104 75.0076 58.9627 74.8346 58.2812C75.4348 58.5151 75.8519 58.8508 76.0858 59.2882C76.33 59.7154 76.452 60.219 76.452 60.7988C76.452 61.3684 76.4062 61.9177 76.3147 62.4467ZM86.2614 59.0441C86.2614 59.4713 86.18 59.7663 86.0173 59.9291C85.8545 60.0918 85.6155 60.1732 85.3002 60.1732H84.2016C84.1609 60.4377 84.0541 61.0683 83.8811 62.0652C83.5353 63.9573 83.3624 65.3865 83.3624 66.3528C83.3624 67.3192 83.4336 67.96 83.576 68.2754C82.9962 68.0617 82.5842 67.7413 82.34 67.3141C82.0959 66.8767 81.9738 66.3477 81.9738 65.7272C81.9738 65.1067 82.0094 64.5218 82.0806 63.9725C82.162 63.413 82.2739 62.762 82.4163 62.0194C82.5587 61.2769 82.6605 60.6818 82.7215 60.2342C82.1417 60.3156 81.572 60.4783 81.0126 60.7225C80.9922 60.5597 80.982 60.4122 80.982 60.28C80.982 59.7917 81.1448 59.4662 81.4703 59.3035C81.7958 59.1305 82.2638 59.0441 82.8741 59.0441C82.9453 58.2913 82.9809 57.7318 82.9809 57.3656C82.9809 56.9893 82.9758 56.6892 82.9656 56.4654C82.9656 56.2416 82.9656 56.0738 82.9656 55.9619C83.4336 56.0331 83.7947 56.2416 84.049 56.5875C84.3033 56.9232 84.4304 57.386 84.4304 57.976C84.4304 58.2812 84.405 58.6524 84.3541 59.0898C85.2391 59.0898 85.8647 58.9423 86.2309 58.6474C86.2513 58.7898 86.2614 58.922 86.2614 59.0441Z" fill="url(#paint0_angular_104_11736)"/>
<path d="M112.742 50.4523H0V50.8761H112.742V50.4523Z" fill="url(#paint1_angular_104_11736)"/>
<mask id="mask0_104_11736" style="mask-type:luminance" maskUnits="userSpaceOnUse" x="22" y="0" width="69" height="47">
<path d="M90.3632 0H22.5483V46.6227H90.3632V0Z" fill="white"/>
</mask>
<g mask="url(#mask0_104_11736)">
<path d="M87.9789 0.0582784C82.9301 0.354968 78.1301 2.1563 73.1974 5.61063C70.7074 7.35368 67.7566 9.89144 65.706 12.053C62.8082 15.11 60.2122 18.3577 58.9033 20.5617C58.4532 21.314 58.04 21.7908 57.9234 21.6743C57.8437 21.5948 57.9709 21.3405 58.2413 21.0332C58.7817 20.4239 58.7605 20.0478 58.1616 19.5921L57.8755 19.3802L57.9128 19.1312C58.0506 18.1352 59.6188 14.6226 60.8797 12.4769C61.4782 11.4544 62.453 9.97091 62.9671 9.30336C63.4758 8.6411 64.1751 7.92587 64.5883 7.64507C64.763 7.52852 65.1817 7.3007 65.5208 7.13646C66.2095 6.80798 66.4371 6.60136 66.4956 6.25699C66.5431 5.97089 66.4901 5.82785 66.3418 5.82785C66.1883 5.82785 65.4466 6.27288 64.8426 6.71792C64.2493 7.16295 63.2371 8.17488 62.6331 8.9272C60.9908 10.9775 59.306 14.0981 57.7009 18.0504C57.4411 18.6915 57.2559 19.0782 57.2029 19.0941C57.155 19.11 56.991 19.1259 56.832 19.1365L56.5404 19.1524L56.1009 18.1193C54.951 15.412 53.5366 12.8954 52.1219 11.0199C50.4638 8.83183 48.5934 7.12587 47.2794 6.62255C46.6013 6.35765 46.4106 6.46361 46.6543 6.96693C46.8026 7.27421 47.1896 7.52852 47.8148 7.73514C48.0797 7.81991 48.3708 7.93117 48.4662 7.97885C49.2982 8.40269 50.6808 9.78018 51.8358 11.3431C53.4413 13.5206 55.0625 16.5511 55.8784 18.9246L56.0585 19.4332L55.73 19.7776C55.5499 19.963 55.3854 20.1802 55.3643 20.2597C55.3113 20.4716 55.4333 20.7047 55.8254 21.118C56.1907 21.5047 56.281 21.6637 56.2068 21.8014C56.1695 21.865 56.1166 21.8226 55.9525 21.6054C51.5658 15.8146 46.3313 10.9034 40.5615 7.17355C37.2821 5.05433 34.1774 3.64505 31.1046 2.88743C28.9483 2.35763 27.2688 2.14041 24.7999 2.08213L23.4171 2.05034L23.1893 2.30994C22.7707 2.78677 22.6118 3.2477 22.5641 4.10598C22.437 6.58017 24.1217 10.5537 26.4105 13.2027C27.9204 14.9405 27.8992 14.9087 27.8992 15.6769C27.8992 15.9683 27.9257 16.3338 27.9575 16.4875C27.9893 16.6411 28.2595 17.2663 28.5615 17.8809C29.192 19.163 29.3191 19.5339 29.5098 20.6517C29.8012 22.31 29.9814 22.7922 30.4423 23.1418L30.6807 23.3273L30.7125 24.0478C30.739 24.5935 30.7814 24.8849 30.8873 25.2451C31.2423 26.4637 32.0794 27.6663 32.9271 28.1644C33.0171 28.2173 33.0913 28.2809 33.0913 28.3021C33.0913 28.3233 33.0118 28.4346 32.9112 28.5405C32.5085 28.9909 32.3708 29.4518 32.2966 30.6438C32.1377 33.1021 32.1271 33.2081 31.8728 33.7856L31.7562 34.0611L31.8887 34.3419C31.9734 34.5167 32.0476 34.8081 32.0847 35.0995C32.2065 36.0743 32.286 36.3392 32.5403 36.6094L32.6675 36.7472L32.5562 37.028C32.482 37.2346 32.4503 37.4359 32.4503 37.775C32.4503 38.3207 32.5138 38.6227 32.7469 39.1313C32.9483 39.571 33.2238 39.8942 33.5999 40.1379C33.8595 40.3022 33.8754 40.3286 33.9072 40.5935C33.992 41.2028 34.4423 42.0028 35.0357 42.5801C35.3536 42.8874 35.4966 42.9777 36.2754 43.3324C36.4079 43.396 36.7734 43.6821 37.086 43.9737C37.547 44.4026 37.7006 44.5141 37.9231 44.5828C38.0715 44.6251 38.2622 44.6624 38.3417 44.6624C38.5907 44.6624 38.935 44.8159 39.3165 45.1075C39.947 45.5894 39.9152 45.5737 40.5562 45.5843L41.139 45.5894L42.0556 46.0505C43.2635 46.6596 43.5657 46.7232 44.2278 46.5168C44.6253 46.3896 45.0543 46.3841 45.7803 46.49C46.0715 46.5324 46.5377 46.5642 46.8132 46.5642C47.3909 46.5697 47.5761 46.5062 48.122 46.1141C48.5404 45.8119 48.8053 45.6953 49.2821 45.5949C49.7856 45.494 50.0611 45.3457 50.4159 44.9854C50.9406 44.4611 51.8993 42.8768 52.9272 40.8479C54.0503 38.628 54.9141 36.4452 56.1166 32.7948C56.2543 32.371 56.3764 32.0637 56.3815 32.1061C56.3921 32.1485 56.4239 32.816 56.4556 33.5895C56.5883 36.7896 56.8426 38.1194 57.489 38.9088L57.6161 39.0677L57.7221 38.9353C58.0188 38.575 58.3049 37.7591 58.4108 36.9803C58.4371 36.7631 58.4795 35.5763 58.5007 34.3419C58.5168 33.1127 58.5486 32.1061 58.5698 32.1061C58.5855 32.1061 58.6969 32.3763 58.808 32.7048C59.4281 34.4955 60.1062 36.0531 61.3353 38.5167C63.2265 42.3154 64.3976 44.0212 65.6056 44.7472C65.8861 44.9112 66.0239 44.9536 66.7605 45.0863C66.9881 45.1232 67.2162 45.224 67.5552 45.4304C67.8201 45.5843 68.1062 45.7432 68.191 45.7801C68.4398 45.8755 69.0226 45.8492 69.8809 45.7009C70.5327 45.5843 70.84 45.5631 71.6559 45.5631C72.7685 45.5631 72.7261 45.5682 73.542 45.0914C74.3473 44.6145 74.7021 44.4556 75.1153 44.3975C75.3272 44.3657 75.5765 44.3284 75.6718 44.3128C75.7672 44.2967 76.0478 44.1377 76.3076 43.9525C76.901 43.5287 77.0226 43.4651 77.4782 43.3642C77.9712 43.2532 78.1246 43.1417 78.6014 42.5538C79.052 42.0028 79.2054 41.881 79.5288 41.8333C79.8785 41.7803 80.1802 41.5472 80.6253 41.0015C81.1445 40.3657 81.2771 40.069 81.3513 39.3962C81.42 38.7922 81.4518 38.7233 81.6955 38.575C82.0718 38.3419 82.4109 37.8174 82.6067 37.1604C82.75 36.6889 82.7394 35.7882 82.5805 35.3432L82.4639 35.0041L82.6385 34.824L82.8136 34.6439L82.8454 33.7326C82.8771 32.9803 82.8983 32.7683 82.9988 32.5087C83.142 32.1114 83.1259 32.0107 82.7657 31.1842C82.4109 30.3789 82.3842 30.2412 82.2838 28.9803C82.1778 27.5551 82.0401 27.1101 81.6162 26.7657C81.5314 26.6968 81.4624 26.6226 81.4624 26.6014C81.4624 26.5855 81.542 26.522 81.6374 26.4637C81.9286 26.2942 82.4745 25.7379 82.7127 25.367C83.2213 24.5935 83.465 23.6451 83.5129 22.3047L83.5447 21.4835L83.8041 21.2504C84.2703 20.8372 84.3712 20.4981 84.5089 18.914C84.6361 17.4252 84.7421 17.0226 85.3193 15.7617C85.8229 14.6544 85.9339 14.1881 85.8652 13.4623L85.8279 13.0756L86.1937 12.5087C87.6399 10.2941 88.4825 8.87952 89.0174 7.75633C89.9604 5.78017 90.416 3.89935 90.3419 2.27816C90.2995 1.26623 90.1511 0.725832 89.7858 0.222518L89.6213 0L89.1551 0.00529805C88.9008 0.0105961 88.371 0.0370863 87.9789 0.0582784ZM85.6372 0.688746C85.9182 0.815899 85.9606 0.92186 85.8067 1.0861C85.6003 1.30332 85.1553 1.44107 84.5513 1.47286C84.016 1.49935 84.0054 1.49405 84.0054 1.38279C84.0054 0.810601 84.9858 0.392055 85.6372 0.688746ZM89.4361 0.953648C89.526 0.990734 89.5684 1.03842 89.5578 1.10199C89.5421 1.17087 89.4624 1.20266 89.1712 1.22915C88.9644 1.25564 88.7419 1.25564 88.6783 1.24504C88.5672 1.21855 88.5617 1.20266 88.6253 1.12848C88.7842 0.932456 89.1657 0.852985 89.4361 0.953648ZM87.3326 1.66358C87.5394 1.76955 87.714 2.03445 87.714 2.24107C87.714 2.47418 87.4229 2.73379 87.1156 2.78147C86.5379 2.87154 85.9127 2.52716 85.9869 2.1616C86.1034 1.58411 86.7341 1.351 87.3326 1.66358ZM28.429 2.65432C28.6781 2.78677 28.9218 3.09405 28.8953 3.2265C28.8582 3.41194 27.2105 3.26359 26.9138 3.05167C26.7655 2.94041 26.8873 2.72319 27.1734 2.59074C27.4913 2.4424 28.1059 2.47418 28.429 2.65432ZM84.4136 2.54836C84.9485 2.61723 85.4465 2.84505 85.5948 3.08346C85.9127 3.60796 85.5101 4.12717 84.6518 4.29672C83.8308 4.45566 82.3156 4.19604 81.7167 3.79869C81.3513 3.54968 81.5103 3.15233 82.093 2.86624C82.7394 2.54836 83.5659 2.4318 84.4136 2.54836ZM89.4306 2.86624C89.7061 3.08346 89.526 3.30068 89.0174 3.36955C88.6838 3.41723 88.5087 3.36425 88.5087 3.21591C88.5087 2.85034 89.1182 2.61723 89.4306 2.86624ZM23.9734 3.14174C24.3337 3.26889 24.2012 3.39074 23.7032 3.39074C23.5707 3.39074 23.4224 3.37485 23.3747 3.35896C23.29 3.32717 23.2582 3.17352 23.327 3.10995C23.38 3.05167 23.7774 3.07286 23.9734 3.14174ZM80.9749 3.26889C81.0652 3.33776 81.1233 3.43313 81.1339 3.53909C81.1606 3.7775 80.9961 3.86757 80.5511 3.86757C80.2387 3.86757 80.1857 3.85167 80.1116 3.74571C79.995 3.56028 79.9577 3.31657 80.0425 3.2477C80.2281 3.09405 80.7579 3.10995 80.9749 3.26889ZM78.5484 3.33247C78.5484 3.38545 78.501 3.49141 78.4425 3.56558C78.3102 3.72982 77.7537 4.01591 77.4676 4.06359L77.2612 4.09538L77.3617 3.92584C77.616 3.48611 78.5484 3.01988 78.5484 3.33247ZM26.3787 3.54439C26.7761 3.63975 26.9827 4.00002 26.8396 4.3444C26.7496 4.56162 26.527 4.70996 26.1827 4.77884C25.939 4.83182 25.8648 4.82652 25.6529 4.74705C25.335 4.62519 25.229 4.46625 25.2661 4.17485C25.3032 3.91525 25.5098 3.68214 25.8118 3.57617C26.0555 3.48611 26.1138 3.48611 26.3787 3.54439ZM79.3381 3.95763C79.4597 3.98942 79.4597 4.00532 79.4385 4.41857C79.4016 5.06493 79.1206 5.50997 78.5751 5.77487C78.342 5.88613 77.6957 5.99209 77.4782 5.9497C77.3566 5.92851 77.3511 5.91262 77.3884 5.6795C77.5685 4.55102 78.4904 3.72982 79.3381 3.95763ZM87.6984 4.03181C87.9366 4.12187 88.0849 4.29142 88.0849 4.47685C88.0849 4.8742 87.6136 5.24506 87.105 5.24506C86.7816 5.24506 86.3154 5.11791 86.114 4.96957C85.7856 4.73645 86.0242 4.25433 86.5591 4.06359C86.8295 3.96823 87.4864 3.94704 87.6984 4.03181ZM30.7867 4.45566C31.3324 4.604 31.5072 4.79473 31.3747 5.10202C31.2211 5.47818 30.58 5.88613 29.8595 6.07156C29.6052 6.13513 29.3562 6.15103 28.8741 6.13513C28.2807 6.11394 28.2065 6.10335 27.8833 5.93911C27.5072 5.75897 27.2953 5.53646 27.2423 5.26626C27.1522 4.84241 27.8145 4.52453 29.0648 4.39208C29.5469 4.3444 30.4953 4.37619 30.7867 4.45566ZM76.6412 4.37089C76.6412 4.38678 76.5831 4.51394 76.514 4.65168C76.2546 5.16559 75.6188 5.59473 75.0255 5.65301L74.7288 5.6848L74.7868 5.53116C74.9407 5.13381 75.2162 4.84771 75.6769 4.6146C76.0054 4.44506 76.6412 4.28612 76.6412 4.37089ZM34.9827 4.79473C35.3642 4.93248 35.6344 5.16559 35.6344 5.35632C35.6344 5.45169 35.6132 5.46228 35.4648 5.4305C34.8979 5.30864 34.4688 5.01725 34.4688 4.76294C34.4688 4.63049 34.5483 4.63579 34.9827 4.79473ZM32.8794 4.79473C33.2556 4.99076 32.9165 5.45698 32.3973 5.45698C32.09 5.45698 31.8728 5.30334 31.8728 5.08612C31.8728 4.85301 32.0847 4.71526 32.4397 4.71526C32.5986 4.71526 32.7946 4.75235 32.8794 4.79473ZM84.0584 4.78943C84.6624 4.90069 85.0599 5.07023 85.3193 5.32983C85.4626 5.46758 85.5419 5.59473 85.5313 5.65301C85.5101 5.77487 85.0176 6.07156 84.6412 6.18811C84.175 6.33116 83.0149 6.30467 82.3579 6.12984C81.5895 5.92851 81.0173 5.61063 80.8533 5.30334L80.7791 5.1497L81.0546 5.04374C81.4412 4.8901 81.6586 4.83182 81.9922 4.77354C82.4427 4.69937 83.6134 4.70996 84.0584 4.78943ZM24.3443 5.155C24.5509 5.57354 24.3866 5.63182 23.6237 5.4252C23.4701 5.38281 23.3429 5.32983 23.3429 5.30864C23.3429 5.23977 23.6237 4.99076 23.7668 4.93248C23.8409 4.90069 23.9734 4.8848 24.0582 4.8901C24.1906 4.90069 24.2383 4.94308 24.3443 5.155ZM34.6648 5.53116C35.0251 5.7007 35.396 6.07686 35.5655 6.44242C35.7085 6.7603 35.788 7.32719 35.6979 7.38547C35.6132 7.43845 34.9085 7.32189 34.5271 7.19474C34.1244 7.06759 33.7642 6.7603 33.6688 6.47951C33.637 6.37884 33.6211 6.15103 33.6317 5.97089C33.6529 5.70599 33.6794 5.63182 33.8013 5.52586C33.992 5.36162 34.3046 5.36692 34.6648 5.53116ZM88.4982 5.70069C88.6732 5.82255 88.6571 6.14043 88.4719 6.36295C88.2121 6.67024 87.82 6.755 87.5182 6.56957C87.2957 6.43712 87.2478 6.25169 87.3805 6.02917C87.5869 5.6795 88.207 5.49407 88.4982 5.70069ZM36.9748 5.74838C37.6847 5.93381 38.2887 6.36295 38.4158 6.7762L38.4529 6.90335L38.1033 6.86626C37.637 6.81858 37.2397 6.66494 36.9589 6.42653C36.7523 6.24639 36.4291 5.81195 36.4291 5.71129C36.4291 5.64771 36.641 5.65831 36.9748 5.74838ZM80.3553 5.92851C80.4133 5.98679 80.3023 6.27818 80.1379 6.47421C79.7564 6.92984 78.8345 7.16825 78.1776 6.97752C78.0186 6.92984 77.8385 6.86096 77.7855 6.81858C77.6902 6.74971 77.6957 6.73381 77.8864 6.52189C78.1988 6.17752 78.6756 5.9656 79.3008 5.88613C79.6453 5.84374 80.2968 5.87023 80.3553 5.92851ZM26.6012 6.08745C26.8449 6.19341 27.1575 6.52719 27.1575 6.68083C27.1575 6.74441 27.0674 6.83977 26.9085 6.94573C26.1615 7.41726 25.2343 7.34838 25.0436 6.80798C24.98 6.62255 24.9853 6.56957 25.0542 6.40004C25.229 5.98149 25.9919 5.82785 26.6012 6.08745ZM31.7403 6.57487C31.9734 6.60666 32.1853 6.64904 32.2065 6.67024C32.2913 6.755 32.1695 7.01991 31.9416 7.24242C31.4754 7.69276 30.6277 7.97885 29.5946 8.03713C29.0489 8.06362 28.1112 8.00004 27.7615 7.91527C27.6026 7.87289 27.592 7.69276 27.735 7.39077C27.9681 6.88216 28.4714 6.60666 29.3562 6.51129C29.8012 6.46891 31.1522 6.5007 31.7403 6.57487ZM74.591 6.54838C74.5431 6.67553 73.4996 7.59209 73.0491 7.90468C72.8266 8.05302 72.4082 8.30203 72.1115 8.45037C71.5817 8.72057 70.5166 9.10203 70.4586 9.04375C70.395 8.98018 70.7074 8.54574 71.0625 8.20667C71.7882 7.50203 72.8745 6.90865 73.9921 6.59606C74.5431 6.44242 74.6334 6.43712 74.591 6.54838ZM86.9884 7.19474L87.2427 7.306L87.2266 7.71925L87.2109 8.13249L86.9193 8.28614C86.7074 8.40269 86.554 8.44508 86.3527 8.44508C86.1089 8.45037 86.0505 8.42918 85.9076 8.28084C85.6003 7.97355 85.6478 7.36428 86.0081 7.13646C86.1988 7.01461 86.6438 7.0411 86.9884 7.19474ZM82.7975 7.15236C83.354 7.23183 83.8253 7.41196 84.0584 7.62388L84.2597 7.81461L84.1856 8.15898C84.0584 8.75766 83.6558 9.1815 83.02 9.37753C81.9765 9.70071 80.7948 9.22389 80.5617 8.3921C80.318 7.52322 81.3619 6.94573 82.7975 7.15236ZM34.3205 7.43845C34.7549 7.53381 34.9668 7.63978 35.2264 7.88349C35.4595 8.1113 35.4701 8.17488 35.2794 8.26494C34.5377 8.60402 33.7218 8.55634 33.1655 8.13249C32.8582 7.89938 32.7099 7.45434 32.9218 7.40136C33.1284 7.34838 33.9867 7.36958 34.3205 7.43845ZM78.1246 7.54971C78.2573 7.59209 78.4213 7.68216 78.4955 7.74044L78.6281 7.8411L78.4162 8.03183C77.9657 8.43448 77.2451 8.68879 76.5619 8.68879C76.0957 8.68879 75.8308 8.63051 75.6824 8.49806C75.5604 8.3921 75.6294 8.16958 75.857 7.94176C76.3233 7.48083 77.4041 7.29011 78.1246 7.54971ZM39.5814 7.81991C40.2331 7.98415 40.8953 8.27024 41.4622 8.63051C41.9443 8.9325 42.8927 9.7219 42.8927 9.81727C42.8927 9.90204 42.2834 9.82257 41.7536 9.66892C41.1443 9.49409 40.2225 9.03846 39.7033 8.6464C39.1894 8.25965 38.6013 7.74574 38.6013 7.67686C38.6013 7.60799 38.9668 7.66097 39.5814 7.81991ZM25.5522 7.81461C25.7853 7.95236 25.939 8.17488 25.939 8.36561C25.939 8.63051 25.4462 8.81594 25.0701 8.68879C24.6515 8.55104 24.4767 8.07951 24.7469 7.81461C24.9217 7.63448 25.2396 7.63448 25.5522 7.81461ZM32.2701 8.95369C32.6092 9.11793 32.7734 9.37753 32.7734 9.74839C32.7681 10.5696 32.037 11.1259 30.9456 11.1259C29.9443 11.1259 29.1814 10.6438 29.086 9.95502C29.033 9.57886 29.1602 9.34574 29.4992 9.1974C30.3575 8.81594 31.7403 8.69938 32.2701 8.95369ZM36.9854 8.97488C37.3456 9.13912 37.6105 9.36693 37.7059 9.60535C37.7907 9.81197 37.7112 9.87555 37.2397 9.96031C36.837 10.0398 36.2807 10.008 35.7933 9.88084C35.4119 9.78018 34.6277 9.44111 34.6277 9.37223C34.6277 9.29806 34.9085 9.06495 35.1046 8.96958C35.4119 8.82654 35.5814 8.80005 36.1377 8.81594C36.5827 8.82654 36.7205 8.85303 36.9854 8.97488ZM84.7315 8.85832C84.8268 8.98548 84.848 9.17621 84.7895 9.48879L84.7365 9.80137H84.4293C84.1326 9.80137 84.122 9.79607 84.0639 9.63713C83.9736 9.38283 83.9948 9.1974 84.1169 9.03846C84.2915 8.81594 84.6255 8.72057 84.7315 8.85832ZM27.3165 9.12323C27.5867 9.26097 27.7933 9.53647 27.7933 9.75369C27.7933 9.93382 27.5655 10.2146 27.3323 10.31C27.1098 10.4053 26.6171 10.4053 26.3999 10.31C25.9919 10.1351 25.8383 9.74839 26.0555 9.43051C26.331 9.02256 26.8608 8.89541 27.3165 9.12323ZM74.967 9.48349C75.0411 9.50998 75.1047 9.55237 75.1047 9.57886C75.1047 9.60535 74.9619 9.80137 74.7868 10.0186C74.257 10.665 73.6425 12.0107 73.4094 13.0332C73.3725 13.1921 73.314 13.3775 73.2771 13.4358C73.2347 13.4994 72.9698 13.6954 72.6782 13.8703C71.004 14.8981 69.6321 16.4027 69.2294 17.6531C69.1921 17.7643 69.0756 17.9233 68.9696 18.0133C68.8636 18.1034 67.7248 18.7021 66.4426 19.3484C64.0424 20.5617 63.8835 20.657 61.8067 22.0981C60.7208 22.8451 59.804 23.2478 58.9351 23.3379L58.5804 23.3749L58.6066 23.0941C58.6863 22.3365 59.0572 21.4147 59.6082 20.6094C60.1219 19.8517 60.4135 19.518 62.1775 17.6372C62.6014 17.1868 63.2426 16.4769 63.608 16.0584C63.9738 15.6345 64.604 14.9087 65.0067 14.4425C65.8544 13.4676 67.3696 11.9312 67.9524 11.4597C69.4519 10.2517 70.8557 9.65833 72.6041 9.48879C73.261 9.42521 74.808 9.41992 74.967 9.48349ZM78.3526 9.56296C79.2215 9.74839 79.7619 10.3047 79.9577 11.2265C80.2281 12.5087 79.7513 13.6583 78.7498 14.1352C78.1564 14.4213 77.2824 14.4848 76.4559 14.3047C75.8414 14.167 73.8175 13.616 73.7696 13.5683C73.7166 13.5206 74.0769 11.7669 74.2253 11.3802C74.3948 10.9246 74.5592 10.6755 74.861 10.3948C75.5659 9.7431 77.2824 9.33515 78.3526 9.56296ZM86.6227 9.91793C86.6494 10.0186 86.6544 10.1722 86.6332 10.2517C86.5434 10.6014 85.9869 10.8928 85.8229 10.6755C85.7275 10.5378 85.7381 10.1934 85.844 10.008C85.9339 9.85965 86.0878 9.77488 86.3366 9.7325C86.5434 9.70071 86.5697 9.71661 86.6227 9.91793ZM41.2768 10.5431C43.7459 10.8186 45.1602 11.6769 48.5086 14.914C49.1338 15.518 50.2781 16.604 51.0516 17.3246C52.7788 18.9352 54.2466 20.4239 54.7234 21.0597C55.285 21.8014 55.5711 22.4531 55.6927 23.2531L55.7245 23.4862L55.2532 23.4491C54.7658 23.412 54.1088 23.2531 53.6053 23.0518C53.1921 22.8875 52.8848 22.7233 51.6344 22.0133C49.3512 20.7153 47.8834 20.0054 46.5483 19.5498C45.0068 19.0252 44.8373 18.9034 44.3922 17.9815C43.8094 16.7683 43.3008 16.2915 41.2556 15.0729L40.2807 14.4901L40.1642 14.0663C39.894 13.0703 39.3112 12.0054 38.5271 11.0517C38.2834 10.755 38.241 10.6755 38.3046 10.6385C38.5165 10.5166 40.4927 10.4583 41.2768 10.5431ZM83.0467 10.6544C83.5286 10.9246 83.7248 11.5603 83.4862 12.0954C83.142 12.8742 81.754 13.0067 81.3831 12.2914C81.0864 11.7193 81.3776 10.861 81.9604 10.5855C82.252 10.453 82.7445 10.4795 83.0467 10.6544ZM29.2502 10.8186C29.3509 11.0676 29.3986 11.3643 29.3562 11.4914C29.3297 11.5868 29.282 11.6027 29.0118 11.6027H28.6992L28.5933 11.3113C28.392 10.7815 28.4555 10.6544 28.9218 10.6491C29.1602 10.6491 29.1814 10.6597 29.2502 10.8186ZM37.2132 10.9457C38.2781 11.1577 38.9774 11.714 39.3112 12.6093C39.4701 13.0385 39.947 14.6703 39.9205 14.6968C39.894 14.7232 38.6648 15.1524 37.8595 15.4173C37.5258 15.5285 37.0436 15.6504 36.7893 15.6822C35.4119 15.8676 34.1615 15.2795 33.6582 14.2146C33.4993 13.8703 33.4887 13.8226 33.494 13.2451C33.494 12.7418 33.5152 12.5828 33.6158 12.3285C33.9125 11.5815 34.5165 11.1312 35.5019 10.9352C35.9575 10.8451 36.7364 10.8451 37.2132 10.9457ZM84.8425 11.1047C84.9803 11.2001 85.118 11.4491 85.118 11.6027C85.118 11.7616 84.8798 11.8411 84.6149 11.7616C84.3818 11.6928 84.0054 11.4597 84.0054 11.3802C84.0054 11.3537 84.0745 11.2583 84.1593 11.1736C84.3394 10.9987 84.6412 10.9616 84.8425 11.1047ZM27.3429 11.7405C27.6396 11.8782 27.7774 12.302 27.6026 12.5458C27.4489 12.7683 27.0251 12.6464 26.8714 12.3232C26.7549 12.0795 26.7655 11.8888 26.8926 11.7616C27.0198 11.6345 27.1098 11.6292 27.3429 11.7405ZM31.5867 12.2862C32.2754 12.5987 32.4767 13.6424 31.9469 14.1617C31.735 14.3789 31.5337 14.4689 31.2105 14.5007C30.1191 14.612 29.5045 13.4411 30.2251 12.604C30.5642 12.2067 31.1204 12.0742 31.5867 12.2862ZM29.2979 12.9325C29.4569 13.0544 29.4675 13.1338 29.3615 13.3458C29.2661 13.5259 29.0754 13.616 28.784 13.616C28.4026 13.616 28.3125 13.3881 28.5721 13.0862C28.8052 12.8054 29.0648 12.7524 29.2979 12.9325ZM84.5034 14.0186C84.5513 14.1458 84.5407 14.6756 84.4878 14.6756C84.3445 14.6756 84.1169 14.5431 84.0639 14.4319C83.9842 14.257 83.9897 14.0027 84.0745 13.9709C84.2228 13.9073 84.4716 13.9338 84.5034 14.0186ZM82.6809 14.0663C82.9246 14.1934 82.9301 14.3259 82.7021 14.6597L82.5008 14.9511L82.1778 14.9299C81.6162 14.8822 81.314 14.6332 81.4518 14.3312C81.5844 14.0398 82.3262 13.8809 82.6809 14.0663ZM76.0054 14.4636C77.3299 14.5855 78.4213 14.8451 78.7871 15.1206C79.7352 15.8464 79.7246 17.8173 78.7659 18.7498C78.1564 19.3431 77.5049 19.359 74.1511 18.8875C71.4703 18.506 70.8663 18.3577 70.2466 17.9445C69.9762 17.7696 69.8597 17.563 69.8597 17.2716C69.8597 16.8213 70.3208 16.1431 71.0837 15.465C71.8623 14.7656 72.2544 14.559 72.9431 14.4689C73.4361 14.4054 75.301 14.4001 76.0054 14.4636ZM41.1708 15.7034C41.6794 15.8464 42.0874 16.0636 42.6121 16.4663C43.6081 17.2398 44.0053 17.7325 44.0053 18.1935C44.0053 18.9193 43.2373 19.2849 40.5351 19.8358C39.894 19.9683 38.9297 20.1749 38.3893 20.2915C37.5787 20.4716 37.2768 20.514 36.641 20.5405C35.9364 20.567 35.8463 20.5564 35.5602 20.4504C35.1681 20.3021 34.8979 20.0584 34.686 19.661C34.3522 19.0305 34.1933 17.9974 34.3522 17.4464C34.5218 16.8742 35.0781 16.3762 35.8357 16.1378C36.2648 16.0054 37.4993 15.7776 38.4688 15.6557C39.2529 15.5603 40.7417 15.5868 41.1708 15.7034ZM29.6529 15.7934C29.7906 15.9312 29.7483 16.1855 29.5628 16.355C29.3986 16.5034 29.2449 16.5087 29.1708 16.3762C29.0489 16.1431 29.139 15.8199 29.3456 15.7352C29.5151 15.6663 29.531 15.6716 29.6529 15.7934ZM32.1748 15.7617C32.3496 15.8358 32.3602 15.8517 32.3284 16.016C32.3072 16.106 32.2118 16.265 32.1112 16.3656C31.9628 16.5193 31.8887 16.5511 31.6397 16.5723C31.1469 16.6146 30.8132 16.3868 30.8132 16.0213C30.8132 15.9206 30.8185 15.8411 30.8291 15.8411C30.8343 15.8411 30.935 15.804 31.0516 15.7617C31.3324 15.661 31.931 15.661 32.1748 15.7617ZM81.9604 16.3391C82.2414 16.4557 82.3791 16.6729 82.3524 16.959C82.31 17.3829 81.9871 17.6796 81.4361 17.8014C80.9593 17.9074 80.3553 17.7272 80.3074 17.4623C80.2281 17.0756 80.5405 16.5564 80.9538 16.3656C81.2136 16.2491 81.7116 16.2332 81.9604 16.3391ZM83.7672 17.0491C83.7248 17.2822 83.3222 17.6954 83.1315 17.6954C82.861 17.6954 82.9988 17.2239 83.407 16.7895L83.6613 16.5193L83.7299 16.6941C83.7723 16.7948 83.7884 16.9378 83.7672 17.0491ZM33.0277 18.0239C33.3509 18.1776 33.5416 18.4478 33.5416 18.7603C33.5416 19.1736 33.2397 19.3908 32.6569 19.3908C32.0476 19.3908 31.5549 19.0411 31.5549 18.6067C31.5549 17.9868 32.3072 17.6901 33.0277 18.0239ZM30.3416 18.4319C30.7443 18.6915 30.9191 18.9511 30.9191 19.2902C30.9191 19.4597 30.9085 19.4597 30.5695 19.3378C30.3946 19.269 30.188 18.9829 30.0979 18.6915C29.9602 18.2199 29.9814 18.1988 30.3416 18.4319ZM70.3365 18.8345C70.612 18.8822 71.2689 18.9988 71.7937 19.1047C72.6782 19.2796 72.8796 19.2955 74.4957 19.3643C76.6785 19.4597 77.0968 19.5233 77.7698 19.8782C78.5802 20.3127 79.0041 21.2769 78.8189 22.2624C78.6917 22.9193 78.1564 23.7723 77.6266 24.1484C77.2663 24.4081 76.9963 24.4875 76.4822 24.4875C76.0003 24.4928 75.6239 24.4134 74.416 24.0531C73.5153 23.7882 72.6202 23.6028 71.7407 23.4968C70.3738 23.3379 69.8491 23.3908 66.8928 23.9736C63.8148 24.5776 63.5974 24.6094 62.0716 24.6094C60.9009 24.6094 60.7208 24.5988 60.2172 24.4875C59.91 24.4186 59.4755 24.2862 59.2479 24.2014C58.9194 24.069 58.8504 24.0266 58.8983 23.963C58.9936 23.8518 59.5497 23.6028 60.3656 23.3114C61.738 22.8186 62.008 22.665 63.783 21.3935C66.2307 19.6398 67.2424 19.0676 68.3232 18.8398C68.7844 18.7392 69.7219 18.7392 70.3365 18.8345ZM80.6414 18.9511C81.2081 19.2425 81.2771 19.6981 80.7897 19.9047C80.2599 20.1219 79.6292 19.8094 79.5021 19.269C79.4703 19.11 79.4809 19.0464 79.5712 18.9352C79.6716 18.8027 79.6983 18.7974 80.0531 18.8186C80.2862 18.8345 80.5087 18.8875 80.6414 18.9511ZM82.8928 19.4491C82.8928 19.6186 82.861 19.6981 82.7339 19.82C82.5275 20.0319 82.2944 20.0213 82.2677 19.8041C82.2465 19.6133 82.3312 19.4597 82.5381 19.3378C82.8081 19.1683 82.8928 19.1948 82.8928 19.4491ZM45.7909 19.6345C46.4847 19.7776 47.4545 20.1378 48.7841 20.7471C49.6318 21.1339 50.1086 21.4094 51.3433 22.2253C53.1603 23.4332 54.0029 23.8147 55.2002 23.9736C55.4545 24.0054 55.4545 24.0107 55.3643 24.1114C55.2002 24.2915 54.4424 24.6306 53.8914 24.7683C53.5947 24.8425 53.028 24.9326 52.6093 24.9643C51.4119 25.065 50.2942 24.9749 46.7602 24.4928C45.8808 24.3763 45.526 24.3551 44.4028 24.3498C43.1576 24.3498 43.041 24.3551 42.4106 24.4928C41.7536 24.6306 40.9483 24.8796 39.396 25.4253C38.1615 25.8544 37.6105 25.8756 36.8741 25.51C36.196 25.1763 35.5814 24.3657 35.4224 23.5922C35.3218 23.1047 35.3748 22.3895 35.539 22.0292C35.7191 21.6372 36.09 21.2451 36.4715 21.0438C37.0542 20.7312 37.6794 20.62 39.4225 20.5034C40.8529 20.408 41.2238 20.3445 42.5748 19.963C42.9986 19.8464 43.5445 19.7034 43.7933 19.6504C44.3655 19.5339 45.2556 19.5233 45.7909 19.6345ZM34.437 20.567C34.5006 21.1021 34.4847 21.1763 34.2993 21.2875C34.0026 21.4729 33.6529 21.5365 33.3403 21.4623C33.1867 21.4253 33.0065 21.3511 32.9377 21.2928L32.8052 21.1868L32.9059 20.9961C33.1284 20.5829 33.6264 20.3021 34.1562 20.2968L34.3999 20.2915L34.437 20.567ZM31.4436 20.9855C31.6344 21.0544 31.7668 21.2663 31.7668 21.51C31.7668 21.6425 31.7456 21.669 31.6449 21.669C31.5814 21.669 31.4701 21.6319 31.4012 21.5842C31.2847 21.4994 31.0834 21.1286 31.0781 20.9908C31.0781 20.9114 31.2211 20.9061 31.4436 20.9855ZM81.595 21.9021C81.9498 22.0557 82.093 22.5167 81.8968 22.8822C81.7696 23.1206 81.5047 23.2584 81.1818 23.2584C80.2438 23.2584 80.1116 22.2094 81.0122 21.8915C81.2348 21.812 81.3831 21.8173 81.595 21.9021ZM33.3721 23.5445C33.4675 23.5816 33.6211 23.7034 33.7218 23.8147C33.8754 23.9895 33.8966 24.0425 33.8701 24.2279C33.796 24.7842 33.0489 25.0544 32.5668 24.6994C32.143 24.3922 32.1589 23.6981 32.588 23.518C32.7575 23.4544 33.1867 23.465 33.3721 23.5445ZM65.3457 25.8915C67.64 25.9021 69.4782 25.9339 69.4625 25.9604C69.4095 26.0451 67.8252 26.3736 66.6016 26.5538C66.2994 26.5961 65.6318 26.6226 64.7736 26.6226C63.6135 26.6173 63.338 26.6014 62.8082 26.5008C62.0665 26.363 61.632 26.2253 61.1446 25.9869C60.8 25.8173 60.7894 25.8067 60.9857 25.8332C61.1022 25.8491 63.0625 25.8756 65.3457 25.8915ZM74.4427 25.9604C76.3076 26.1723 77.563 26.914 77.8915 28.016C78.0135 28.4134 78.003 28.6995 77.8546 28.8584C77.5367 29.1975 76.8586 29.3511 75.6451 29.3511C74.6334 29.3511 71.8466 29.1286 71.3062 29.0067C70.6175 28.8531 70.236 28.5352 69.8067 27.7723C69.457 27.1524 69.0917 26.6226 68.9696 26.5644C68.9009 26.5273 68.8692 26.4902 68.8954 26.469C69.0599 26.3683 71.2054 26.0081 72.0319 25.9445C72.5778 25.9021 73.9976 25.9127 74.4427 25.9604ZM53.4358 26.0293C53.4358 26.4054 51.6556 26.9829 50.0768 27.1259C49.2397 27.2001 47.6876 27.1895 47.0095 27.0995C46.0397 26.9723 44.9589 26.7339 44.9589 26.6491C44.9589 26.6279 45.5154 26.5961 46.1936 26.5749C50.3735 26.4531 51.7192 26.3524 52.7737 26.0716C53.2344 25.9498 53.4358 25.9392 53.4358 26.0293ZM61.4625 26.4213C64.0106 27.2955 64.0797 27.3008 65.9128 26.9935C66.8771 26.8346 67.1738 26.8028 67.6612 26.8187C68.1961 26.8346 68.2758 26.8504 68.5987 27.0094C69.1603 27.2849 69.685 27.8624 70.167 28.726C70.2623 28.8955 70.5751 29.563 70.8718 30.2094C71.497 31.5922 71.6186 31.82 72.0586 32.424C72.4557 32.9591 72.6146 33.2187 72.6146 33.3193C72.6146 33.3776 72.4663 33.3882 71.7564 33.3617C70.0983 33.3035 68.514 32.816 66.2307 31.677C65.2771 31.1948 63.6398 30.2836 62.9459 29.8385C61.1128 28.6677 59.9367 27.3379 59.9367 26.4372C59.9367 26.273 59.9523 26.1087 59.9735 26.0769C60.0371 25.971 60.3923 26.0557 61.4625 26.4213ZM54.4424 26.3047C54.4954 26.3683 54.4797 26.4796 54.3682 26.8663C54.0982 27.8094 53.6795 28.4663 52.8161 29.3034C51.979 30.114 50.9775 30.8293 49.102 31.9525C46.4691 33.5313 44.8212 34.1776 43.0622 34.3366C42.6808 34.3684 42.347 34.3895 42.3152 34.379C42.2834 34.3684 42.3629 34.2253 42.5006 34.0664C42.7973 33.7061 43.2796 32.7313 43.6132 31.8147C44.1591 30.3101 44.4503 29.5683 44.6834 29.1233C45.5205 27.4862 46.3419 27.1206 48.4293 27.465C50.2675 27.7723 50.485 27.7352 52.6678 26.8187C53.6265 26.416 54.13 26.2359 54.289 26.2306C54.3364 26.2253 54.4055 26.2624 54.4424 26.3047ZM43.9735 26.9935C44.6359 27.0624 45.0649 27.1259 45.4993 27.2107L45.6426 27.2372L45.4306 27.4279C45.2874 27.5604 45.1284 27.8147 44.8953 28.2862C44.4503 29.1975 44.2545 29.4836 43.9311 29.6955C43.1949 30.1776 41.2821 30.4849 38.9986 30.4902C37.6317 30.4902 37.2609 30.4425 36.9483 30.2306L36.7734 30.114L36.7787 29.6637C36.7787 29.2875 36.7999 29.171 36.9324 28.9008C37.388 27.9365 38.7072 27.2584 40.6145 26.9935C41.3086 26.8981 43.0783 26.8981 43.9735 26.9935ZM61.1234 29.065C62.3788 30.0716 63.995 31.163 65.7115 32.1591L66.4583 32.5935L66.6809 33.2399C67.3115 35.0783 67.9685 36.4823 68.9166 38.0134C69.9076 39.6187 70.0453 39.979 70.008 40.9432C69.9711 41.9551 69.7961 42.1512 68.9908 42.1088C68.2915 42.077 67.6557 41.6426 66.808 40.6306C66.2837 39.9949 65.8281 39.3485 64.7897 37.7485C64.2967 36.9909 63.4384 35.7352 62.8824 34.9564C60.5512 31.714 59.8464 30.4584 59.3221 28.6465C59.0835 27.8359 59.0466 27.5551 59.142 27.4067C59.2212 27.2902 59.2267 27.2902 59.8358 27.9101C60.1804 28.2544 60.7576 28.7736 61.1234 29.065ZM55.3486 27.4491C55.4545 27.6504 55.2689 28.9167 54.9989 29.8491C54.6174 31.163 54.1618 32.0637 52.5881 34.5962C52.0744 35.428 51.2848 36.7366 50.8397 37.5101C49.2927 40.1697 48.3234 41.6585 47.7987 42.1618C47.3167 42.6225 46.8874 42.8238 46.347 42.8238C46.1245 42.8238 45.8914 42.8081 45.8278 42.7869C45.6744 42.739 45.4412 42.2836 45.3828 41.9181C45.3141 41.5207 45.3883 40.922 45.5684 40.3816C45.6477 40.1591 45.9867 39.4121 46.3313 38.7286C47.3062 36.779 47.7936 35.5392 48.1644 34.0664C48.334 33.3988 48.3602 33.3405 48.551 33.1657C48.6675 33.065 49.3987 32.5193 50.1828 31.963C52.9327 29.9922 54.0927 28.9538 54.9722 27.6557C55.0887 27.4809 55.2108 27.3379 55.2371 27.3379C55.2638 27.3379 55.3113 27.3855 55.3486 27.4491ZM80.4345 27.6875C80.8745 27.8995 81.2504 28.5564 81.2504 29.1233V29.4147L81.0809 29.3829C80.6677 29.3034 80.154 28.9856 79.7725 28.5776C79.5657 28.3551 79.3961 28.1326 79.3961 28.0796C79.3961 27.9471 79.5975 27.7087 79.7882 27.624C79.9738 27.5392 80.1646 27.5604 80.4345 27.6875ZM58.5274 28.4081C58.6228 28.5935 59.0517 29.3829 59.4916 30.1723C61.1921 33.224 61.7113 34.6439 61.8334 36.5829C61.849 36.8425 61.8757 37.2081 61.8914 37.3882C61.902 37.5737 61.8969 37.722 61.8757 37.722C61.8545 37.722 61.7431 37.5631 61.6371 37.3617C61.5312 37.1657 61.1446 36.4929 60.7738 35.8677C59.0042 32.8584 58.257 30.8664 58.257 29.1392C58.257 28.6094 58.2994 28.0796 58.3417 28.0796C58.3523 28.0796 58.4371 28.2279 58.5274 28.4081ZM56.3603 29.1339C56.4133 29.7591 56.4082 29.9763 56.334 30.575C56.1751 31.8889 55.7936 32.9538 54.6013 35.4703C53.8121 37.1286 53.5417 37.7432 53.5417 37.8598C53.5417 37.9021 53.5205 37.9339 53.4943 37.9339C53.4252 37.9339 53.3298 37.0651 53.3298 36.4187C53.3353 35.3856 53.5366 34.3313 53.9656 33.1657C54.1881 32.5617 54.347 32.1962 55.2002 30.3313C55.4757 29.7167 55.7775 29.0067 55.8678 28.7471C55.9631 28.4822 56.0636 28.2385 56.0954 28.1961C56.2119 28.0584 56.2967 28.3763 56.3603 29.1339ZM35.041 29.1445C35.184 29.1975 35.1946 29.3723 35.0781 29.7591C34.9615 30.1511 34.6754 30.416 34.0291 30.7339L33.4887 30.9988L33.4728 30.7551C33.4251 30.0134 33.8807 29.2187 34.4317 29.0862C34.6066 29.0438 34.8238 29.065 35.041 29.1445ZM71.8572 29.4836C72.3129 29.6054 72.5405 29.6266 73.8862 29.669C76.6306 29.7644 77.1871 29.9021 78.1564 30.7233C78.6014 31.0942 78.9778 31.5763 79.2003 32.0478C79.4122 32.4929 79.4597 33.0915 79.3169 33.4677C79.1842 33.8121 78.9193 34.0823 78.559 34.2412C78.3047 34.3578 78.1352 34.3895 77.6427 34.416C77.0862 34.4478 76.9857 34.4372 76.3763 34.2889C73.7166 33.6425 72.0954 32.3869 71.2584 30.3313C70.9935 29.6902 71.004 29.3564 71.2745 29.3511C71.3113 29.3511 71.5711 29.4094 71.8572 29.4836ZM80.2862 30.2147C80.4557 30.3948 80.5617 30.6915 80.5617 30.9882C80.5617 31.322 80.4718 31.4174 80.159 31.4174C79.9526 31.4174 79.9153 31.4015 79.8679 31.269C79.7831 31.0518 79.8306 30.4054 79.942 30.2359C80.0531 30.0611 80.1379 30.0558 80.2862 30.2147ZM43.5072 30.6703C43.4386 31.4544 43.2373 32.0001 42.7655 32.7101C42.4529 33.1763 41.7271 33.9286 41.2291 34.2995C39.5867 35.518 37.4569 36.0372 36.3655 35.4915C35.2953 34.9511 35.2635 33.6319 36.2966 32.4346C36.9695 31.6558 37.5364 31.3061 38.4953 31.0783C38.8026 31.0041 39.7933 30.8346 40.7046 30.7021C41.6106 30.5697 42.5061 30.416 42.6914 30.363C43.1207 30.2306 43.2055 30.22 43.3907 30.2465L43.5445 30.2677L43.5072 30.6703ZM81.8705 30.6015C82.0557 30.8875 81.9286 31.4703 81.6743 31.4703C81.4891 31.4703 81.3882 31.2425 81.4306 30.8823C81.473 30.4637 81.5365 30.3366 81.6743 30.4107C81.7328 30.4425 81.8175 30.5273 81.8705 30.6015ZM34.8662 31.8147C34.9191 31.9313 34.9774 32.1644 34.988 32.3339C35.0092 32.5988 34.9933 32.6571 34.8873 32.7736C34.7231 32.9485 34.4582 32.9485 34.3152 32.7684C34.0926 32.477 34.1297 32.0372 34.4158 31.7352C34.6118 31.5233 34.7337 31.5445 34.8662 31.8147ZM80.3659 32.0584C80.5617 32.2068 80.652 32.5246 80.5566 32.7207C80.4718 32.8955 80.2438 33.0386 80.1222 32.9909C80.048 32.9644 80.0319 32.8796 80.0319 32.5352C80.0319 31.9207 80.0904 31.8359 80.3659 32.0584ZM33.1973 32.1326C33.3774 32.3286 33.4145 32.8425 33.2556 33.0015C33.1284 33.1286 33.0224 33.1021 32.9377 32.922C32.8317 32.6836 32.8847 32.0001 33.0118 32.0001C33.0436 32.0001 33.1284 32.0584 33.1973 32.1326ZM82.0663 32.3339C82.1087 32.3975 82.1087 32.4505 82.0663 32.514C82.0028 32.6147 81.7591 32.6942 81.6425 32.6518C81.5314 32.6094 81.5526 32.4081 81.6798 32.2438C81.7802 32.1167 81.8014 32.1061 81.9023 32.175C81.9659 32.2121 82.0401 32.2862 82.0663 32.3339ZM68.0477 33.2505C71.8835 34.7657 74.2253 36.4081 74.9458 38.0929C75.0467 38.3207 75.0729 38.4849 75.0729 38.8346C75.0784 39.2373 75.0623 39.3167 74.9195 39.571C74.6228 40.1114 74.0239 40.4982 73.2398 40.6571C72.1378 40.8849 71.2478 40.6359 70.5166 39.9101C69.8915 39.2796 68.9539 37.7485 68.0109 35.8041C67.2056 34.1458 66.8504 33.1604 66.9987 32.9803C67.036 32.9379 67.0835 32.9008 67.1102 32.9008C67.1365 32.9008 67.5603 33.0597 68.0477 33.2505ZM34.8238 33.6266C34.9138 33.8439 34.8979 34.3472 34.7973 34.4478C34.7549 34.4902 34.6754 34.4637 34.5006 34.3631C34.2569 34.22 34.1668 34.0717 34.241 33.9445C34.3258 33.8015 34.6542 33.4306 34.6966 33.4306C34.7178 33.4306 34.7761 33.5207 34.8238 33.6266ZM47.9258 33.7538C47.9258 34.1035 47.7194 35.0041 47.5181 35.5498C47.3273 36.0531 46.2995 38.273 45.6955 39.4863C45.3192 40.2333 44.9326 40.8161 44.6304 41.0916C43.7933 41.8439 41.9496 41.8969 40.8529 41.1922C40.3284 40.8584 40.1059 40.4134 40.1536 39.7882C40.2701 38.2306 42.2463 36.3816 45.8596 34.4372C46.7496 33.9551 47.6503 33.5419 47.8093 33.5366C47.9101 33.5366 47.9258 33.5631 47.9258 33.7538ZM80.1061 33.7273C80.154 33.8491 80.0056 34.1511 79.8467 34.2571C79.6771 34.3684 79.5551 34.3154 79.4758 34.0929C79.4334 33.9657 79.444 33.9339 79.5975 33.7962C79.7882 33.6266 80.0531 33.5895 80.1061 33.7273ZM73.701 33.8492C75.2001 34.1035 76.3339 34.5061 77.1765 35.0783C77.7169 35.4439 78.0136 35.8942 78.0186 36.3498C78.0186 36.9061 77.616 37.6319 77.1765 37.8651C76.5619 38.1882 75.9579 37.9127 74.3473 36.5617C72.9855 35.428 72.0586 34.7657 70.9566 34.1458C70.6438 33.971 70.3895 33.8121 70.3895 33.7909C70.3895 33.722 70.7023 33.7061 71.8729 33.722C72.7736 33.7326 73.2186 33.7644 73.701 33.8492ZM33.2609 33.8386C33.3774 33.9445 33.388 34.1511 33.2714 34.1935C33.1655 34.2359 32.9112 34.2359 32.8052 34.1935C32.694 34.1511 32.6993 33.9657 32.8105 33.8438C32.9165 33.7273 33.1337 33.722 33.2609 33.8386ZM81.6637 33.918C81.7379 33.9922 81.7485 34.379 81.6743 34.5644C81.5577 34.8717 81.15 34.9458 81.0279 34.6756C80.9487 34.4955 81.0067 34.3207 81.2504 34.0717C81.473 33.8438 81.5577 33.8121 81.6637 33.918ZM62.1139 34.4213C62.289 34.7074 62.7497 35.3803 63.1367 35.9207C63.5232 36.4611 64.1539 37.3406 64.546 37.881C66.1248 40.0849 66.8928 41.6532 66.8928 42.6967C66.8928 43.7936 65.9179 43.9949 65.0067 43.0836C63.8042 41.881 62.342 38.3949 61.8546 35.5763C61.7219 34.8028 61.6638 33.9074 61.7431 33.9074C61.7698 33.9074 61.9393 34.1405 62.1139 34.4213ZM53.2238 35.2743C53.1391 36.6518 53.0068 37.5207 52.694 38.8081C52.0583 41.4041 51.0411 43.3167 49.987 43.894C49.7483 44.0267 49.6424 44.0479 49.3245 44.0479C48.9006 44.0479 48.8002 44 48.6836 43.7245C48.4717 43.2053 48.7947 41.881 49.4622 40.5618C49.653 40.1803 50.3841 38.9035 51.0834 37.722C51.7828 36.5406 52.5088 35.3114 52.694 34.9935C52.8742 34.6703 53.0649 34.3684 53.1073 34.3154C53.187 34.2253 53.1921 34.2253 53.2344 34.3313C53.2556 34.3948 53.2556 34.8187 53.2238 35.2743ZM44.7737 34.6386C44.7419 34.665 44.3655 34.8929 43.926 35.1525C42.3364 36.0849 42.1351 36.2439 40.747 37.6425C39.3218 39.0783 39.1523 39.2055 38.5907 39.2055C38.4211 39.2055 38.1986 39.1737 38.1033 39.1313C37.8384 39.02 37.4993 38.6916 37.3403 38.3896C37.2185 38.1564 37.1973 38.0558 37.1973 37.6425C37.1973 37.2558 37.2185 37.1286 37.3138 36.9538C37.8754 35.9154 39.5549 35.1631 42.1774 34.7816C43.1364 34.6439 44.8741 34.5485 44.7737 34.6386ZM35.3907 35.2372C35.6926 35.4756 35.6821 35.7617 35.3589 35.7617C35.0781 35.7617 34.6913 35.2478 34.9085 35.1631C35.0569 35.0995 35.2582 35.1313 35.3907 35.2372ZM33.7271 35.5816C33.9867 35.8041 34.1085 36.1061 34.0026 36.2757C33.9814 36.3074 33.8436 36.3551 33.6953 36.371L33.4251 36.4081L33.3615 36.1697C33.2503 35.7247 33.3032 35.4439 33.494 35.4439C33.531 35.4439 33.6317 35.5074 33.7271 35.5816ZM79.767 35.8995C79.767 36.2756 79.7034 36.3975 79.5021 36.3975C79.3537 36.3975 79.3431 36.3869 79.3431 36.1856C79.3431 35.8412 79.4758 35.6505 79.7301 35.6081C79.7513 35.6081 79.767 35.7352 79.767 35.8995ZM81.4043 36.0002C81.4942 36.1061 81.5683 36.2121 81.5683 36.2386C81.5683 36.2598 81.5844 36.318 81.6001 36.3604C81.6425 36.4823 81.4361 36.6624 81.256 36.6624C81.0546 36.6624 80.9326 36.4929 80.9326 36.2227C80.9326 35.7882 81.1339 35.6929 81.4043 36.0002ZM35.5549 37.118C35.6768 37.1657 35.8569 37.5472 35.8357 37.7114C35.8145 37.9074 35.6238 37.9286 35.4489 37.7538C35.3059 37.6055 35.2635 37.2664 35.3801 37.1498C35.4542 37.0757 35.4436 37.0756 35.5549 37.118ZM34.0662 37.3829C34.2304 37.4465 34.2675 37.6002 34.1933 37.9074L34.1244 38.1988H33.8383H33.5522L33.584 37.9604C33.6582 37.4518 33.796 37.2823 34.0662 37.3829ZM79.3326 38.0664C79.3487 38.326 79.1948 38.6015 78.9884 38.681C78.6493 38.8081 78.6438 38.3949 78.9829 38.0081C79.1948 37.7697 79.3114 37.7909 79.3326 38.0664ZM80.5778 38.2624C80.8584 38.6439 80.6626 39.7777 80.3341 39.6505C80.2069 39.6028 80.0849 39.3538 80.0849 39.1525C80.0849 38.9829 80.2332 38.2041 80.2811 38.13C80.3286 38.0505 80.4663 38.1141 80.5778 38.2624ZM36.2542 39.375C36.5403 39.6823 36.6198 39.9525 36.445 40.0425C36.2119 40.1644 35.9787 39.9207 35.9205 39.481C35.8887 39.232 35.894 39.2055 35.9893 39.2055C36.0423 39.2055 36.1642 39.2849 36.2542 39.375ZM77.4888 39.6134C77.4888 39.6982 77.5049 39.8147 77.5206 39.8783C77.5418 39.9578 77.5261 40.0002 77.452 40.0214C77.3142 40.0637 76.9116 40.0796 76.8743 40.0373C76.8056 39.9737 77.3142 39.4704 77.4464 39.4704C77.4732 39.4704 77.4888 39.5339 77.4888 39.6134ZM34.9032 39.6346C35.0834 39.73 35.2105 40.0902 35.2052 40.5035C35.1999 40.9856 35.1522 41.1339 35.0145 41.1551C34.8185 41.1869 34.6648 40.8955 34.6383 40.4293C34.6171 40.069 34.6913 39.5763 34.7655 39.5763C34.7814 39.5763 34.8397 39.6028 34.9032 39.6346ZM79.2109 40.424C79.3804 40.583 79.3487 40.7101 79.0782 40.9591C78.6281 41.3724 77.8915 41.3724 77.9924 40.9591C78.0504 40.7313 78.1988 40.5088 78.395 40.3816C78.6281 40.2174 79.0147 40.2386 79.2109 40.424ZM38.2675 40.9856C38.4847 41.1498 38.49 41.2452 38.2781 41.3512C38.1509 41.42 38.1033 41.4253 38.0397 41.3724C37.9231 41.277 37.8066 41.0333 37.8066 40.8796C37.8066 40.7525 37.8172 40.7472 37.9496 40.8002C38.0344 40.832 38.1774 40.9167 38.2675 40.9856ZM76.0639 40.9061C76.1592 41.0015 76.1643 41.028 76.0957 41.1286C75.9418 41.3671 75.7617 41.4465 75.3378 41.473L74.9301 41.4995L74.967 41.3459C75.02 41.1392 75.142 41.0121 75.3963 40.8955C75.6824 40.7631 75.9261 40.7684 76.0639 40.9061ZM36.9483 41.7167C37.1443 41.8227 37.4198 42.1141 37.4887 42.2995C37.5682 42.522 37.4622 42.6174 37.1284 42.6174C36.6145 42.6174 36.0635 42.2677 36.1377 41.9922C36.2277 41.6902 36.6304 41.5525 36.9483 41.7167ZM73.701 41.8227C73.9023 41.9075 73.9921 42.0452 73.9921 42.2677C73.9921 42.4902 73.7539 42.681 73.4255 42.7284C72.9168 42.7975 72.6252 42.5326 72.7367 42.1035C72.7685 41.9975 72.8427 41.9234 73.0016 41.8545C73.2665 41.7326 73.4572 41.722 73.701 41.8227ZM77.0544 41.8863C77.1392 41.9445 77.171 42.0187 77.171 42.1512C77.171 42.5059 76.7738 42.7551 76.1961 42.7551C75.9842 42.7551 75.9473 42.739 75.9736 42.6704C75.9897 42.6225 76.0054 42.5432 76.0054 42.4902C76.0054 42.3419 76.3182 42.0134 76.5619 41.9022C76.8213 41.7803 76.901 41.7803 77.0544 41.8863ZM40.1642 42.0982C40.3496 42.183 40.4927 42.4318 40.4344 42.5695C40.392 42.6916 39.8198 42.6755 39.5655 42.5483C39.3748 42.4529 39.237 42.2571 39.237 42.0929C39.237 41.9816 39.9258 41.9869 40.1642 42.0982ZM71.7987 42.4953C71.9208 42.5962 71.8835 42.7073 71.661 42.9192C71.4173 43.1523 70.9935 43.3006 70.4319 43.3642C70.0877 43.396 70.0716 43.396 70.0716 43.2849C70.0716 43.0357 70.3844 42.6598 70.7023 42.5326C71.0676 42.3843 71.6398 42.3631 71.7987 42.4953ZM42.4794 42.8081C42.8609 42.9141 42.9618 43.29 42.6757 43.5549C42.5379 43.6876 42.4688 43.7088 42.2251 43.7088C41.3986 43.7088 41.1867 43.0942 41.9231 42.8344C42.1721 42.7445 42.2304 42.739 42.4794 42.8081ZM68.9908 43.1205C69.2133 43.2214 69.4519 43.4702 69.4201 43.571C69.4095 43.6028 69.2824 43.6927 69.1391 43.7724C68.5407 44.1059 68.0054 43.9843 68.0054 43.5231C68.0054 43.3167 68.0956 43.179 68.2864 43.0993C68.5195 42.9989 68.7314 43.0039 68.9908 43.1205ZM39.2794 43.2582C39.4595 43.4121 39.5708 43.6452 39.5443 43.8253C39.5284 43.9313 39.4966 43.947 39.2794 43.9631C38.9986 43.9788 38.7549 43.894 38.5112 43.6876C38.2993 43.5075 38.2887 43.3803 38.4741 43.2371C38.6807 43.073 39.0728 43.0836 39.2794 43.2582ZM74.7233 43.2426C74.7445 43.3642 74.3897 43.7457 74.1884 43.8092C74.093 43.8359 73.9286 43.8783 73.8226 43.8995C73.6268 43.9313 73.6213 43.9258 73.6213 43.7775C73.6213 43.624 73.7327 43.4172 73.8862 43.3006C74.1087 43.1205 74.6915 43.0781 74.7233 43.2426ZM44.8902 43.4015C45.1284 43.5126 45.4357 43.8198 45.4357 43.947C45.4357 43.9843 45.4518 44.053 45.4675 44.1008C45.4942 44.175 45.4463 44.1856 45.1128 44.1856C44.8741 44.1801 44.6092 44.1432 44.4397 44.0847C44.1218 43.9737 43.6344 43.6609 43.6344 43.5655C43.6344 43.4702 43.8781 43.3273 44.1006 43.2849C44.3604 43.2371 44.6198 43.2794 44.8902 43.4015ZM47.4227 43.8304C47.4651 43.8995 47.5181 44.0635 47.5338 44.1962C47.5816 44.5353 47.449 44.6624 47.0675 44.6569C46.7446 44.6569 46.347 44.5192 46.2622 44.3869C46.1724 44.2386 46.3364 44.0212 46.6543 43.8516C47.0145 43.6664 47.3062 43.6609 47.4227 43.8304ZM72.0637 43.9419C72.1539 44.0161 72.159 44.0318 72.0848 44.1644C71.942 44.4238 71.7513 44.5192 71.3961 44.5192C70.9829 44.5192 70.8506 44.4187 70.9723 44.1962C71.0201 44.1165 71.1367 44.0106 71.2372 43.9631C71.4652 43.8465 71.9208 43.841 72.0637 43.9419ZM41.5841 44.3128C41.8172 44.4081 41.992 44.6145 42.0079 44.8002C42.0185 44.9379 41.9973 44.9536 41.8543 44.9697C41.6953 44.9854 41.298 44.8371 41.1443 44.7048C41.0278 44.6095 40.8264 44.339 40.8264 44.2861C40.8264 44.2119 41.3933 44.2331 41.5841 44.3128ZM67.9791 44.4238C68.1325 44.5035 68.3076 44.7472 68.2491 44.8053C68.2385 44.8214 67.9842 44.7947 67.693 44.7523C67.1526 44.673 66.8928 44.5671 66.8928 44.4238C66.8928 44.3073 67.7354 44.3128 67.9791 44.4238ZM69.7537 44.5353C70.0029 44.6357 70.0186 44.7099 69.8228 44.9273C69.7168 45.0439 69.6109 45.102 69.457 45.1232L69.2345 45.1499L69.1235 44.8477C69.0599 44.6836 69.0226 44.5247 69.0387 44.498C69.0917 44.4187 69.5206 44.445 69.7537 44.5353ZM44.5563 44.8532C44.6253 44.8794 44.641 44.943 44.6304 45.1605C44.6147 45.4198 44.6092 45.4304 44.4452 45.4465C43.9205 45.4995 43.2953 45.0227 43.6238 44.8214C43.7141 44.7629 44.3816 44.7841 44.5563 44.8532ZM48.8159 45.0121C48.7896 45.1655 48.5459 45.2927 48.1377 45.3724C47.9207 45.4198 47.6876 45.4677 47.6291 45.4834C47.5499 45.5101 47.5075 45.4889 47.4808 45.4254C47.3697 45.1287 47.7406 44.9536 48.5247 44.9324C48.7841 44.9273 48.832 44.943 48.8159 45.0121ZM46.6013 45.3512C46.6013 45.5682 46.4797 45.7962 46.3207 45.8649C46.1406 45.9496 45.7854 45.7538 45.7642 45.5525C45.743 45.3936 45.8651 45.3033 46.1775 45.2397C46.5589 45.1655 46.6013 45.1761 46.6013 45.3512Z" fill="white"/>
<path d="M88.0546 0.0582784C83.0058 0.354968 78.2058 2.1563 73.2731 5.61063C70.783 7.35368 67.8322 9.89144 65.7817 12.053C62.8839 15.11 60.2878 18.3577 58.979 20.5617C58.5289 21.314 58.1157 21.7908 57.9991 21.6743C57.9194 21.5948 58.0466 21.3405 58.317 21.0332C58.8574 20.4239 58.8362 20.0478 58.2373 19.5921L57.9512 19.3802L57.9885 19.1312C58.1263 18.1352 59.6945 14.6226 60.9554 12.4769C61.5539 11.4544 62.5287 9.97091 63.0428 9.30336C63.5514 8.6411 64.2508 7.92587 64.664 7.64507C64.8386 7.52852 65.2574 7.3007 65.5965 7.13646C66.2852 6.80798 66.5128 6.60136 66.5713 6.25699C66.6188 5.97089 66.5658 5.82785 66.4175 5.82785C66.264 5.82785 65.5223 6.27288 64.9183 6.71792C64.3249 7.16295 63.3128 8.17488 62.7088 8.9272C61.0664 10.9775 59.3817 14.0981 57.7766 18.0504C57.5168 18.6915 57.3315 19.0782 57.2786 19.0941C57.2307 19.11 57.0666 19.1259 56.9077 19.1365L56.6161 19.1524L56.1766 18.1193C55.0267 15.412 53.6123 12.8954 52.1975 11.0199C50.5395 8.83183 48.669 7.12587 47.3551 6.62255C46.677 6.35765 46.4863 6.46361 46.73 6.96693C46.8783 7.27421 47.2653 7.52852 47.8904 7.73514C48.1553 7.81991 48.4465 7.93117 48.5419 7.97885C49.3739 8.40269 50.7565 9.78018 51.9114 11.3431C53.517 13.5206 55.1382 16.5511 55.9541 18.9246L56.1342 19.4332L55.8057 19.7776C55.6256 19.963 55.4611 20.1802 55.4399 20.2597C55.387 20.4716 55.509 20.7047 55.9011 21.118C56.2664 21.5047 56.3567 21.6637 56.2825 21.8014C56.2452 21.865 56.1923 21.8226 56.0282 21.6054C51.6415 15.8146 46.407 10.9034 40.6372 7.17355C37.3577 5.05434 34.2531 3.64505 31.1802 2.88743C29.0239 2.35763 27.3445 2.14041 24.8756 2.08213L23.4928 2.05034L23.265 2.30994C22.8464 2.78677 22.6875 3.2477 22.6398 4.10598C22.5126 6.58017 24.1974 10.5537 26.4862 13.2027C27.9961 14.9405 27.9749 14.9087 27.9749 15.6769C27.9749 15.9683 28.0014 16.3338 28.0332 16.4875C28.065 16.6411 28.3352 17.2663 28.6372 17.8809C29.2676 19.163 29.3948 19.5339 29.5855 20.6517C29.8769 22.31 30.0571 22.7922 30.518 23.1418L30.7564 23.3273L30.7882 24.0478C30.8147 24.5935 30.8571 24.8849 30.963 25.2451C31.318 26.4637 32.1551 27.6663 33.0028 28.1644C33.0928 28.2173 33.167 28.2809 33.167 28.3021C33.167 28.3233 33.0875 28.4346 32.9869 28.5405C32.5842 28.9909 32.4465 29.4518 32.3723 30.6438C32.2134 33.1021 32.2028 33.2081 31.9484 33.7856L31.8319 34.0611L31.9643 34.3419C32.0491 34.5167 32.1233 34.8081 32.1604 35.0995C32.2822 36.0743 32.3617 36.3392 32.616 36.6094L32.7432 36.7472L32.6319 37.028C32.5577 37.2346 32.5259 37.4359 32.5259 37.775C32.5259 38.3207 32.5895 38.6227 32.8226 39.1313C33.0239 39.571 33.2994 39.8942 33.6756 40.1379C33.9352 40.3022 33.9511 40.3286 33.9829 40.5935C34.0677 41.2028 34.518 42.0028 35.1114 42.5801C35.4293 42.8874 35.5723 42.9777 36.3511 43.3324C36.4836 43.396 36.8491 43.6821 37.1617 43.9737C37.6226 44.4026 37.7763 44.5141 37.9988 44.5828C38.1472 44.6251 38.3379 44.6624 38.4173 44.6624C38.6664 44.6624 39.0107 44.8159 39.3922 45.1075C40.0227 45.5894 39.9909 45.5737 40.6319 45.5843L41.2147 45.5894L42.1313 46.0505C43.3392 46.6596 43.6414 46.7232 44.3035 46.5168C44.701 46.3896 45.13 46.3841 45.856 46.49C46.1472 46.5324 46.6134 46.5642 46.8889 46.5642C47.4666 46.5697 47.6518 46.5062 48.1977 46.1141C48.6161 45.8119 48.881 45.6953 49.3578 45.5949C49.8613 45.494 50.1368 45.3457 50.4916 44.9854C51.0163 44.4611 51.975 42.8768 53.0028 40.8479C54.126 38.628 54.9898 36.4452 56.1923 32.7948C56.33 32.371 56.4521 32.0637 56.4572 32.1061C56.4678 32.1485 56.4995 32.816 56.5313 33.5895C56.664 36.7896 56.9183 38.1194 57.5647 38.9088L57.6918 39.0677L57.7978 38.9353C58.0945 38.575 58.3806 37.7591 58.4865 36.9803C58.5128 36.7631 58.5552 35.5763 58.5764 34.3419C58.5925 33.1127 58.6243 32.1061 58.6455 32.1061C58.6611 32.1061 58.7726 32.3763 58.8837 32.7048C59.5037 34.4955 60.1819 36.0531 61.411 38.5167C63.3022 42.3154 64.4733 44.0212 65.6812 44.7472C65.9618 44.9112 66.0996 44.9536 66.8362 45.0863C67.0638 45.1232 67.2919 45.224 67.6309 45.4304C67.8958 45.5843 68.1819 45.7432 68.2667 45.7801C68.5155 45.8755 69.0983 45.8492 69.9565 45.7009C70.6084 45.5843 70.9157 45.5631 71.7316 45.5631C72.8442 45.5631 72.8018 45.5682 73.6177 45.0914C74.423 44.6145 74.7778 44.4556 75.191 44.3975C75.4029 44.3657 75.6521 44.3285 75.7475 44.3128C75.8429 44.2967 76.1235 44.1377 76.3833 43.9525C76.9767 43.5287 77.0983 43.4651 77.5539 43.3642C78.0469 43.2532 78.2003 43.1417 78.6771 42.5538C79.1277 42.0028 79.2811 41.881 79.6045 41.8333C79.9542 41.7803 80.2559 41.5472 80.701 41.0015C81.2202 40.3657 81.3528 40.069 81.427 39.3962C81.4957 38.7922 81.5275 38.7233 81.7712 38.575C82.1475 38.3419 82.4866 37.8174 82.6824 37.1604C82.8257 36.6889 82.8151 35.7882 82.6561 35.3432L82.5396 35.0041L82.7142 34.824L82.8893 34.6439L82.921 33.7326C82.9528 32.9803 82.974 32.7684 83.0745 32.5087C83.2177 32.1114 83.2016 32.0107 82.8414 31.1842C82.4866 30.3789 82.4599 30.2412 82.3595 28.9803C82.2535 27.5551 82.1157 27.1101 81.6919 26.7657C81.6071 26.6968 81.538 26.6226 81.538 26.6014C81.538 26.5855 81.6177 26.522 81.7131 26.4637C82.0043 26.2942 82.5502 25.7379 82.7884 25.367C83.297 24.5935 83.5407 23.6451 83.5886 22.3047L83.6204 21.4835L83.8798 21.2504C84.346 20.8372 84.4469 20.4981 84.5846 18.914C84.7118 17.4252 84.8177 17.0226 85.395 15.7617C85.8985 14.6544 86.0096 14.1881 85.9409 13.4623L85.9036 13.0756L86.2694 12.5087C87.7156 10.2941 88.5582 8.87952 89.093 7.75633C90.0361 5.78017 90.4917 3.89936 90.4175 2.27816C90.3752 1.26623 90.2268 0.725832 89.8615 0.222518L89.697 0L89.2308 0.00529805C88.9765 0.0105961 88.4467 0.0370863 88.0546 0.0582784ZM85.7129 0.688746C85.9939 0.815899 86.0363 0.92186 85.8824 1.0861C85.676 1.30332 85.231 1.44107 84.627 1.47286C84.0917 1.49935 84.0811 1.49405 84.0811 1.38279C84.0811 0.810601 85.0615 0.392055 85.7129 0.688746ZM89.5118 0.953648C89.6017 0.990734 89.644 1.03842 89.6334 1.10199C89.6178 1.17087 89.5381 1.20266 89.2469 1.22915C89.0401 1.25564 88.8175 1.25564 88.754 1.24504C88.6429 1.21855 88.6374 1.20266 88.701 1.12848C88.8599 0.932456 89.2414 0.852985 89.5118 0.953648ZM87.4083 1.66358C87.6151 1.76955 87.7897 2.03445 87.7897 2.24107C87.7897 2.47418 87.4986 2.73379 87.1913 2.78147C86.6136 2.87154 85.9884 2.52716 86.0626 2.1616C86.1791 1.58411 86.8098 1.351 87.4083 1.66358ZM28.5047 2.65432C28.7537 2.78677 28.9974 3.09405 28.971 3.2265C28.9339 3.41194 27.2862 3.26359 26.9895 3.05167C26.8411 2.94041 26.963 2.72319 27.2491 2.59074C27.567 2.4424 28.1815 2.47418 28.5047 2.65432ZM84.4893 2.54836C85.0242 2.61723 85.5222 2.84505 85.6705 3.08346C85.9884 3.60796 85.5857 4.12717 84.7275 4.29672C83.9065 4.45566 82.3912 4.19604 81.7924 3.79869C81.427 3.54968 81.5859 3.15233 82.1687 2.86624C82.8151 2.54836 83.6416 2.4318 84.4893 2.54836ZM89.5063 2.86624C89.7818 3.08346 89.6017 3.30068 89.093 3.36955C88.7595 3.41723 88.5844 3.36425 88.5844 3.21591C88.5844 2.85034 89.1939 2.61723 89.5063 2.86624ZM24.0491 3.14174C24.4093 3.26889 24.2769 3.39074 23.7789 3.39074C23.6464 3.39074 23.4981 3.37485 23.4504 3.35896C23.3656 3.32717 23.3338 3.17352 23.4027 3.10995C23.4557 3.05167 23.8531 3.07286 24.0491 3.14174ZM81.0506 3.26889C81.1409 3.33776 81.199 3.43313 81.2096 3.53909C81.2363 3.7775 81.0718 3.86757 80.6268 3.86757C80.3144 3.86757 80.2614 3.85167 80.1873 3.74571C80.0707 3.56028 80.0334 3.31657 80.1182 3.2477C80.3038 3.09405 80.8336 3.10995 81.0506 3.26889ZM78.6241 3.33247C78.6241 3.38545 78.5767 3.49141 78.5182 3.56558C78.3859 3.72982 77.8294 4.01591 77.5433 4.06359L77.3369 4.09538L77.4374 3.92584C77.6917 3.48611 78.6241 3.01988 78.6241 3.33247ZM26.4544 3.54439C26.8517 3.63975 27.0584 4.00002 26.9153 4.3444C26.8253 4.56162 26.6027 4.70996 26.2584 4.77884C26.0147 4.83182 25.9405 4.82652 25.7286 4.74705C25.4107 4.62519 25.3047 4.46625 25.3418 4.17485C25.3789 3.91525 25.5855 3.68214 25.8875 3.57617C26.1312 3.48611 26.1895 3.48611 26.4544 3.54439ZM79.4137 3.95763C79.5354 3.98942 79.5354 4.00532 79.5142 4.41857C79.4773 5.06493 79.1963 5.50997 78.6508 5.77487C78.4177 5.88613 77.7714 5.99209 77.5539 5.9497C77.4323 5.92851 77.4268 5.91262 77.4641 5.6795C77.6442 4.55102 78.5661 3.72982 79.4137 3.95763ZM87.774 4.03181C88.0122 4.12187 88.1606 4.29142 88.1606 4.47685C88.1606 4.8742 87.6893 5.24506 87.1807 5.24506C86.8573 5.24506 86.391 5.11791 86.1897 4.96957C85.8612 4.73645 86.0999 4.25433 86.6348 4.06359C86.9052 3.96823 87.5621 3.94704 87.774 4.03181ZM30.8624 4.45566C31.408 4.604 31.5829 4.79473 31.4504 5.10202C31.2968 5.47818 30.6557 5.88613 29.9352 6.07156C29.6809 6.13513 29.4319 6.15103 28.9498 6.13513C28.3564 6.11394 28.2822 6.10335 27.959 5.93911C27.5829 5.75897 27.3709 5.53646 27.318 5.26626C27.2279 4.84241 27.8902 4.52453 29.1405 4.39208C29.6226 4.3444 30.571 4.37619 30.8624 4.45566ZM76.7168 4.37089C76.7168 4.38678 76.6588 4.51394 76.5897 4.65168C76.3303 5.16559 75.6945 5.59473 75.1012 5.65301L74.8045 5.6848L74.8625 5.53116C75.0164 5.13381 75.2919 4.84771 75.7526 4.6146C76.0811 4.44506 76.7168 4.28612 76.7168 4.37089ZM35.0584 4.79473C35.4399 4.93248 35.7101 5.16559 35.7101 5.35632C35.7101 5.45169 35.6889 5.46228 35.5405 5.4305C34.9736 5.30864 34.5445 5.01725 34.5445 4.76294C34.5445 4.63049 34.624 4.63579 35.0584 4.79473ZM32.9551 4.79473C33.3312 4.99076 32.9922 5.45699 32.473 5.45699C32.1657 5.45699 31.9484 5.30334 31.9484 5.08612C31.9484 4.85301 32.1604 4.71526 32.5153 4.71526C32.6743 4.71526 32.8703 4.75235 32.9551 4.79473ZM84.1341 4.78943C84.7381 4.90069 85.1356 5.07023 85.395 5.32983C85.5383 5.46758 85.6175 5.59473 85.6069 5.65301C85.5858 5.77487 85.0932 6.07156 84.7169 6.18811C84.2506 6.33116 83.0906 6.30467 82.4336 6.12984C81.6652 5.92851 81.093 5.61063 80.929 5.30334L80.8548 5.1497L81.1303 5.04374C81.5169 4.8901 81.7343 4.83182 82.0679 4.77354C82.5184 4.69937 83.689 4.70996 84.1341 4.78943ZM24.4199 5.155C24.6266 5.57354 24.4623 5.63182 23.6994 5.4252C23.5458 5.38281 23.4186 5.32983 23.4186 5.30864C23.4186 5.23977 23.6994 4.99076 23.8425 4.93248C23.9166 4.90069 24.0491 4.8848 24.1338 4.8901C24.2663 4.90069 24.314 4.94308 24.4199 5.155ZM34.7405 5.53116C35.1008 5.7007 35.4716 6.07686 35.6412 6.44242C35.7842 6.7603 35.8637 7.32719 35.7736 7.38547C35.6889 7.43845 34.9842 7.32189 34.6028 7.19474C34.2001 7.06759 33.8398 6.7603 33.7445 6.47951C33.7127 6.37884 33.6968 6.15103 33.7074 5.97089C33.7286 5.70599 33.7551 5.63182 33.8769 5.52586C34.0677 5.36162 34.3802 5.36692 34.7405 5.53116ZM88.5738 5.7007C88.7489 5.82255 88.7328 6.14043 88.5476 6.36295C88.2877 6.67024 87.8957 6.755 87.5939 6.56957C87.3714 6.43712 87.3235 6.25169 87.4562 6.02917C87.6626 5.6795 88.2827 5.49407 88.5738 5.7007ZM37.0505 5.74838C37.7604 5.93381 38.3644 6.36295 38.4915 6.7762L38.5286 6.90335L38.1789 6.86626C37.7127 6.81858 37.3154 6.66494 37.0346 6.42653C36.8279 6.24639 36.5048 5.81195 36.5048 5.71129C36.5048 5.64771 36.7167 5.65831 37.0505 5.74838ZM80.431 5.92851C80.489 5.98679 80.378 6.27818 80.2135 6.47421C79.8321 6.92984 78.9102 7.16825 78.2533 6.97752C78.0943 6.92984 77.9142 6.86096 77.8612 6.81858C77.7659 6.74971 77.7714 6.73381 77.9621 6.52189C78.2745 6.17752 78.7513 5.9656 79.3764 5.88613C79.721 5.84374 80.3725 5.87023 80.431 5.92851ZM26.6769 6.08745C26.9206 6.19341 27.2332 6.52719 27.2332 6.68083C27.2332 6.74441 27.1431 6.83977 26.9842 6.94573C26.2372 7.41726 25.31 7.34838 25.1193 6.80798C25.0557 6.62255 25.061 6.56957 25.1299 6.40004C25.3047 5.98149 26.0676 5.82785 26.6769 6.08745ZM31.816 6.57487C32.0491 6.60666 32.261 6.64904 32.2822 6.67024C32.367 6.755 32.2451 7.01991 32.0173 7.24242C31.5511 7.69276 30.7034 7.97885 29.6703 8.03713C29.1246 8.06362 28.1868 8.00004 27.8372 7.91527C27.6782 7.87289 27.6676 7.69276 27.8107 7.39077C28.0438 6.88216 28.5471 6.60666 29.4319 6.51129C29.8769 6.46891 31.2279 6.5007 31.816 6.57487ZM74.6667 6.54838C74.6188 6.67553 73.5753 7.59209 73.1248 7.90468C72.9023 8.05302 72.4839 8.30203 72.1872 8.45038C71.6574 8.72058 70.5923 9.10203 70.5342 9.04376C70.4707 8.98018 70.783 8.54574 71.1382 8.20667C71.8638 7.50203 72.9501 6.90865 74.0678 6.59606C74.6188 6.44242 74.7091 6.43712 74.6667 6.54838ZM87.0641 7.19474L87.3184 7.306L87.3023 7.71925L87.2866 8.13249L86.995 8.28614C86.7831 8.40269 86.6297 8.44508 86.4283 8.44508C86.1846 8.45037 86.1261 8.42918 85.9833 8.28084C85.676 7.97355 85.7235 7.36428 86.0838 7.13646C86.2745 7.01461 86.7195 7.0411 87.0641 7.19474ZM82.8731 7.15236C83.4297 7.23183 83.901 7.41196 84.1341 7.62388L84.3354 7.81461L84.2612 8.15898C84.1341 8.75766 83.7314 9.1815 83.0957 9.37753C82.0522 9.70071 80.8705 9.22389 80.6374 8.3921C80.3937 7.52322 81.4376 6.94573 82.8731 7.15236ZM34.3961 7.43845C34.8306 7.53381 35.0425 7.63978 35.3021 7.88349C35.5352 8.1113 35.5458 8.17488 35.3551 8.26494C34.6134 8.60402 33.7975 8.55634 33.2412 8.13249C32.9339 7.89938 32.7855 7.45434 32.9975 7.40136C33.2041 7.34838 34.0624 7.36958 34.3961 7.43845ZM78.2003 7.54971C78.333 7.59209 78.497 7.68216 78.5712 7.74044L78.7038 7.8411L78.4919 8.03183C78.0413 8.43448 77.3208 8.68879 76.6376 8.68879C76.1714 8.68879 75.9065 8.63051 75.7581 8.49806C75.636 8.3921 75.7051 8.16958 75.9327 7.94176C76.399 7.48083 77.4798 7.29011 78.2003 7.54971ZM39.6571 7.81991C40.3087 7.98415 40.971 8.27024 41.5379 8.63051C42.02 8.9325 42.9684 9.7219 42.9684 9.81727C42.9684 9.90204 42.3591 9.82257 41.8293 9.66892C41.22 9.49409 40.2982 9.03846 39.7789 8.6464C39.265 8.25965 38.677 7.74574 38.677 7.67686C38.677 7.60799 39.0425 7.66097 39.6571 7.81991ZM25.6279 7.81461C25.861 7.95236 26.0147 8.17488 26.0147 8.36561C26.0147 8.63051 25.5219 8.81594 25.1458 8.68879C24.7272 8.55104 24.5524 8.07951 24.8226 7.81461C24.9974 7.63448 25.3153 7.63448 25.6279 7.81461ZM32.3458 8.95369C32.6849 9.11793 32.8491 9.37753 32.8491 9.74839C32.8438 10.5696 32.1127 11.1259 31.0213 11.1259C30.02 11.1259 29.257 10.6438 29.1617 9.95502C29.1087 9.57886 29.2359 9.34574 29.5749 9.1974C30.4332 8.81594 31.816 8.69938 32.3458 8.95369ZM37.0611 8.97488C37.4213 9.13912 37.6862 9.36693 37.7816 9.60535C37.8664 9.81197 37.7869 9.87555 37.3154 9.96031C36.9127 10.0398 36.3564 10.008 35.869 9.88084C35.4875 9.78018 34.7034 9.44111 34.7034 9.37223C34.7034 9.29806 34.9842 9.06495 35.1803 8.96958C35.4875 8.82654 35.6571 8.80005 36.2134 8.81594C36.6584 8.82654 36.7962 8.85303 37.0611 8.97488ZM84.8071 8.85832C84.9025 8.98548 84.9237 9.17621 84.8652 9.48879L84.8122 9.80137H84.5049C84.2083 9.80137 84.1977 9.79608 84.1396 9.63713C84.0493 9.38283 84.0705 9.1974 84.1926 9.03846C84.3672 8.81594 84.7012 8.72057 84.8071 8.85832ZM27.3921 9.12323C27.6623 9.26097 27.869 9.53647 27.869 9.75369C27.869 9.93383 27.6411 10.2146 27.408 10.31C27.1855 10.4053 26.6928 10.4053 26.4756 10.31C26.0676 10.1351 25.914 9.74839 26.1312 9.43051C26.4067 9.02256 26.9365 8.89541 27.3921 9.12323ZM75.0427 9.48349C75.1168 9.50998 75.1804 9.55237 75.1804 9.57886C75.1804 9.60535 75.0376 9.80137 74.8625 10.0186C74.3327 10.665 73.7182 12.0107 73.485 13.0332C73.4482 13.1921 73.3897 13.3775 73.3528 13.4358C73.3104 13.4994 73.0455 13.6954 72.7539 13.8703C71.0797 14.8981 69.7078 16.4027 69.3051 17.6531C69.2678 17.7643 69.1512 17.9233 69.0453 18.0133C68.9393 18.1034 67.8005 18.7021 66.5183 19.3484C64.1181 20.5617 61.8823 22.0981 61.8823 22.0981C61.8823 22.0981 59.8797 23.2478 59.0108 23.3379L58.6561 23.3749L58.6823 23.0941C58.762 22.3365 59.1329 21.4147 59.6839 20.6094C60.1976 19.8517 60.4892 19.518 62.2532 17.6372C62.677 17.1868 63.3183 16.4769 63.6837 16.0584C64.0495 15.6345 64.6797 14.9087 65.0824 14.4425C65.93 13.4676 67.4453 11.9312 68.0281 11.4597C69.5276 10.2517 70.9314 9.65833 72.6797 9.48879C73.3367 9.42521 74.8837 9.41992 75.0427 9.48349ZM78.4283 9.56296C79.2972 9.74839 79.8376 10.3047 80.0334 11.2265C80.3038 12.5087 79.827 13.6583 78.8255 14.1352C78.2321 14.4213 77.3581 14.4848 76.5316 14.3047C75.917 14.167 73.8932 13.616 73.8453 13.5683C73.7923 13.5206 74.1526 11.7669 74.3009 11.3802C74.4705 10.9246 74.6349 10.6755 74.9367 10.3948C75.6416 9.7431 77.3581 9.33515 78.4283 9.56296ZM86.6983 9.91793C86.725 10.0186 86.7301 10.1722 86.7089 10.2517C86.6191 10.6014 86.0626 10.8928 85.8985 10.6755C85.8032 10.5378 85.8138 10.1934 85.9197 10.008C86.0096 9.85965 86.1634 9.77488 86.4122 9.7325C86.6191 9.70071 86.6454 9.71661 86.6983 9.91793ZM41.3525 10.5431C43.8216 10.8186 45.2359 11.6769 48.5843 14.914C49.2094 15.518 50.3538 16.604 51.1273 17.3246C52.8545 18.9352 54.3223 20.4239 54.7991 21.0597C55.3607 21.8014 55.6468 22.4531 55.7684 23.2531L55.8002 23.4862L55.3289 23.4491C54.8415 23.412 54.1845 23.2531 53.681 23.0518C53.2677 22.8875 52.9605 22.7233 51.7101 22.0133C49.4269 20.7153 47.9591 20.0054 46.624 19.5498C45.0825 19.0252 44.913 18.9034 44.4679 17.9815C43.8851 16.7683 43.3765 16.2915 41.3313 15.0729L40.3564 14.4901L40.2399 14.0663C39.9697 13.0703 39.3869 12.0054 38.6028 11.0517C38.3591 10.755 38.3167 10.6755 38.3803 10.6385C38.5922 10.5166 40.5683 10.4583 41.3525 10.5431ZM83.1224 10.6544C83.6043 10.9246 83.8005 11.5603 83.5619 12.0954C83.2177 12.8742 81.8297 13.0067 81.4588 12.2914C81.1621 11.7193 81.4533 10.861 82.0361 10.5855C82.3277 10.453 82.8202 10.4795 83.1224 10.6544ZM29.3259 10.8186C29.4266 11.0676 29.4743 11.3643 29.4319 11.4914C29.4054 11.5868 29.3577 11.6027 29.0875 11.6027H28.7749L28.669 11.3113C28.4676 10.7815 28.5312 10.6544 28.9974 10.6491C29.2359 10.6491 29.257 10.6597 29.3259 10.8186ZM37.2889 10.9458C38.3538 11.1577 39.0531 11.714 39.3869 12.6093C39.5458 13.0385 40.0227 14.6703 39.9962 14.6968C39.9697 14.7232 38.7405 15.1524 37.9352 15.4173C37.6015 15.5285 37.1193 15.6504 36.865 15.6822C35.4875 15.8676 34.2372 15.2795 33.7339 14.2146C33.5749 13.8703 33.5643 13.8226 33.5696 13.2451C33.5696 12.7418 33.5908 12.5828 33.6915 12.3285C33.9882 11.5815 34.5922 11.1312 35.5776 10.9352C36.0332 10.8451 36.812 10.8451 37.2889 10.9458ZM84.9182 11.1047C85.0559 11.2001 85.1937 11.4491 85.1937 11.6027C85.1937 11.7616 84.9555 11.8411 84.6906 11.7616C84.4575 11.6928 84.0811 11.4597 84.0811 11.3802C84.0811 11.3537 84.1502 11.2583 84.235 11.1736C84.4151 10.9987 84.7169 10.9616 84.9182 11.1047ZM27.4186 11.7405C27.7153 11.8782 27.8531 12.302 27.6782 12.5458C27.5246 12.7683 27.1007 12.6464 26.9471 12.3232C26.8305 12.0795 26.8411 11.8888 26.9683 11.7616C27.0954 11.6345 27.1855 11.6292 27.4186 11.7405ZM31.6624 12.2862C32.3511 12.5987 32.5524 13.6424 32.0226 14.1617C31.8107 14.3789 31.6094 14.4689 31.2862 14.5007C30.1948 14.612 29.5802 13.4411 30.3008 12.604C30.6398 12.2067 31.1961 12.0742 31.6624 12.2862ZM29.3736 12.9325C29.5325 13.0544 29.5431 13.1338 29.4372 13.3458C29.3418 13.5259 29.1511 13.616 28.8597 13.616C28.4782 13.616 28.3882 13.3881 28.6478 13.0862C28.8809 12.8054 29.1405 12.7524 29.3736 12.9325ZM84.5791 14.0186C84.627 14.1458 84.6164 14.6756 84.5634 14.6756C84.4202 14.6756 84.1926 14.5431 84.1396 14.4319C84.0599 14.257 84.0654 14.0027 84.1502 13.9709C84.2985 13.9074 84.5473 13.9338 84.5791 14.0186ZM82.7566 14.0663C83.0003 14.1934 83.0058 14.3259 82.7778 14.6597L82.5765 14.9511L82.2535 14.9299C81.6919 14.8822 81.3897 14.6332 81.5275 14.3312C81.6601 14.0398 82.4018 13.8809 82.7566 14.0663ZM76.0811 14.4636C77.4056 14.5855 78.497 14.8451 78.8628 15.1206C79.8109 15.8464 79.8003 17.8173 78.8416 18.7498C78.2321 19.3431 77.5806 19.359 74.2268 18.8875C71.546 18.506 70.942 18.3577 70.3223 17.9445C70.0519 17.7696 69.9354 17.563 69.9354 17.2716C69.9354 16.8213 70.3965 16.1431 71.1594 15.465C71.938 14.7656 72.3301 14.559 73.0188 14.4689C73.5117 14.4054 75.3766 14.4001 76.0811 14.4636ZM41.2465 15.7034C41.7551 15.8464 42.1631 16.0636 42.6878 16.4663C43.6838 17.2398 44.0809 17.7325 44.0809 18.1935C44.0809 18.9193 43.3129 19.2849 40.6107 19.8358C39.9697 19.9683 39.0054 20.1749 38.465 20.2915C37.6544 20.4716 37.3524 20.514 36.7167 20.5405C36.012 20.567 35.922 20.5564 35.6359 20.4504C35.2438 20.3021 34.9736 20.0584 34.7617 19.661C34.4279 19.0305 34.269 17.9974 34.4279 17.4464C34.5975 16.8742 35.1538 16.3762 35.9114 16.1378C36.3405 16.0054 37.575 15.7776 38.5445 15.6557C39.3286 15.5603 40.8174 15.5868 41.2465 15.7034ZM29.7286 15.7935C29.8663 15.9312 29.8239 16.1855 29.6385 16.355C29.4743 16.5034 29.3206 16.5087 29.2465 16.3762C29.1246 16.1431 29.2147 15.8199 29.4213 15.7352C29.5908 15.6663 29.6067 15.6716 29.7286 15.7935ZM32.2504 15.7617C32.4253 15.8358 32.4359 15.8517 32.4041 16.016C32.3829 16.106 32.2875 16.265 32.1869 16.3656C32.0385 16.5193 31.9643 16.5511 31.7153 16.5723C31.2226 16.6146 30.8888 16.3868 30.8888 16.0213C30.8888 15.9206 30.8941 15.8411 30.9047 15.8411C30.91 15.8411 31.0107 15.804 31.1273 15.7617C31.408 15.661 32.0067 15.661 32.2504 15.7617ZM82.0361 16.3391C82.3171 16.4557 82.4548 16.6729 82.4281 16.959C82.3857 17.3829 82.0628 17.6796 81.5118 17.8014C81.035 17.9074 80.431 17.7272 80.3831 17.4623C80.3038 17.0756 80.6162 16.5564 81.0294 16.3656C81.2893 16.2491 81.7873 16.2332 82.0361 16.3391ZM83.8429 17.0491C83.8005 17.2822 83.3979 17.6954 83.2071 17.6954C82.9367 17.6954 83.0745 17.2239 83.4826 16.7895L83.7369 16.5193L83.8056 16.6941C83.848 16.7948 83.8641 16.9378 83.8429 17.0491ZM33.1034 18.0239C33.4266 18.1776 33.6173 18.4478 33.6173 18.7603C33.6173 19.1736 33.3153 19.3908 32.7326 19.3908C32.1233 19.3908 31.6306 19.0411 31.6306 18.6067C31.6306 17.9868 32.3829 17.6901 33.1034 18.0239ZM30.4173 18.4319C30.82 18.6915 30.9948 18.9511 30.9948 19.2902C30.9948 19.4597 30.9842 19.4597 30.6451 19.3378C30.4703 19.269 30.2637 18.9829 30.1736 18.6915C30.0359 18.2199 30.057 18.1988 30.4173 18.4319ZM70.4122 18.8345C70.6877 18.8822 71.3446 18.9988 71.8694 19.1047C72.7539 19.2796 72.9552 19.2955 74.5714 19.3643C76.7541 19.4597 77.1725 19.5233 77.8455 19.8782C78.6559 20.3127 79.0798 21.2769 78.8945 22.2624C78.7674 22.9193 78.2321 23.7723 77.7023 24.1484C77.342 24.4081 77.072 24.4875 76.5579 24.4875C76.076 24.4928 75.6996 24.4134 74.4917 24.0531C73.591 23.7882 72.6958 23.6028 71.8164 23.4968C70.4495 23.3379 69.9248 23.3908 66.9685 23.9736C63.8905 24.5776 63.6731 24.6094 62.1472 24.6094C60.9766 24.6094 60.7965 24.5988 60.2929 24.4875C59.9856 24.4187 59.5512 24.2862 59.3236 24.2014C58.9951 24.069 58.926 24.0266 58.9739 23.963C59.0693 23.8518 59.6254 23.6028 60.4413 23.3114C61.8137 22.8186 62.0837 22.665 63.8587 21.3935C66.3064 19.6398 67.3181 19.0676 68.3989 18.8398C68.8601 18.7392 69.7976 18.7392 70.4122 18.8345ZM80.7171 18.9511C81.2837 19.2425 81.3528 19.6981 80.8654 19.9047C80.3356 20.1219 79.7049 19.8094 79.5778 19.269C79.546 19.11 79.5566 19.0464 79.6469 18.9352C79.7473 18.8027 79.774 18.7974 80.1288 18.8186C80.3619 18.8345 80.5844 18.8875 80.7171 18.9511ZM82.9685 19.4491C82.9685 19.6186 82.9367 19.6981 82.8096 19.82C82.6032 20.0319 82.37 20.0213 82.3433 19.8041C82.3222 19.6133 82.4069 19.4597 82.6138 19.3378C82.8837 19.1683 82.9685 19.1948 82.9685 19.4491ZM45.8666 19.6345C46.5604 19.7776 47.5302 20.1378 48.8598 20.7471C49.7075 21.1339 50.1843 21.4094 51.4189 22.2253C53.236 23.4332 54.0785 23.8147 55.2759 23.9736C55.5302 24.0054 55.5302 24.0107 55.4399 24.1114C55.2759 24.2915 54.5181 24.6306 53.9671 24.7683C53.6704 24.8425 53.1037 24.9326 52.685 24.9643C51.4876 25.065 50.3699 24.9749 46.8359 24.4928C45.9565 24.3763 45.6017 24.3551 44.4785 24.3498C43.2333 24.3498 43.1167 24.3551 42.4862 24.4928C41.8293 24.6306 41.024 24.8796 39.4717 25.4253C38.2372 25.8544 37.6862 25.8756 36.9498 25.51C36.2716 25.1763 35.6571 24.3657 35.4981 23.5922C35.3975 23.1047 35.4504 22.3895 35.6147 22.0292C35.7948 21.6372 36.1657 21.2451 36.5471 21.0438C37.1299 20.7312 37.7551 20.62 39.4981 20.5034C40.9286 20.408 41.2995 20.3445 42.6505 19.963C43.0743 19.8464 43.6202 19.7034 43.869 19.6504C44.4412 19.5339 45.3313 19.5233 45.8666 19.6345ZM34.5127 20.567C34.5763 21.1021 34.5604 21.1763 34.3749 21.2875C34.0783 21.4729 33.7286 21.5365 33.416 21.4623C33.2624 21.4253 33.0822 21.3511 33.0134 21.2928L32.8809 21.1868L32.9816 20.9961C33.2041 20.5829 33.7021 20.3021 34.2319 20.2968L34.4756 20.2915L34.5127 20.567ZM31.5193 20.9855C31.71 21.0544 31.8425 21.2663 31.8425 21.51C31.8425 21.6425 31.8213 21.669 31.7206 21.669C31.6571 21.669 31.5458 21.6319 31.4769 21.5842C31.3604 21.4994 31.159 21.1286 31.1537 20.9908C31.1537 20.9114 31.2968 20.9061 31.5193 20.9855ZM81.6707 21.9021C82.0255 22.0557 82.1687 22.5167 81.9725 22.8822C81.8453 23.1206 81.5804 23.2584 81.2575 23.2584C80.3195 23.2584 80.1873 22.2094 81.0879 21.8915C81.3104 21.812 81.4588 21.8173 81.6707 21.9021ZM33.4478 23.5445C33.5432 23.5816 33.6968 23.7034 33.7975 23.8147C33.9511 23.9895 33.9723 24.0425 33.9458 24.2279C33.8716 24.7842 33.1246 25.0544 32.6425 24.6994C32.2186 24.3922 32.2345 23.6981 32.6637 23.518C32.8332 23.4544 33.2624 23.465 33.4478 23.5445ZM65.4214 25.8915C67.7157 25.9021 69.5539 25.9339 69.5382 25.9604C69.4852 26.0451 67.9009 26.3736 66.6773 26.5538C66.3751 26.5961 65.7075 26.6226 64.8492 26.6226C63.6892 26.6173 63.4137 26.6014 62.8839 26.5008C62.1422 26.363 61.7077 26.2253 61.2203 25.9869C60.8757 25.8173 60.8651 25.8067 61.0614 25.8332C61.1779 25.8491 63.1382 25.8756 65.4214 25.8915ZM74.5184 25.9604C76.3833 26.1723 77.6387 26.914 77.9672 28.016C78.0892 28.4134 78.0786 28.6995 77.9303 28.8584C77.6124 29.1975 76.9343 29.3511 75.7208 29.3511C74.7091 29.3511 71.9223 29.1286 71.3819 29.0067C70.6932 28.8531 70.3117 28.5352 69.8824 27.7723C69.5327 27.1524 69.1674 26.6226 69.0453 26.5644C68.9766 26.5273 68.9448 26.4902 68.9711 26.469C69.1356 26.3683 71.2811 26.0081 72.1075 25.9445C72.6535 25.9021 74.0733 25.9127 74.5184 25.9604ZM53.5114 26.0293C53.5114 26.4054 51.7313 26.9829 50.1525 27.1259C49.3154 27.2001 47.7633 27.1895 47.0851 27.0995C46.1154 26.9723 45.0346 26.7339 45.0346 26.6491C45.0346 26.6279 45.5911 26.5961 46.2692 26.575C50.4492 26.4531 51.7949 26.3524 52.8494 26.0716C53.3101 25.9498 53.5114 25.9392 53.5114 26.0293ZM61.5382 26.4213C64.0863 27.2955 64.1554 27.3008 65.9885 26.9935C66.9528 26.8346 67.2495 26.8028 67.7369 26.8187C68.2718 26.8346 68.3515 26.8504 68.6744 27.0094C69.236 27.2849 69.7607 27.8624 70.2426 28.726C70.338 28.8955 70.6508 29.563 70.9475 30.2094C71.5727 31.5922 71.6943 31.82 72.1343 32.424C72.5314 32.9591 72.6903 33.2187 72.6903 33.3193C72.6903 33.3776 72.542 33.3882 71.8321 33.3617C70.174 33.3035 68.5897 32.816 66.3064 31.677C65.3528 31.1948 63.7155 30.2836 63.0216 29.8385C61.1885 28.6677 60.0123 27.3379 60.0123 26.4372C60.0123 26.273 60.028 26.1087 60.0492 26.0769C60.1128 25.971 60.468 26.0557 61.5382 26.4213ZM54.5181 26.3048C54.5711 26.3683 54.5554 26.4796 54.4439 26.8663C54.1739 27.8094 53.7552 28.4663 52.8918 29.3034C52.0547 30.114 51.0532 30.8293 49.1777 31.9525C46.5447 33.5313 44.8968 34.1776 43.1379 34.3366C42.7564 34.3684 42.4227 34.3896 42.3909 34.379C42.3591 34.3684 42.4386 34.2253 42.5763 34.0664C42.873 33.7061 43.3553 32.7313 43.6889 31.8147C44.2348 30.3101 44.526 29.5683 44.7591 29.1233C45.5962 27.4862 46.4176 27.1206 48.505 27.465C50.3432 27.7723 50.5607 27.7352 52.7434 26.8187C53.7022 26.416 54.2057 26.2359 54.3646 26.2306C54.4121 26.2253 54.4812 26.2624 54.5181 26.3048ZM44.0492 26.9935C44.7116 27.0624 45.1406 27.1259 45.575 27.2107L45.7183 27.2372L45.5063 27.4279C45.3631 27.5604 45.2041 27.8147 44.971 28.2862C44.526 29.1975 44.3302 29.4836 44.0068 29.6955C43.2706 30.1776 41.3578 30.4849 39.0743 30.4902C37.7074 30.4902 37.3365 30.4425 37.024 30.2306L36.8491 30.114L36.8544 29.6637C36.8544 29.2875 36.8756 29.171 37.0081 28.9008C37.4637 27.9365 38.7829 27.2584 40.6902 26.9935C41.3842 26.8981 43.154 26.8981 44.0492 26.9935ZM61.1991 29.065C62.4545 30.0717 64.0706 31.163 65.7872 32.1591L66.534 32.5935L66.7565 33.2399C67.3872 35.0783 68.0442 36.4823 68.9923 38.0134C69.9832 39.6187 70.121 39.979 70.0837 40.9432C70.0468 41.9551 69.8718 42.1512 69.0665 42.1088C68.3671 42.077 67.7314 41.6426 66.8837 40.6306C66.3594 39.9949 65.9038 39.3485 64.8653 37.7485C64.3724 36.9909 63.5141 35.7353 62.9581 34.9564C60.6269 31.714 59.9221 30.4584 59.3978 28.6465C59.1592 27.8359 59.1223 27.5551 59.2176 27.4067C59.2969 27.2902 59.3024 27.2902 59.9115 27.9101C60.2561 28.2544 60.8333 28.7736 61.1991 29.065ZM55.4243 27.4491C55.5302 27.6504 55.3446 28.9167 55.0746 29.8491C54.6931 31.163 54.2375 32.0637 52.6638 34.5962C52.1501 35.428 51.3604 36.7366 50.9154 37.5101C49.3684 40.1697 48.3991 41.6585 47.8743 42.1618C47.3924 42.6225 46.9631 42.8238 46.4227 42.8238C46.2002 42.8238 45.967 42.8081 45.9035 42.7869C45.75 42.739 45.5169 42.2836 45.4584 41.9181C45.3898 41.5207 45.4639 40.922 45.6441 40.3816C45.7233 40.1591 46.0624 39.4121 46.407 38.7286C47.3818 36.779 47.8693 35.5392 48.2401 34.0664C48.4097 33.3988 48.4359 33.3405 48.6267 33.1657C48.7432 33.065 49.4743 32.5193 50.2585 31.9631C53.0083 29.9922 54.1684 28.9538 55.0479 27.6557C55.1644 27.4809 55.2865 27.3379 55.3128 27.3379C55.3395 27.3379 55.387 27.3855 55.4243 27.4491ZM80.5102 27.6875C80.9502 27.8995 81.3261 28.5564 81.3261 29.1233V29.4147L81.1566 29.3829C80.7433 29.3034 80.2296 28.9856 79.8482 28.5776C79.6414 28.3551 79.4718 28.1326 79.4718 28.0796C79.4718 27.9471 79.6731 27.7087 79.8639 27.624C80.0495 27.5392 80.2402 27.5604 80.5102 27.6875ZM58.6031 28.4081C58.6984 28.5935 59.1274 29.3829 59.5673 30.1723C61.2678 33.224 61.787 34.6439 61.909 36.5829C61.9247 36.8425 61.9514 37.2081 61.9671 37.3882C61.9777 37.5737 61.9726 37.722 61.9514 37.722C61.9302 37.722 61.8188 37.5631 61.7128 37.3617C61.6068 37.1657 61.2203 36.4929 60.8494 35.8677C59.0799 32.8584 58.3327 30.8664 58.3327 29.1392C58.3327 28.6094 58.375 28.0796 58.4174 28.0796C58.428 28.0796 58.5128 28.2279 58.6031 28.4081ZM56.436 29.1339C56.4889 29.7591 56.4839 29.9763 56.4097 30.575C56.2507 31.8889 55.8693 32.9538 54.677 35.4703C53.8878 37.1286 53.6174 37.7432 53.6174 37.8598C53.6174 37.9021 53.5962 37.9339 53.5699 37.9339C53.5009 37.9339 53.4055 37.0651 53.4055 36.4187C53.411 35.3856 53.6123 34.3313 54.0413 33.1657C54.2638 32.5617 54.4227 32.1962 55.2759 30.3313C55.5514 29.7167 55.8532 29.0067 55.9435 28.7471C56.0388 28.4822 56.1393 28.2385 56.1711 28.1961C56.2876 28.0584 56.3724 28.3763 56.436 29.1339ZM35.1167 29.1445C35.2597 29.1975 35.2703 29.3723 35.1538 29.7591C35.0372 30.1511 34.7511 30.416 34.1047 30.7339L33.5644 30.9988L33.5485 30.7551C33.5008 30.0134 33.9564 29.2187 34.5074 29.0862C34.6822 29.0438 34.8995 29.065 35.1167 29.1445ZM71.9329 29.4836C72.3886 29.6054 72.6162 29.6266 73.9619 29.669C76.7062 29.7644 77.2627 29.9021 78.2321 30.7233C78.6771 31.0942 79.0535 31.5763 79.276 32.0478C79.4879 32.4929 79.5354 33.0915 79.3926 33.4677C79.2599 33.8121 78.995 34.0823 78.6347 34.2412C78.3804 34.3578 78.2109 34.3895 77.7184 34.416C77.1619 34.4478 77.0614 34.4372 76.4519 34.2889C73.7923 33.6425 72.1711 32.3869 71.334 30.3313C71.0691 29.6902 71.0797 29.3564 71.3501 29.3511C71.387 29.3511 71.6468 29.4094 71.9329 29.4836ZM80.3619 30.2147C80.5314 30.3948 80.6374 30.6915 80.6374 30.9882C80.6374 31.322 80.5475 31.4174 80.2347 31.4174C80.0283 31.4174 79.991 31.4015 79.9436 31.269C79.8588 31.0518 79.9063 30.4054 80.0177 30.2359C80.1288 30.0611 80.2135 30.0558 80.3619 30.2147ZM43.5829 30.6703C43.5143 31.4544 43.3129 32.0001 42.8412 32.7101C42.5286 33.1763 41.8028 33.9286 41.3048 34.2995C39.6624 35.518 37.5326 36.0372 36.4412 35.4915C35.371 34.9511 35.3392 33.6319 36.3723 32.4346C37.0452 31.6558 37.612 31.3061 38.571 31.0783C38.8783 31.0041 39.869 30.8346 40.7803 30.7021C41.6862 30.5697 42.5818 30.416 42.767 30.363C43.1964 30.2306 43.2812 30.22 43.4664 30.2465L43.6202 30.2677L43.5829 30.6703ZM81.9462 30.6015C82.1314 30.8875 82.0043 31.4703 81.75 31.4703C81.5647 31.4703 81.4639 31.2425 81.5063 30.8823C81.5486 30.4637 81.6122 30.3366 81.75 30.4107C81.8085 30.4425 81.8932 30.5273 81.9462 30.6015ZM34.9418 31.8147C34.9948 31.9313 35.0531 32.1644 35.0637 32.3339C35.0849 32.5988 35.069 32.6571 34.963 32.7737C34.7988 32.9485 34.5339 32.9485 34.3908 32.7684C34.1683 32.477 34.2054 32.0372 34.4915 31.7352C34.6875 31.5233 34.8094 31.5445 34.9418 31.8147ZM80.4416 32.0584C80.6374 32.2068 80.7277 32.5246 80.6323 32.7207C80.5475 32.8955 80.3195 33.0386 80.1979 32.9909C80.1237 32.9644 80.1076 32.8796 80.1076 32.5352C80.1076 31.9207 80.1661 31.8359 80.4416 32.0584ZM33.273 32.1326C33.4531 32.3286 33.4902 32.8425 33.3312 33.0015C33.2041 33.1286 33.0981 33.1021 33.0134 32.922C32.9074 32.6836 32.9604 32.0001 33.0875 32.0001C33.1193 32.0001 33.2041 32.0584 33.273 32.1326ZM82.142 32.3339C82.1844 32.3975 82.1844 32.4505 82.142 32.514C82.0784 32.6147 81.8347 32.6942 81.7182 32.6518C81.6071 32.6094 81.6283 32.4081 81.7555 32.2438C81.8559 32.1167 81.8771 32.1061 81.978 32.175C82.0416 32.2121 82.1157 32.2862 82.142 32.3339ZM68.1234 33.2505C71.9592 34.7657 74.3009 36.4081 75.0215 38.0929C75.1223 38.3207 75.1486 38.4849 75.1486 38.8346C75.1541 39.2373 75.138 39.3167 74.9952 39.571C74.6985 40.1114 74.0996 40.4982 73.3155 40.6571C72.2135 40.8849 71.3234 40.6359 70.5923 39.9101C69.9671 39.2796 69.0296 37.7485 68.0866 35.8041C67.2813 34.1458 66.9261 33.1604 67.0744 32.9803C67.1117 32.9379 67.1592 32.9008 67.1859 32.9008C67.2122 32.9008 67.636 33.0597 68.1234 33.2505ZM34.8995 33.6266C34.9895 33.8439 34.9736 34.3472 34.873 34.4478C34.8306 34.4902 34.7511 34.4637 34.5763 34.3631C34.3326 34.22 34.2425 34.0717 34.3167 33.9445C34.4014 33.8015 34.7299 33.4306 34.7723 33.4306C34.7935 33.4306 34.8518 33.5207 34.8995 33.6266ZM48.0015 33.7538C48.0015 34.1035 47.7951 35.0041 47.5938 35.5498C47.403 36.0531 46.3752 38.273 45.7712 39.4863C45.3949 40.2333 45.0083 40.8161 44.7061 41.0916C43.869 41.8439 42.0253 41.8969 40.9286 41.1922C40.4041 40.8585 40.1816 40.4134 40.2293 39.7882C40.3458 38.2306 42.322 36.3816 45.9353 34.4372C46.8253 33.9551 47.726 33.5419 47.8849 33.5366C47.9858 33.5366 48.0015 33.5631 48.0015 33.7538ZM80.1818 33.7273C80.2296 33.8491 80.0813 34.1511 79.9224 34.2571C79.7528 34.3684 79.6308 34.3154 79.5515 34.0929C79.5091 33.9657 79.5197 33.9339 79.6731 33.7962C79.8639 33.6266 80.1288 33.5895 80.1818 33.7273ZM73.7766 33.8492C75.2758 34.1035 76.4095 34.5061 77.2522 35.0783C77.7925 35.4439 78.0892 35.8942 78.0943 36.3498C78.0943 36.9061 77.6917 37.6319 77.2522 37.8651C76.6376 38.1882 76.0336 37.9127 74.423 36.5617C73.0612 35.428 72.1343 34.7657 71.0323 34.1458C70.7195 33.971 70.4652 33.8121 70.4652 33.7909C70.4652 33.722 70.778 33.7061 71.9486 33.722C72.8493 33.7326 73.2943 33.7644 73.7766 33.8492ZM33.3365 33.8386C33.4531 33.9445 33.4637 34.1511 33.3471 34.1935C33.2412 34.2359 32.9869 34.2359 32.8809 34.1935C32.7696 34.1511 32.7749 33.9657 32.8862 33.8439C32.9922 33.7273 33.2094 33.722 33.3365 33.8386ZM81.7394 33.918C81.8135 33.9922 81.8241 34.379 81.75 34.5644C81.6334 34.8717 81.2257 34.9458 81.1036 34.6756C81.0244 34.4955 81.0824 34.3207 81.3261 34.0717C81.5486 33.8439 81.6334 33.8121 81.7394 33.918ZM62.1896 34.4213C62.3647 34.7074 62.8254 35.3803 63.2124 35.9207C63.5989 36.4611 64.2296 37.3406 64.6216 37.881C66.2005 40.0849 66.9685 41.6532 66.9685 42.6967C66.9685 43.7936 65.9936 43.9949 65.0824 43.0836C63.8799 41.881 62.4177 38.3949 61.9302 35.5763C61.7976 34.8028 61.7395 33.9074 61.8188 33.9074C61.8455 33.9074 62.015 34.1405 62.1896 34.4213ZM53.2995 35.2743C53.2148 36.6518 53.0825 37.5207 52.7697 38.8081C52.134 41.4041 51.1167 43.3167 50.0626 43.894C49.824 44.0267 49.7181 44.0479 49.4002 44.0479C48.9763 44.0479 48.8759 44 48.7593 43.7245C48.5474 43.2053 48.8704 41.881 49.5379 40.5618C49.7287 40.1803 50.4598 38.9035 51.1591 37.722C51.8585 36.5406 52.5845 35.3114 52.7697 34.9935C52.9499 34.6703 53.1406 34.3684 53.183 34.3154C53.2627 34.2253 53.2677 34.2253 53.3101 34.3313C53.3313 34.3948 53.3313 34.8187 53.2995 35.2743ZM44.8494 34.6386C44.8176 34.665 44.4412 34.8929 44.0017 35.1525C42.4121 36.0849 42.2107 36.2439 40.8227 37.6425C39.3975 39.0783 39.2279 39.2055 38.6664 39.2055C38.4968 39.2055 38.2743 39.1737 38.1789 39.1313C37.914 39.02 37.575 38.6916 37.416 38.3896C37.2942 38.1565 37.273 38.0558 37.273 37.6425C37.273 37.2558 37.2942 37.1286 37.3895 36.9538C37.9511 35.9154 39.6306 35.1631 42.2531 34.7816C43.2121 34.6439 44.9498 34.5485 44.8494 34.6386ZM35.4663 35.2372C35.7683 35.4756 35.7577 35.7617 35.4346 35.7617C35.1538 35.7617 34.767 35.2478 34.9842 35.1631C35.1326 35.0995 35.3339 35.1313 35.4663 35.2372ZM33.8028 35.5816C34.0624 35.8041 34.1842 36.1061 34.0783 36.2757C34.0571 36.3074 33.9193 36.3551 33.771 36.371L33.5008 36.4081L33.4372 36.1697C33.3259 35.7247 33.3789 35.4439 33.5696 35.4439C33.6067 35.4439 33.7074 35.5074 33.8028 35.5816ZM79.8427 35.8995C79.8427 36.2757 79.7791 36.3975 79.5778 36.3975C79.4294 36.3975 79.4188 36.3869 79.4188 36.1856C79.4188 35.8412 79.5515 35.6505 79.8058 35.6081C79.827 35.6081 79.8427 35.7352 79.8427 35.8995ZM81.48 36.0002C81.5698 36.1061 81.644 36.2121 81.644 36.2386C81.644 36.2598 81.6601 36.318 81.6758 36.3604C81.7182 36.4823 81.5118 36.6624 81.3316 36.6624C81.1303 36.6624 81.0082 36.4929 81.0082 36.2227C81.0082 35.7882 81.2096 35.6929 81.48 36.0002ZM35.6306 37.118C35.7524 37.1657 35.9326 37.5472 35.9114 37.7114C35.8902 37.9074 35.6995 37.9286 35.5246 37.7538C35.3816 37.6055 35.3392 37.2664 35.4557 37.1498C35.5299 37.0757 35.5193 37.0757 35.6306 37.118ZM34.1418 37.3829C34.3061 37.4465 34.3432 37.6002 34.269 37.9074L34.2001 38.1988H33.914H33.6279L33.6597 37.9604C33.7339 37.4518 33.8716 37.2823 34.1418 37.3829ZM79.4082 38.0664C79.4243 38.326 79.2705 38.6015 79.0641 38.681C78.725 38.8081 78.7195 38.3949 79.0586 38.0081C79.2705 37.7697 79.387 37.7909 79.4082 38.0664ZM80.6535 38.2624C80.9341 38.6439 80.7383 39.7777 80.4098 39.6505C80.2826 39.6028 80.1606 39.3538 80.1606 39.1525C80.1606 38.9829 80.3089 38.2041 80.3568 38.13C80.4043 38.0505 80.542 38.1141 80.6535 38.2624ZM36.3299 39.375C36.616 39.6823 36.6955 39.9525 36.5207 40.0426C36.2875 40.1644 36.0544 39.9207 35.9961 39.481C35.9644 39.232 35.9697 39.2055 36.065 39.2055C36.118 39.2055 36.2399 39.2849 36.3299 39.375ZM77.5645 39.6134C77.5645 39.6982 77.5806 39.8147 77.5963 39.8783C77.6175 39.9578 77.6018 40.0002 77.5276 40.0214C77.3899 40.0637 76.9873 40.0796 76.95 40.0373C76.8813 39.9737 77.3899 39.4704 77.5221 39.4704C77.5488 39.4704 77.5645 39.5339 77.5645 39.6134ZM34.9789 39.6346C35.1591 39.73 35.2862 40.0902 35.2809 40.5035C35.2756 40.9856 35.2279 41.1339 35.0902 41.1551C34.8942 41.1869 34.7405 40.8955 34.714 40.4293C34.6928 40.069 34.767 39.5763 34.8412 39.5763C34.8571 39.5763 34.9153 39.6028 34.9789 39.6346ZM79.2866 40.424C79.4561 40.583 79.4243 40.7101 79.1539 40.9591C78.7038 41.3724 77.9672 41.3724 78.0681 40.9591C78.1261 40.7313 78.2745 40.5088 78.4707 40.3816C78.7038 40.2174 79.0904 40.2386 79.2866 40.424ZM38.3432 40.9856C38.5604 41.1498 38.5657 41.2452 38.3538 41.3512C38.2266 41.42 38.1789 41.4253 38.1154 41.3724C37.9988 41.277 37.8822 41.0333 37.8822 40.8796C37.8822 40.7525 37.8928 40.7472 38.0253 40.8002C38.1101 40.832 38.2531 40.9167 38.3432 40.9856ZM76.1396 40.9061C76.2349 41.0015 76.24 41.028 76.1714 41.1287C76.0175 41.3671 75.8374 41.4465 75.4135 41.473L75.0058 41.4995L75.0427 41.3459C75.0956 41.1392 75.2177 41.0121 75.472 40.8955C75.7581 40.7631 76.0018 40.7684 76.1396 40.9061ZM37.024 41.7167C37.22 41.8227 37.4955 42.1141 37.5644 42.2995C37.6438 42.522 37.5379 42.6174 37.2041 42.6174C36.6902 42.6174 36.1392 42.2677 36.2134 41.9922C36.3034 41.6902 36.7061 41.5525 37.024 41.7167ZM73.7766 41.8227C73.978 41.9075 74.0678 42.0452 74.0678 42.2677C74.0678 42.4902 73.8296 42.681 73.5011 42.7284C72.9925 42.7975 72.7009 42.5326 72.8124 42.1035C72.8442 41.9975 72.9184 41.9234 73.0773 41.8545C73.3422 41.7326 73.5329 41.722 73.7766 41.8227ZM77.1301 41.8863C77.2149 41.9445 77.2466 42.0187 77.2466 42.1512C77.2466 42.5059 76.8495 42.7551 76.2718 42.7551C76.0599 42.7551 76.023 42.739 76.0493 42.6704C76.0654 42.6225 76.0811 42.5432 76.0811 42.4902C76.0811 42.3419 76.3939 42.0134 76.6376 41.9022C76.897 41.7803 76.9767 41.7803 77.1301 41.8863ZM40.2399 42.0982C40.4253 42.183 40.5683 42.4318 40.5101 42.5695C40.4677 42.6916 39.8955 42.6755 39.6412 42.5483C39.4505 42.4529 39.3127 42.2571 39.3127 42.0929C39.3127 41.9816 40.0015 41.9869 40.2399 42.0982ZM71.8744 42.4953C71.9965 42.5962 71.9592 42.7073 71.7367 42.9192C71.493 43.1523 71.0691 43.3006 70.5075 43.3642C70.1634 43.396 70.1473 43.396 70.1473 43.285C70.1473 43.0357 70.4601 42.6598 70.778 42.5326C71.1433 42.3843 71.7155 42.3631 71.8744 42.4953ZM42.5551 42.8081C42.9366 42.9141 43.0374 43.29 42.7514 43.5549C42.6136 43.6876 42.5445 43.7088 42.3008 43.7088C41.4743 43.7088 41.2624 43.0942 41.9988 42.8344C42.2478 42.7445 42.3061 42.739 42.5551 42.8081ZM69.0665 43.1205C69.289 43.2214 69.5276 43.4702 69.4958 43.571C69.4852 43.6028 69.3581 43.6927 69.2148 43.7724C68.6164 44.1059 68.081 43.9843 68.081 43.5231C68.081 43.3167 68.1713 43.179 68.362 43.0993C68.5952 42.9989 68.8071 43.0039 69.0665 43.1205ZM39.3551 43.2582C39.5352 43.4121 39.6465 43.6452 39.62 43.8254C39.6041 43.9313 39.5723 43.947 39.3551 43.9631C39.0743 43.9788 38.8306 43.894 38.5869 43.6876C38.375 43.5075 38.3644 43.3803 38.5498 43.2371C38.7564 43.073 39.1485 43.0836 39.3551 43.2582ZM74.799 43.2426C74.8201 43.3642 74.4654 43.7457 74.2641 43.8092C74.1687 43.8359 74.0042 43.8783 73.8983 43.8995C73.7025 43.9313 73.697 43.9258 73.697 43.7775C73.697 43.624 73.8084 43.4172 73.9619 43.3006C74.1844 43.1205 74.7672 43.0781 74.799 43.2426ZM44.9659 43.4015C45.2041 43.5126 45.5114 43.8198 45.5114 43.947C45.5114 43.9843 45.5275 44.053 45.5432 44.1008C45.5699 44.175 45.522 44.1856 45.1884 44.1856C44.9498 44.1801 44.6849 44.1432 44.5154 44.0847C44.1975 43.9737 43.7101 43.6609 43.7101 43.5655C43.7101 43.4702 43.9538 43.3273 44.1763 43.285C44.4361 43.2371 44.6955 43.2794 44.9659 43.4015ZM47.4984 43.8304C47.5408 43.8995 47.5938 44.0636 47.6094 44.1962C47.6573 44.5353 47.5247 44.6624 47.1432 44.6569C46.8202 44.6569 46.4227 44.5192 46.3379 44.3869C46.2481 44.2386 46.4121 44.0212 46.73 43.8516C47.0902 43.6664 47.3818 43.6609 47.4984 43.8304ZM72.1393 43.9419C72.2296 44.0161 72.2347 44.0318 72.1605 44.1644C72.0177 44.4238 71.827 44.5192 71.4718 44.5192C71.0585 44.5192 70.9263 44.4187 71.0479 44.1962C71.0958 44.1165 71.2124 44.0106 71.3128 43.9631C71.5409 43.8465 71.9965 43.841 72.1393 43.9419ZM41.6597 44.3128C41.8929 44.4081 42.0677 44.6145 42.0836 44.8002C42.0942 44.9379 42.073 44.9536 41.9299 44.9697C41.771 44.9854 41.3737 44.8371 41.22 44.7048C41.1035 44.6095 40.9021 44.339 40.9021 44.2861C40.9021 44.2119 41.469 44.2331 41.6597 44.3128ZM68.0548 44.4238C68.2082 44.5035 68.3832 44.7472 68.3248 44.8053C68.3142 44.8214 68.0599 44.7947 67.7687 44.7523C67.2283 44.673 66.9685 44.5671 66.9685 44.4238C66.9685 44.3073 67.8111 44.3128 68.0548 44.4238ZM69.8294 44.5353C70.0786 44.6357 70.0943 44.7099 69.8985 44.9273C69.7925 45.0439 69.6866 45.102 69.5327 45.1232L69.3102 45.1499L69.1991 44.8477C69.1356 44.6836 69.0983 44.5247 69.1144 44.498C69.1674 44.4187 69.5963 44.445 69.8294 44.5353ZM44.6319 44.8532C44.701 44.8794 44.7167 44.943 44.7061 45.1605C44.6904 45.4198 44.6849 45.4304 44.5209 45.4465C43.9962 45.4995 43.371 45.0227 43.6995 44.8214C43.7898 44.7629 44.4573 44.7841 44.6319 44.8532ZM48.8916 45.0121C48.8653 45.1655 48.6216 45.2927 48.2134 45.3724C47.9964 45.4198 47.7633 45.4677 47.7048 45.4834C47.6255 45.5101 47.5832 45.4889 47.5565 45.4254C47.4454 45.1287 47.8163 44.9536 48.6004 44.9324C48.8598 44.9273 48.9077 44.943 48.8916 45.0121ZM46.677 45.3512C46.677 45.5682 46.5553 45.7962 46.3964 45.8649C46.2163 45.9496 45.8611 45.7538 45.8399 45.5525C45.8187 45.3936 45.9408 45.3033 46.2531 45.2397C46.6346 45.1655 46.677 45.1761 46.677 45.3512Z" fill="url(#paint2_angular_104_11736)"/>
</g>
<defs>
<radialGradient id="paint0_angular_104_11736" cx="0" cy="0" r="1" gradientUnits="userSpaceOnUse" gradientTransform="translate(56.9565 62.7137) rotate(0.291763) scale(6.88137 4.92057)">
<stop offset="0.0920002" stop-color="#4B65F0"/>
<stop offset="0.240484" stop-color="#65B9D6"/>
<stop offset="0.372499" stop-color="#A286C1"/>
<stop offset="0.543006" stop-color="#23699D"/>
<stop offset="0.963234" stop-color="#A18ED8"/>
</radialGradient>
<radialGradient id="paint1_angular_104_11736" cx="0" cy="0" r="1" gradientUnits="userSpaceOnUse" gradientTransform="translate(56.3711 50.6642) scale(13.2369 0.105223)">
<stop offset="0.0920002" stop-color="#4B65F0"/>
<stop offset="0.240484" stop-color="#65B9D6"/>
<stop offset="0.372499" stop-color="#A286C1"/>
<stop offset="0.543006" stop-color="#23699D"/>
<stop offset="0.963234" stop-color="#A18ED8"/>
</radialGradient>
<radialGradient id="paint2_angular_104_11736" cx="0" cy="0" r="1" gradientUnits="userSpaceOnUse" gradientTransform="translate(56.5292 23.3116) rotate(0.593324) scale(7.9598 11.5739)">
<stop offset="0.0920002" stop-color="#4B65F0"/>
<stop offset="0.240484" stop-color="#65B9D6"/>
<stop offset="0.372499" stop-color="#A286C1"/>
<stop offset="0.543006" stop-color="#23699D"/>
<stop offset="0.963234" stop-color="#A18ED8"/>
</radialGradient>
</defs>
</svg>
