<svg width="69" height="47" viewBox="0 0 69 47" fill="none" xmlns="http://www.w3.org/2000/svg">
<mask id="mask0_284_9133" style="mask-type:luminance" maskUnits="userSpaceOnUse" x="0" y="0" width="69" height="47">
<path d="M68.3637 0H0.548828V46.6227H68.3637V0Z" fill="white"/>
</mask>
<g mask="url(#mask0_284_9133)">
<path d="M65.9792 0.0582784C60.9304 0.354968 56.1304 2.1563 51.1977 5.61063C48.7076 7.35368 45.7568 9.89144 43.7063 12.053C40.8084 15.11 38.2124 18.3577 36.9036 20.5617C36.4535 21.314 36.0402 21.7908 35.9237 21.6743C35.844 21.5948 35.9711 21.3405 36.2415 21.0332C36.7819 20.4239 36.7607 20.0478 36.1618 19.5921L35.8758 19.3802L35.9131 19.1312C36.0508 18.1352 37.619 14.6226 38.88 12.4769C39.4784 11.4544 40.4533 9.97091 40.9674 9.30336C41.476 8.6411 42.1753 7.92587 42.5886 7.64507C42.7632 7.52852 43.182 7.3007 43.521 7.13646C44.2098 6.80798 44.4374 6.60136 44.4959 6.25699C44.5433 5.97089 44.4904 5.82785 44.342 5.82785C44.1886 5.82785 43.4469 6.27288 42.8429 6.71792C42.2495 7.16295 41.2374 8.17488 40.6334 8.9272C38.991 10.9775 37.3062 14.0981 35.7011 18.0504C35.4413 18.6915 35.2561 19.0782 35.2031 19.0941C35.1552 19.11 34.9912 19.1259 34.8323 19.1365L34.5407 19.1524L34.1011 18.1193C32.9512 15.412 31.5369 12.8954 30.1221 11.0199C28.464 8.83183 26.5936 7.12587 25.2797 6.62255C24.6015 6.35765 24.4108 6.46361 24.6545 6.96693C24.8029 7.27421 25.1898 7.52852 25.815 7.73514C26.0799 7.81991 26.3711 7.93117 26.4665 7.97885C27.2985 8.40269 28.681 9.78018 29.836 11.3431C31.4415 13.5206 33.0627 16.5511 33.8786 18.9246L34.0588 19.4332L33.7303 19.7776C33.5501 19.963 33.3857 20.1802 33.3645 20.2597C33.3115 20.4716 33.4336 20.7047 33.8256 21.118C34.191 21.5047 34.2813 21.6637 34.2071 21.8014C34.1698 21.865 34.1168 21.8226 33.9528 21.6054C29.566 15.8146 24.3316 10.9034 18.5618 7.17355C15.2823 5.05433 12.1777 3.64505 9.10479 2.88743C6.94849 2.35763 5.26902 2.14041 2.80013 2.08213L1.41735 2.05034L1.18953 2.30994C0.770987 2.78677 0.612045 3.2477 0.564363 4.10598C0.43721 6.58017 2.12198 10.5537 4.41074 13.2027C5.92068 14.9405 5.89948 14.9087 5.89948 15.6769C5.89948 15.9683 5.92597 16.3338 5.95776 16.4875C5.98955 16.6411 6.25975 17.2663 6.56174 17.8809C7.1922 19.163 7.31936 19.5339 7.51009 20.6517C7.80148 22.31 7.98161 22.7922 8.44254 23.1418L8.68095 23.3273L8.71274 24.0478C8.73923 24.5935 8.78162 24.8849 8.88758 25.2451C9.24254 26.4637 10.0796 27.6663 10.9273 28.1644C11.0174 28.2173 11.0916 28.2809 11.0916 28.3021C11.0916 28.3233 11.0121 28.4346 10.9114 28.5405C10.5088 28.9909 10.371 29.4518 10.2969 30.6438C10.1379 33.1021 10.1273 33.2081 9.87301 33.7856L9.75645 34.0611L9.8889 34.3419C9.97367 34.5167 10.0478 34.8081 10.0849 35.0995C10.2068 36.0743 10.2863 36.3392 10.5406 36.6094L10.6677 36.7472L10.5565 37.028C10.4823 37.2346 10.4505 37.4359 10.4505 37.775C10.4505 38.3207 10.5141 38.6227 10.7472 39.1313C10.9485 39.571 11.224 39.8942 11.6002 40.1379C11.8598 40.3022 11.8757 40.3286 11.9075 40.5935C11.9922 41.2028 12.4426 42.0028 13.0359 42.5801C13.3538 42.8874 13.4969 42.9777 14.2757 43.3324C14.4081 43.396 14.7737 43.6821 15.0863 43.9737C15.5472 44.4026 15.7008 44.5141 15.9234 44.5828C16.0717 44.6251 16.2624 44.6624 16.3419 44.6624C16.5909 44.6624 16.9353 44.8159 17.3167 45.1075C17.9472 45.5894 17.9154 45.5737 18.5565 45.5843L19.1393 45.5894L20.0558 46.0505C21.2638 46.6596 21.566 46.7232 22.228 46.5168C22.6256 46.3896 23.0545 46.3841 23.7806 46.49C24.0717 46.5324 24.538 46.5642 24.8135 46.5642C25.3912 46.5697 25.5764 46.5062 26.1223 46.1141C26.5406 45.8119 26.8055 45.6953 27.2823 45.5949C27.7859 45.494 28.0614 45.3457 28.4161 44.9854C28.9408 44.4611 29.8996 42.8768 30.9274 40.8479C32.0506 38.628 32.9144 36.4452 34.1168 32.7948C34.2546 32.371 34.3766 32.0637 34.3817 32.1061C34.3923 32.1485 34.4241 32.816 34.4559 33.5895C34.5886 36.7896 34.8429 38.1194 35.4892 38.9088L35.6164 39.0677L35.7223 38.9353C36.019 38.575 36.3051 37.7591 36.4111 36.9803C36.4374 36.7631 36.4797 35.5763 36.5009 34.3419C36.517 33.1127 36.5488 32.1061 36.57 32.1061C36.5857 32.1061 36.6972 32.3763 36.8082 32.7048C37.4283 34.4955 38.1064 36.0531 39.3356 38.5167C41.2268 42.3154 42.3979 44.0212 43.6058 44.7472C43.8864 44.9112 44.0241 44.9536 44.7608 45.0863C44.9884 45.1232 45.2164 45.224 45.5555 45.4304C45.8204 45.5843 46.1065 45.7432 46.1912 45.7801C46.44 45.8755 47.0228 45.8492 47.8811 45.7009C48.533 45.5843 48.8403 45.5631 49.6562 45.5631C50.7687 45.5631 50.7264 45.5682 51.5423 45.0914C52.3476 44.6145 52.7023 44.4556 53.1156 44.3975C53.3275 44.3657 53.5767 44.3284 53.6721 44.3128C53.7674 44.2967 54.048 44.1377 54.3078 43.9525C54.9012 43.5287 55.0229 43.4651 55.4785 43.3642C55.9714 43.2532 56.1248 43.1417 56.6017 42.5538C57.0522 42.0028 57.2056 41.881 57.529 41.8333C57.8787 41.7803 58.1805 41.5472 58.6255 41.0015C59.1447 40.3657 59.2774 40.069 59.3516 39.3962C59.4202 38.7922 59.452 38.7233 59.6957 38.575C60.0721 38.3419 60.4112 37.8174 60.607 37.1604C60.7502 36.6889 60.7396 35.7882 60.5807 35.3432L60.4641 35.0041L60.6388 34.824L60.8138 34.6439L60.8456 33.7326C60.8774 32.9803 60.8986 32.7683 60.999 32.5087C61.1423 32.1114 61.1262 32.0107 60.7659 31.1842C60.4112 30.3789 60.3845 30.2412 60.284 28.9803C60.1781 27.5551 60.0403 27.1101 59.6165 26.7657C59.5317 26.6968 59.4626 26.6226 59.4626 26.6014C59.4626 26.5855 59.5423 26.522 59.6376 26.4637C59.9288 26.2942 60.4747 25.7379 60.7129 25.367C61.2215 24.5935 61.4653 23.6451 61.5132 22.3047L61.5449 21.4835L61.8043 21.2504C62.2706 20.8372 62.3714 20.4981 62.5092 18.914C62.6363 17.4252 62.7423 17.0226 63.3196 15.7617C63.8231 14.6544 63.9341 14.1881 63.8655 13.4623L63.8282 13.0756L64.194 12.5087C65.6401 10.2941 66.4827 8.87952 67.0176 7.75633C67.9606 5.78017 68.4163 3.89935 68.3421 2.27816C68.2997 1.26623 68.1514 0.725832 67.786 0.222518L67.6216 0L67.1553 0.00529805C66.901 0.0105961 66.3712 0.0370863 65.9792 0.0582784ZM63.6375 0.688746C63.9185 0.815899 63.9608 0.92186 63.807 1.0861C63.6006 1.30332 63.1555 1.44107 62.5516 1.47286C62.0163 1.49935 62.0057 1.49405 62.0057 1.38279C62.0057 0.810601 62.986 0.392055 63.6375 0.688746ZM67.4364 0.953648C67.5262 0.990734 67.5686 1.03842 67.558 1.10199C67.5423 1.17087 67.4626 1.20266 67.1715 1.22915C66.9646 1.25564 66.7421 1.25564 66.6785 1.24504C66.5675 1.21855 66.562 1.20266 66.6255 1.12848C66.7845 0.932456 67.1659 0.852985 67.4364 0.953648ZM65.3328 1.66358C65.5397 1.76955 65.7143 2.03445 65.7143 2.24107C65.7143 2.47418 65.4231 2.73379 65.1158 2.78147C64.5381 2.87154 63.913 2.52716 63.9871 2.1616C64.1037 1.58411 64.7344 1.351 65.3328 1.66358ZM6.42929 2.65432C6.67829 2.78677 6.922 3.09405 6.89551 3.2265C6.85843 3.41194 5.21074 3.26359 4.91405 3.05167C4.7657 2.94041 4.88756 2.72319 5.17365 2.59074C5.49153 2.4424 6.10611 2.47418 6.42929 2.65432ZM62.4138 2.54836C62.9487 2.61723 63.4467 2.84505 63.5951 3.08346C63.913 3.60796 63.5103 4.12717 62.652 4.29672C61.831 4.45566 60.3158 4.19604 59.7169 3.79869C59.3516 3.54968 59.5105 3.15233 60.0933 2.86624C60.7396 2.54836 61.5661 2.4318 62.4138 2.54836ZM67.4308 2.86624C67.7063 3.08346 67.5262 3.30068 67.0176 3.36955C66.684 3.41723 66.509 3.36425 66.509 3.21591C66.509 2.85034 67.1185 2.61723 67.4308 2.86624ZM1.97364 3.14174C2.33391 3.26889 2.20146 3.39074 1.70344 3.39074C1.57099 3.39074 1.42265 3.37485 1.37496 3.35896C1.29019 3.32717 1.25841 3.17352 1.32728 3.10995C1.38026 3.05167 1.77761 3.07286 1.97364 3.14174ZM58.9752 3.26889C59.0655 3.33776 59.1235 3.43313 59.1341 3.53909C59.1608 3.7775 58.9964 3.86757 58.5513 3.86757C58.239 3.86757 58.186 3.85167 58.1118 3.74571C57.9953 3.56028 57.958 3.31657 58.0427 3.2477C58.2284 3.09405 58.7582 3.10995 58.9752 3.26889ZM56.5487 3.33247C56.5487 3.38545 56.5012 3.49141 56.4427 3.56558C56.3105 3.72982 55.754 4.01591 55.4679 4.06359L55.2615 4.09538L55.3619 3.92584C55.6162 3.48611 56.5487 3.01988 56.5487 3.33247ZM4.37895 3.54439C4.7763 3.63975 4.98292 4.00002 4.83988 4.3444C4.74981 4.56162 4.52729 4.70996 4.18292 4.77884C3.93921 4.83182 3.86504 4.82652 3.65312 4.74705C3.33524 4.62519 3.22927 4.46625 3.26636 4.17485C3.30345 3.91525 3.51007 3.68214 3.81206 3.57617C4.05577 3.48611 4.11405 3.48611 4.37895 3.54439ZM57.3383 3.95763C57.4599 3.98942 57.4599 4.00532 57.4388 4.41857C57.4019 5.06493 57.1209 5.50997 56.5754 5.77487C56.3423 5.88613 55.6959 5.99209 55.4785 5.9497C55.3568 5.92851 55.3513 5.91262 55.3886 5.6795C55.5688 4.55102 56.4906 3.72982 57.3383 3.95763ZM65.6986 4.03181C65.9368 4.12187 66.0851 4.29142 66.0851 4.47685C66.0851 4.8742 65.6138 5.24506 65.1052 5.24506C64.7818 5.24506 64.3156 5.11791 64.1143 4.96957C63.7858 4.73645 64.0244 4.25433 64.5593 4.06359C64.8297 3.96823 65.4867 3.94704 65.6986 4.03181ZM8.78691 4.45566C9.33261 4.604 9.50744 4.79473 9.37499 5.10202C9.22135 5.47818 8.58029 5.88613 7.85976 6.07156C7.60545 6.13513 7.35644 6.15103 6.87432 6.13513C6.28094 6.11394 6.20677 6.10335 5.88359 5.93911C5.50743 5.75897 5.29551 5.53646 5.24253 5.26626C5.15246 4.84241 5.81471 4.52453 7.06505 4.39208C7.54717 4.3444 8.49552 4.37619 8.78691 4.45566ZM54.6414 4.37089C54.6414 4.38678 54.5833 4.51394 54.5142 4.65168C54.2549 5.16559 53.6191 5.59473 53.0257 5.65301L52.729 5.6848L52.7871 5.53116C52.9409 5.13381 53.2164 4.84771 53.6772 4.6146C54.0056 4.44506 54.6414 4.28612 54.6414 4.37089ZM12.983 4.79473C13.3644 4.93248 13.6346 5.16559 13.6346 5.35632C13.6346 5.45169 13.6134 5.46228 13.4651 5.4305C12.8982 5.30864 12.469 5.01725 12.469 4.76294C12.469 4.63049 12.5485 4.63579 12.983 4.79473ZM10.8796 4.79473C11.2558 4.99076 10.9167 5.45698 10.3975 5.45698C10.0902 5.45698 9.87301 5.30334 9.87301 5.08612C9.87301 4.85301 10.0849 4.71526 10.4399 4.71526C10.5988 4.71526 10.7949 4.75235 10.8796 4.79473ZM62.0586 4.78943C62.6626 4.90069 63.0602 5.07023 63.3196 5.32983C63.4628 5.46758 63.5421 5.59473 63.5315 5.65301C63.5103 5.77487 63.0178 6.07156 62.6414 6.18811C62.1752 6.33116 61.0151 6.30467 60.3582 6.12984C59.5898 5.92851 59.0176 5.61063 58.8535 5.30334L58.7794 5.1497L59.0549 5.04374C59.4414 4.8901 59.6588 4.83182 59.9924 4.77354C60.443 4.69937 61.6136 4.70996 62.0586 4.78943ZM2.3445 5.155C2.55113 5.57354 2.38689 5.63182 1.62397 5.4252C1.47033 5.38281 1.34317 5.32983 1.34317 5.30864C1.34317 5.23977 1.62397 4.99076 1.76702 4.93248C1.84119 4.90069 1.97364 4.8848 2.05841 4.8901C2.19086 4.90069 2.23854 4.94308 2.3445 5.155ZM12.6651 5.53116C13.0253 5.7007 13.3962 6.07686 13.5657 6.44242C13.7088 6.7603 13.7883 7.32719 13.6982 7.38547C13.6134 7.43845 12.9088 7.32189 12.5273 7.19474C12.1247 7.06759 11.7644 6.7603 11.669 6.47951C11.6373 6.37884 11.6214 6.15103 11.632 5.97089C11.6531 5.70599 11.6796 5.63182 11.8015 5.52586C11.9922 5.36162 12.3048 5.36692 12.6651 5.53116ZM66.4984 5.70069C66.6734 5.82255 66.6573 6.14043 66.4721 6.36295C66.2123 6.67024 65.8202 6.755 65.5185 6.56957C65.296 6.43712 65.2481 6.25169 65.3807 6.02917C65.5871 5.6795 66.2072 5.49407 66.4984 5.70069ZM14.975 5.74838C15.685 5.93381 16.2889 6.36295 16.4161 6.7762L16.4532 6.90335L16.1035 6.86626C15.6373 6.81858 15.2399 6.66494 14.9591 6.42653C14.7525 6.24639 14.4293 5.81195 14.4293 5.71129C14.4293 5.64771 14.6412 5.65831 14.975 5.74838ZM58.3555 5.92851C58.4136 5.98679 58.3025 6.27818 58.1381 6.47421C57.7566 6.92984 56.8348 7.16825 56.1778 6.97752C56.0189 6.92984 55.8387 6.86096 55.7858 6.81858C55.6904 6.74971 55.6959 6.73381 55.8866 6.52189C56.199 6.17752 56.6758 5.9656 57.301 5.88613C57.6456 5.84374 58.297 5.87023 58.3555 5.92851ZM4.60147 6.08745C4.84517 6.19341 5.15776 6.52719 5.15776 6.68083C5.15776 6.74441 5.06769 6.83977 4.90875 6.94573C4.16173 7.41726 3.23457 7.34838 3.04384 6.80798C2.98027 6.62255 2.98556 6.56957 3.05444 6.40004C3.22927 5.98149 3.99219 5.82785 4.60147 6.08745ZM9.74056 6.57487C9.97367 6.60666 10.1856 6.64904 10.2068 6.67024C10.2916 6.755 10.1697 7.01991 9.94188 7.24242C9.47566 7.69276 8.62797 7.97885 7.59485 8.03713C7.04916 8.06362 6.11141 8.00004 5.76174 7.91527C5.6028 7.87289 5.5922 7.69276 5.73525 7.39077C5.96836 6.88216 6.47167 6.60666 7.35644 6.51129C7.80148 6.46891 9.15248 6.5007 9.74056 6.57487ZM52.5913 6.54838C52.5434 6.67553 51.4999 7.59209 51.0493 7.90468C50.8268 8.05302 50.4085 8.30203 50.1118 8.45037C49.582 8.72057 48.5169 9.10203 48.4588 9.04375C48.3952 8.98018 48.7076 8.54574 49.0628 8.20667C49.7884 7.50203 50.8747 6.90865 51.9924 6.59606C52.5434 6.44242 52.6337 6.43712 52.5913 6.54838ZM64.9887 7.19474L65.243 7.306L65.2269 7.71925L65.2112 8.13249L64.9196 8.28614C64.7077 8.40269 64.5542 8.44508 64.3529 8.44508C64.1092 8.45037 64.0507 8.42918 63.9079 8.28084C63.6006 7.97355 63.6481 7.36428 64.0083 7.13646C64.1991 7.01461 64.6441 7.0411 64.9887 7.19474ZM60.7977 7.15236C61.3542 7.23183 61.8255 7.41196 62.0586 7.62388L62.26 7.81461L62.1858 8.15898C62.0586 8.75766 61.656 9.1815 61.0202 9.37753C59.9767 9.70071 58.7951 9.22389 58.5619 8.3921C58.3182 7.52322 59.3622 6.94573 60.7977 7.15236ZM12.3207 7.43845C12.7551 7.53381 12.9671 7.63978 13.2267 7.88349C13.4598 8.1113 13.4704 8.17488 13.2796 8.26494C12.5379 8.60402 11.722 8.55634 11.1657 8.13249C10.8584 7.89938 10.7101 7.45434 10.922 7.40136C11.1286 7.34838 11.9869 7.36958 12.3207 7.43845ZM56.1248 7.54971C56.2575 7.59209 56.4215 7.68216 56.4957 7.74044L56.6284 7.8411L56.4165 8.03183C55.9659 8.43448 55.2454 8.68879 54.5621 8.68879C54.0959 8.68879 53.831 8.63051 53.6827 8.49806C53.5606 8.3921 53.6297 8.16958 53.8573 7.94176C54.3235 7.48083 55.4043 7.29011 56.1248 7.54971ZM17.5816 7.81991C18.2333 7.98415 18.8956 8.27024 19.4625 8.63051C19.9446 8.9325 20.8929 9.7219 20.8929 9.81727C20.8929 9.90204 20.2836 9.82257 19.7538 9.66892C19.1446 9.49409 18.2227 9.03846 17.7035 8.6464C17.1896 8.25965 16.6015 7.74574 16.6015 7.67686C16.6015 7.60799 16.9671 7.66097 17.5816 7.81991ZM3.55246 7.81461C3.78557 7.95236 3.93921 8.17488 3.93921 8.36561C3.93921 8.63051 3.44649 8.81594 3.07033 8.68879C2.65179 8.55104 2.47695 8.07951 2.74715 7.81461C2.92199 7.63448 3.23987 7.63448 3.55246 7.81461ZM10.2704 8.95369C10.6094 9.11793 10.7737 9.37753 10.7737 9.74839C10.7684 10.5696 10.0372 11.1259 8.94585 11.1259C7.94452 11.1259 7.18161 10.6438 7.08624 9.95502C7.03326 9.57886 7.16042 9.34574 7.49949 9.1974C8.35777 8.81594 9.74056 8.69938 10.2704 8.95369ZM14.9856 8.97488C15.3459 9.13912 15.6108 9.36693 15.7061 9.60535C15.7909 9.81197 15.7114 9.87555 15.2399 9.96031C14.8373 10.0398 14.281 10.008 13.7936 9.88084C13.4121 9.78018 12.628 9.44111 12.628 9.37223C12.628 9.29806 12.9088 9.06495 13.1048 8.96958C13.4121 8.82654 13.5816 8.80005 14.1379 8.81594C14.583 8.82654 14.7207 8.85303 14.9856 8.97488ZM62.7317 8.85832C62.8271 8.98548 62.8483 9.17621 62.7898 9.48879L62.7368 9.80137H62.4295C62.1328 9.80137 62.1222 9.79607 62.0642 9.63713C61.9739 9.38283 61.9951 9.1974 62.1171 9.03846C62.2918 8.81594 62.6257 8.72057 62.7317 8.85832ZM5.3167 9.12323C5.5869 9.26097 5.79352 9.53647 5.79352 9.75369C5.79352 9.93382 5.56571 10.2146 5.33259 10.31C5.11008 10.4053 4.61736 10.4053 4.40014 10.31C3.99219 10.1351 3.83855 9.74839 4.05577 9.43051C4.33127 9.02256 4.86107 8.89541 5.3167 9.12323ZM52.9672 9.48349C53.0414 9.50998 53.105 9.55237 53.105 9.57886C53.105 9.60535 52.9621 9.80137 52.7871 10.0186C52.2573 10.665 51.6427 12.0107 51.4096 13.0332C51.3727 13.1921 51.3142 13.3775 51.2774 13.4358C51.235 13.4994 50.9701 13.6954 50.6785 13.8703C49.0043 14.8981 47.6323 16.4027 47.2297 17.6531C47.1924 17.7643 47.0758 17.9233 46.9698 18.0133C46.8639 18.1034 45.725 18.7021 44.4429 19.3484C42.0427 20.5617 41.8837 20.657 39.8069 22.0981C38.721 22.8451 37.8042 23.2478 36.9354 23.3379L36.5806 23.3749L36.6069 23.0941C36.6866 22.3365 37.0574 21.4147 37.6084 20.6094C38.1221 19.8517 38.4137 19.518 40.1778 17.6372C40.6016 17.1868 41.2429 16.4769 41.6082 16.0584C41.974 15.6345 42.6043 14.9087 43.0069 14.4425C43.8546 13.4676 45.3698 11.9312 45.9526 11.4597C47.4522 10.2517 48.8559 9.65833 50.6043 9.48879C51.2613 9.42521 52.8083 9.41992 52.9672 9.48349ZM56.3529 9.56296C57.2217 9.74839 57.7621 10.3047 57.958 11.2265C58.2284 12.5087 57.7516 13.6583 56.75 14.1352C56.1566 14.4213 55.2827 14.4848 54.4562 14.3047C53.8416 14.167 51.8178 13.616 51.7699 13.5683C51.7169 13.5206 52.0771 11.7669 52.2255 11.3802C52.395 10.9246 52.5595 10.6755 52.8613 10.3948C53.5661 9.7431 55.2827 9.33515 56.3529 9.56296ZM64.6229 9.91793C64.6496 10.0186 64.6547 10.1722 64.6335 10.2517C64.5436 10.6014 63.9871 10.8928 63.8231 10.6755C63.7277 10.5378 63.7383 10.1934 63.8443 10.008C63.9341 9.85965 64.088 9.77488 64.3368 9.7325C64.5436 9.70071 64.5699 9.71661 64.6229 9.91793ZM19.277 10.5431C21.7461 10.8186 23.1605 11.6769 26.5088 14.914C27.134 15.518 28.2784 16.604 29.0519 17.3246C30.7791 18.9352 32.2468 20.4239 32.7236 21.0597C33.2852 21.8014 33.5713 22.4531 33.693 23.2531L33.7248 23.4862L33.2534 23.4491C32.766 23.412 32.1091 23.2531 31.6055 23.0518C31.1923 22.8875 30.885 22.7233 29.6347 22.0133C27.3514 20.7153 25.8837 20.0054 24.5486 19.5498C23.007 19.0252 22.8375 18.9034 22.3925 17.9815C21.8097 16.7683 21.3011 16.2915 19.2558 15.0729L18.281 14.4901L18.1644 14.0663C17.8942 13.0703 17.3114 12.0054 16.5273 11.0517C16.2836 10.755 16.2412 10.6755 16.3048 10.6385C16.5167 10.5166 18.4929 10.4583 19.277 10.5431ZM61.0469 10.6544C61.5288 10.9246 61.7251 11.5603 61.4865 12.0954C61.1423 12.8742 59.7542 13.0067 59.3833 12.2914C59.0867 11.7193 59.3778 10.861 59.9606 10.5855C60.2522 10.453 60.7447 10.4795 61.0469 10.6544ZM7.25048 10.8186C7.35114 11.0676 7.39883 11.3643 7.35644 11.4914C7.32995 11.5868 7.28227 11.6027 7.01207 11.6027H6.69949L6.59352 11.3113C6.3922 10.7815 6.45578 10.6544 6.922 10.6491C7.16042 10.6491 7.18161 10.6597 7.25048 10.8186ZM15.2134 10.9457C16.2783 11.1577 16.9777 11.714 17.3115 12.6093C17.4704 13.0385 17.9472 14.6703 17.9207 14.6968C17.8942 14.7232 16.6651 15.1524 15.8598 15.4173C15.526 15.5285 15.0439 15.6504 14.7896 15.6822C13.4121 15.8676 12.1618 15.2795 11.6584 14.2146C11.4995 13.8703 11.4889 13.8226 11.4942 13.2451C11.4942 12.7418 11.5154 12.5828 11.6161 12.3285C11.9128 11.5815 12.5167 11.1312 13.5022 10.9352C13.9578 10.8451 14.7366 10.8451 15.2134 10.9457ZM62.8428 11.1047C62.9805 11.2001 63.1182 11.4491 63.1182 11.6027C63.1182 11.7616 62.8801 11.8411 62.6152 11.7616C62.382 11.6928 62.0057 11.4597 62.0057 11.3802C62.0057 11.3537 62.0747 11.2583 62.1595 11.1736C62.3397 10.9987 62.6414 10.9616 62.8428 11.1047ZM5.34319 11.7405C5.63988 11.8782 5.77763 12.302 5.6028 12.5458C5.44915 12.7683 5.02531 12.6464 4.87167 12.3232C4.75511 12.0795 4.7657 11.8888 4.89286 11.7616C5.02001 11.6345 5.11008 11.6292 5.34319 11.7405ZM9.58691 12.2862C10.2757 12.5987 10.477 13.6424 9.94718 14.1617C9.73526 14.3789 9.53393 14.4689 9.21076 14.5007C8.11936 14.612 7.50479 13.4411 8.22532 12.604C8.5644 12.2067 9.12069 12.0742 9.58691 12.2862ZM7.29817 12.9325C7.45711 13.0544 7.4677 13.1338 7.36174 13.3458C7.26638 13.5259 7.07565 13.616 6.78426 13.616C6.4028 13.616 6.31273 13.3881 6.57233 13.0862C6.80545 12.8054 7.06505 12.7524 7.29817 12.9325ZM62.5037 14.0186C62.5516 14.1458 62.541 14.6756 62.488 14.6756C62.3447 14.6756 62.1171 14.5431 62.0642 14.4319C61.9845 14.257 61.99 14.0027 62.0747 13.9709C62.2231 13.9073 62.4719 13.9338 62.5037 14.0186ZM60.6812 14.0663C60.9249 14.1934 60.9304 14.3259 60.7023 14.6597L60.501 14.9511L60.1781 14.9299C59.6165 14.8822 59.3143 14.6332 59.452 14.3312C59.5847 14.0398 60.3264 13.8809 60.6812 14.0663ZM54.0056 14.4636C55.3301 14.5855 56.4215 14.8451 56.7873 15.1206C57.7354 15.8464 57.7248 17.8173 56.7661 18.7498C56.1566 19.3431 55.5052 19.359 52.1513 18.8875C49.4705 18.506 48.8665 18.3577 48.2469 17.9445C47.9765 17.7696 47.8599 17.563 47.8599 17.2716C47.8599 16.8213 48.3211 16.1431 49.084 15.465C49.8626 14.7656 50.2546 14.559 50.9434 14.4689C51.4363 14.4054 53.3012 14.4001 54.0056 14.4636ZM19.1711 15.7034C19.6797 15.8464 20.0876 16.0636 20.6123 16.4663C21.6084 17.2398 22.0055 17.7325 22.0055 18.1935C22.0055 18.9193 21.2375 19.2849 18.5353 19.8358C17.8942 19.9683 16.93 20.1749 16.3896 20.2915C15.579 20.4716 15.277 20.514 14.6412 20.5405C13.9366 20.567 13.8465 20.5564 13.5604 20.4504C13.1684 20.3021 12.8982 20.0584 12.6863 19.661C12.3525 19.0305 12.1935 17.9974 12.3525 17.4464C12.522 16.8742 13.0783 16.3762 13.8359 16.1378C14.2651 16.0054 15.4995 15.7776 16.4691 15.6557C17.2532 15.5603 18.7419 15.5868 19.1711 15.7034ZM7.65313 15.7934C7.79088 15.9312 7.7485 16.1855 7.56307 16.355C7.39883 16.5034 7.24518 16.5087 7.17101 16.3762C7.04916 16.1431 7.13922 15.8199 7.34585 15.7352C7.51538 15.6663 7.53128 15.6716 7.65313 15.7934ZM10.175 15.7617C10.3498 15.8358 10.3604 15.8517 10.3286 16.016C10.3074 16.106 10.2121 16.265 10.1114 16.3656C9.96308 16.5193 9.8889 16.5511 9.63989 16.5723C9.14718 16.6146 8.8134 16.3868 8.8134 16.0213C8.8134 15.9206 8.8187 15.8411 8.8293 15.8411C8.83459 15.8411 8.93526 15.804 9.05181 15.7617C9.33261 15.661 9.93129 15.661 10.175 15.7617ZM59.9606 16.3391C60.2416 16.4557 60.3794 16.6729 60.3527 16.959C60.3103 17.3829 59.9873 17.6796 59.4363 17.8014C58.9595 17.9074 58.3555 17.7272 58.3076 17.4623C58.2284 17.0756 58.5407 16.5564 58.954 16.3656C59.2138 16.2491 59.7118 16.2332 59.9606 16.3391ZM61.7675 17.0491C61.7251 17.2822 61.3224 17.6954 61.1317 17.6954C60.8613 17.6954 60.999 17.2239 61.4072 16.7895L61.6615 16.5193L61.7302 16.6941C61.7726 16.7948 61.7887 16.9378 61.7675 17.0491ZM11.028 18.0239C11.3512 18.1776 11.5419 18.4478 11.5419 18.7603C11.5419 19.1736 11.2399 19.3908 10.6571 19.3908C10.0478 19.3908 9.55513 19.0411 9.55513 18.6067C9.55513 17.9868 10.3074 17.6901 11.028 18.0239ZM8.34188 18.4319C8.74453 18.6915 8.91936 18.9511 8.91936 19.2902C8.91936 19.4597 8.90877 19.4597 8.56969 19.3378C8.39486 19.269 8.18823 18.9829 8.09817 18.6915C7.96042 18.2199 7.98161 18.1988 8.34188 18.4319ZM48.3367 18.8345C48.6122 18.8822 49.2692 18.9988 49.7939 19.1047C50.6785 19.2796 50.8798 19.2955 52.4959 19.3643C54.6787 19.4597 55.097 19.5233 55.7701 19.8782C56.5805 20.3127 57.0043 21.2769 56.8191 22.2624C56.6919 22.9193 56.1566 23.7723 55.6268 24.1484C55.2666 24.4081 54.9966 24.4875 54.4825 24.4875C54.0005 24.4928 53.6242 24.4134 52.4162 24.0531C51.5156 23.7882 50.6204 23.6028 49.7409 23.4968C48.374 23.3379 47.8493 23.3908 44.893 23.9736C41.8151 24.5776 41.5976 24.6094 40.0718 24.6094C38.9011 24.6094 38.721 24.5988 38.2175 24.4875C37.9102 24.4186 37.4758 24.2862 37.2482 24.2014C36.9197 24.069 36.8506 24.0266 36.8985 23.963C36.9939 23.8518 37.5499 23.6028 38.3658 23.3114C39.7382 22.8186 40.0082 22.665 41.7833 21.3935C44.231 19.6398 45.2427 19.0676 46.3235 18.8398C46.7846 18.7392 47.7222 18.7392 48.3367 18.8345ZM58.6416 18.9511C59.2083 19.2425 59.2774 19.6981 58.79 19.9047C58.2602 20.1219 57.6295 19.8094 57.5023 19.269C57.4705 19.11 57.4811 19.0464 57.5714 18.9352C57.6719 18.8027 57.6986 18.7974 58.0533 18.8186C58.2864 18.8345 58.509 18.8875 58.6416 18.9511ZM60.8931 19.4491C60.8931 19.6186 60.8613 19.6981 60.7341 19.82C60.5277 20.0319 60.2946 20.0213 60.2679 19.8041C60.2467 19.6133 60.3315 19.4597 60.5383 19.3378C60.8083 19.1683 60.8931 19.1948 60.8931 19.4491ZM23.7912 19.6345C24.485 19.7776 25.4547 20.1378 26.7843 20.7471C27.632 21.1339 28.1088 21.4094 29.3435 22.2253C31.1605 23.4332 32.0031 23.8147 33.2005 23.9736C33.4548 24.0054 33.4548 24.0107 33.3645 24.1114C33.2005 24.2915 32.4426 24.6306 31.8916 24.7683C31.5949 24.8425 31.0283 24.9326 30.6095 24.9643C29.4122 25.065 28.2945 24.9749 24.7605 24.4928C23.881 24.3763 23.5263 24.3551 22.4031 24.3498C21.1578 24.3498 21.0413 24.3551 20.4108 24.4928C19.7538 24.6306 18.9485 24.8796 17.3962 25.4253C16.1618 25.8544 15.6108 25.8756 14.8744 25.51C14.1962 25.1763 13.5816 24.3657 13.4227 23.5922C13.322 23.1047 13.375 22.3895 13.5392 22.0292C13.7194 21.6372 14.0902 21.2451 14.4717 21.0438C15.0545 20.7312 15.6797 20.62 17.4227 20.5034C18.8532 20.408 19.224 20.3445 20.575 19.963C20.9989 19.8464 21.5448 19.7034 21.7936 19.6504C22.3658 19.5339 23.2558 19.5233 23.7912 19.6345ZM12.4373 20.567C12.5008 21.1021 12.4849 21.1763 12.2995 21.2875C12.0028 21.4729 11.6531 21.5365 11.3406 21.4623C11.1869 21.4253 11.0068 21.3511 10.9379 21.2928L10.8055 21.1868L10.9061 20.9961C11.1286 20.5829 11.6267 20.3021 12.1565 20.2968L12.4002 20.2915L12.4373 20.567ZM9.44387 20.9855C9.6346 21.0544 9.76705 21.2663 9.76705 21.51C9.76705 21.6425 9.74586 21.669 9.64519 21.669C9.58162 21.669 9.47036 21.6319 9.40148 21.5842C9.28493 21.4994 9.0836 21.1286 9.0783 20.9908C9.0783 20.9114 9.22135 20.9061 9.44387 20.9855ZM59.5953 21.9021C59.95 22.0557 60.0933 22.5167 59.897 22.8822C59.7699 23.1206 59.505 23.2584 59.182 23.2584C58.2441 23.2584 58.1118 22.2094 59.0125 21.8915C59.235 21.812 59.3833 21.8173 59.5953 21.9021ZM11.3724 23.5445C11.4677 23.5816 11.6214 23.7034 11.722 23.8147C11.8757 23.9895 11.8969 24.0425 11.8704 24.2279C11.7962 24.7842 11.0492 25.0544 10.567 24.6994C10.1432 24.3922 10.1591 23.6981 10.5882 23.518C10.7578 23.4544 11.1869 23.465 11.3724 23.5445ZM43.346 25.8915C45.6403 25.9021 47.4785 25.9339 47.4628 25.9604C47.4098 26.0451 45.8255 26.3736 44.6018 26.5538C44.2996 26.5961 43.6321 26.6226 42.7738 26.6226C41.6137 26.6173 41.3382 26.6014 40.8084 26.5008C40.0667 26.363 39.6323 26.2253 39.1449 25.9869C38.8003 25.8173 38.7897 25.8067 38.9859 25.8332C39.1025 25.8491 41.0628 25.8756 43.346 25.8915ZM52.4429 25.9604C54.3078 26.1723 55.5633 26.914 55.8917 28.016C56.0138 28.4134 56.0032 28.6995 55.8549 28.8584C55.537 29.1975 54.8588 29.3511 53.6454 29.3511C52.6337 29.3511 49.8469 29.1286 49.3065 29.0067C48.6177 28.8531 48.2363 28.5352 47.8069 27.7723C47.4573 27.1524 47.0919 26.6226 46.9698 26.5644C46.9012 26.5273 46.8694 26.4902 46.8957 26.469C47.0601 26.3683 49.2056 26.0081 50.0321 25.9445C50.578 25.9021 51.9979 25.9127 52.4429 25.9604ZM31.436 26.0293C31.436 26.4054 29.6559 26.9829 28.0771 27.1259C27.24 27.2001 25.6879 27.1895 25.0097 27.0995C24.04 26.9723 22.9592 26.7339 22.9592 26.6491C22.9592 26.6279 23.5157 26.5961 24.1938 26.5749C28.3737 26.4531 29.7194 26.3524 30.774 26.0716C31.2347 25.9498 31.436 25.9392 31.436 26.0293ZM39.4627 26.4213C42.0109 27.2955 42.08 27.3008 43.9131 26.9935C44.8773 26.8346 45.174 26.8028 45.6614 26.8187C46.1963 26.8346 46.276 26.8504 46.599 27.0094C47.1606 27.2849 47.6853 27.8624 48.1672 28.726C48.2626 28.8955 48.5754 29.563 48.8721 30.2094C49.4972 31.5922 49.6189 31.82 50.0588 32.424C50.456 32.9591 50.6149 33.2187 50.6149 33.3193C50.6149 33.3776 50.4665 33.3882 49.7566 33.3617C48.0985 33.3035 46.5142 32.816 44.231 31.677C43.2773 31.1948 41.64 30.2836 40.9462 29.8385C39.1131 28.6677 37.9369 27.3379 37.9369 26.4372C37.9369 26.273 37.9526 26.1087 37.9738 26.0769C38.0374 25.971 38.3925 26.0557 39.4627 26.4213ZM32.4426 26.3047C32.4956 26.3683 32.4799 26.4796 32.3685 26.8663C32.0985 27.8094 31.6797 28.4663 30.8164 29.3034C29.9793 30.114 28.9777 30.8293 27.1022 31.9525C24.4693 33.5313 22.8214 34.1776 21.0625 34.3366C20.681 34.3684 20.3472 34.3895 20.3154 34.379C20.2836 34.3684 20.3631 34.2253 20.5009 34.0664C20.7976 33.7061 21.2799 32.7313 21.6135 31.8147C22.1594 30.3101 22.4505 29.5683 22.6837 29.1233C23.5207 27.4862 24.3422 27.1206 26.4296 27.465C28.2678 27.7723 28.4852 27.7352 30.668 26.8187C31.6267 26.416 32.1303 26.2359 32.2892 26.2306C32.3367 26.2253 32.4058 26.2624 32.4426 26.3047ZM21.9737 26.9935C22.6362 27.0624 23.0651 27.1259 23.4996 27.2107L23.6428 27.2372L23.4309 27.4279C23.2876 27.5604 23.1287 27.8147 22.8956 28.2862C22.4505 29.1975 22.2547 29.4836 21.9313 29.6955C21.1951 30.1776 19.2823 30.4849 16.9989 30.4902C15.632 30.4902 15.2611 30.4425 14.9485 30.2306L14.7737 30.114L14.779 29.6637C14.779 29.2875 14.8002 29.171 14.9326 28.9008C15.3883 27.9365 16.7075 27.2584 18.6148 26.9935C19.3088 26.8981 21.0786 26.8981 21.9737 26.9935ZM39.1237 29.065C40.3791 30.0716 41.9952 31.163 43.7118 32.1591L44.4586 32.5935L44.6811 33.2399C45.3118 35.0783 45.9687 36.4823 46.9169 38.0134C47.9078 39.6187 48.0456 39.979 48.0083 40.9432C47.9714 41.9551 47.7963 42.1512 46.991 42.1088C46.2917 42.077 45.6559 41.6426 44.8082 40.6306C44.284 39.9949 43.8283 39.3485 42.7899 37.7485C42.297 36.9909 41.4387 35.7352 40.8826 34.9564C38.5515 31.714 37.8466 30.4584 37.3223 28.6465C37.0837 27.8359 37.0468 27.5551 37.1422 27.4067C37.2215 27.2902 37.227 27.2902 37.836 27.9101C38.1806 28.2544 38.7579 28.7736 39.1237 29.065ZM33.3488 27.4491C33.4548 27.6504 33.2691 28.9167 32.9991 29.8491C32.6177 31.163 32.1621 32.0637 30.5883 34.5962C30.0746 35.428 29.285 36.7366 28.84 37.5101C27.2929 40.1697 26.3236 41.6585 25.7989 42.1618C25.317 42.6225 24.8876 42.8238 24.3472 42.8238C24.1247 42.8238 23.8916 42.8081 23.828 42.7869C23.6746 42.739 23.4415 42.2836 23.383 41.9181C23.3143 41.5207 23.3885 40.922 23.5686 40.3816C23.6479 40.1591 23.987 39.4121 24.3316 38.7286C25.3064 36.779 25.7938 35.5392 26.1647 34.0664C26.3342 33.3988 26.3605 33.3405 26.5512 33.1657C26.6678 33.065 27.3989 32.5193 28.183 31.963C30.9329 29.9922 32.093 28.9538 32.9724 27.6557C33.089 27.4809 33.2111 27.3379 33.2373 27.3379C33.264 27.3379 33.3115 27.3855 33.3488 27.4491ZM58.4348 27.6875C58.8747 27.8995 59.2507 28.5564 59.2507 29.1233V29.4147L59.0812 29.3829C58.6679 29.3034 58.1542 28.9856 57.7727 28.5776C57.5659 28.3551 57.3964 28.1326 57.3964 28.0796C57.3964 27.9471 57.5977 27.7087 57.7884 27.624C57.9741 27.5392 58.1648 27.5604 58.4348 27.6875ZM36.5276 28.4081C36.623 28.5935 37.0519 29.3829 37.4919 30.1723C39.1923 33.224 39.7115 34.6439 39.8336 36.5829C39.8493 36.8425 39.876 37.2081 39.8917 37.3882C39.9023 37.5737 39.8972 37.722 39.876 37.722C39.8548 37.722 39.7433 37.5631 39.6374 37.3617C39.5314 37.1657 39.1449 36.4929 38.774 35.8677C37.0045 32.8584 36.2572 30.8664 36.2572 29.1392C36.2572 28.6094 36.2996 28.0796 36.342 28.0796C36.3526 28.0796 36.4374 28.2279 36.5276 28.4081ZM34.3605 29.1339C34.4135 29.7591 34.4084 29.9763 34.3342 30.575C34.1753 31.8889 33.7938 32.9538 32.6016 35.4703C31.8124 37.1286 31.542 37.7432 31.542 37.8598C31.542 37.9021 31.5208 37.9339 31.4945 37.9339C31.4254 37.9339 31.33 37.0651 31.33 36.4187C31.3356 35.3856 31.5369 34.3313 31.9658 33.1657C32.1883 32.5617 32.3473 32.1962 33.2005 30.3313C33.476 29.7167 33.7777 29.0067 33.868 28.7471C33.9634 28.4822 34.0638 28.2385 34.0956 28.1961C34.2122 28.0584 34.2969 28.3763 34.3605 29.1339ZM13.0412 29.1445C13.1843 29.1975 13.1949 29.3723 13.0783 29.7591C12.9618 30.1511 12.6757 30.416 12.0293 30.7339L11.4889 30.9988L11.473 30.7551C11.4253 30.0134 11.881 29.2187 12.432 29.0862C12.6068 29.0438 12.824 29.065 13.0412 29.1445ZM49.8575 29.4836C50.3131 29.6054 50.5407 29.6266 51.8864 29.669C54.6308 29.7644 55.1873 29.9021 56.1566 30.7233C56.6017 31.0942 56.978 31.5763 57.2006 32.0478C57.4125 32.4929 57.4599 33.0915 57.3171 33.4677C57.1845 33.8121 56.9195 34.0823 56.5593 34.2412C56.305 34.3578 56.1354 34.3895 55.6429 34.416C55.0864 34.4478 54.986 34.4372 54.3765 34.2889C51.7169 33.6425 50.0957 32.3869 49.2586 30.3313C48.9937 29.6902 49.0043 29.3564 49.2747 29.3511C49.3116 29.3511 49.5714 29.4094 49.8575 29.4836ZM58.2864 30.2147C58.456 30.3948 58.5619 30.6915 58.5619 30.9882C58.5619 31.322 58.4721 31.4174 58.1593 31.4174C57.9529 31.4174 57.9156 31.4015 57.8681 31.269C57.7833 31.0518 57.8308 30.4054 57.9423 30.2359C58.0533 30.0611 58.1381 30.0558 58.2864 30.2147ZM21.5075 30.6703C21.4388 31.4544 21.2375 32.0001 20.7658 32.7101C20.4532 33.1763 19.7274 33.9286 19.2293 34.2995C17.5869 35.518 15.4571 36.0372 14.3657 35.4915C13.2955 34.9511 13.2638 33.6319 14.2969 32.4346C14.9697 31.6558 15.5366 31.3061 16.4956 31.0783C16.8028 31.0041 17.7936 30.8346 18.7048 30.7021C19.6108 30.5697 20.5064 30.416 20.6916 30.363C21.1209 30.2306 21.2057 30.22 21.3909 30.2465L21.5448 30.2677L21.5075 30.6703ZM59.8708 30.6015C60.056 30.8875 59.9288 31.4703 59.6745 31.4703C59.4893 31.4703 59.3884 31.2425 59.4308 30.8823C59.4732 30.4637 59.5368 30.3366 59.6745 30.4107C59.733 30.4425 59.8178 30.5273 59.8708 30.6015ZM12.8664 31.8147C12.9194 31.9313 12.9777 32.1644 12.9883 32.3339C13.0094 32.5988 12.9936 32.6571 12.8876 32.7736C12.7234 32.9485 12.4584 32.9485 12.3154 32.7684C12.0929 32.477 12.13 32.0372 12.4161 31.7352C12.6121 31.5233 12.7339 31.5445 12.8664 31.8147ZM58.3661 32.0584C58.5619 32.2068 58.6522 32.5246 58.5569 32.7207C58.4721 32.8955 58.2441 33.0386 58.1224 32.9909C58.0482 32.9644 58.0321 32.8796 58.0321 32.5352C58.0321 31.9207 58.0906 31.8359 58.3661 32.0584ZM11.1975 32.1326C11.3777 32.3286 11.4147 32.8425 11.2558 33.0015C11.1286 33.1286 11.0227 33.1021 10.9379 32.922C10.832 32.6836 10.8849 32.0001 11.0121 32.0001C11.0439 32.0001 11.1286 32.0584 11.1975 32.1326ZM60.0666 32.3339C60.109 32.3975 60.109 32.4505 60.0666 32.514C60.003 32.6147 59.7593 32.6942 59.6427 32.6518C59.5317 32.6094 59.5529 32.4081 59.68 32.2438C59.7805 32.1167 59.8017 32.1061 59.9025 32.175C59.9661 32.2121 60.0403 32.2862 60.0666 32.3339ZM46.048 33.2505C49.8838 34.7657 52.2255 36.4081 52.946 38.0929C53.0469 38.3207 53.0732 38.4849 53.0732 38.8346C53.0787 39.2373 53.0626 39.3167 52.9198 39.571C52.6231 40.1114 52.0242 40.4982 51.2401 40.6571C50.1381 40.8849 49.248 40.6359 48.5169 39.9101C47.8917 39.2796 46.9542 37.7485 46.0111 35.8041C45.2058 34.1458 44.8506 33.1604 44.999 32.9803C45.0363 32.9379 45.0837 32.9008 45.1104 32.9008C45.1367 32.9008 45.5606 33.0597 46.048 33.2505ZM12.824 33.6266C12.9141 33.8439 12.8982 34.3472 12.7975 34.4478C12.7551 34.4902 12.6757 34.4637 12.5008 34.3631C12.2571 34.22 12.1671 34.0717 12.2412 33.9445C12.326 33.8015 12.6545 33.4306 12.6969 33.4306C12.7181 33.4306 12.7763 33.5207 12.824 33.6266ZM25.9261 33.7538C25.9261 34.1035 25.7196 35.0041 25.5183 35.5498C25.3276 36.0531 24.2998 38.273 23.6958 39.4863C23.3194 40.2333 22.9329 40.8161 22.6307 41.0916C21.7936 41.8439 19.9499 41.8969 18.8532 41.1922C18.3287 40.8584 18.1062 40.4134 18.1538 39.7882C18.2704 38.2306 20.2466 36.3816 23.8598 34.4372C24.7499 33.9551 25.6506 33.5419 25.8095 33.5366C25.9104 33.5366 25.9261 33.5631 25.9261 33.7538ZM58.1063 33.7273C58.1542 33.8491 58.0059 34.1511 57.8469 34.2571C57.6774 34.3684 57.5553 34.3154 57.4761 34.0929C57.4337 33.9657 57.4443 33.9339 57.5977 33.7962C57.7884 33.6266 58.0533 33.5895 58.1063 33.7273ZM51.7012 33.8492C53.2003 34.1035 54.3341 34.5061 55.1767 35.0783C55.7171 35.4439 56.0138 35.8942 56.0189 36.3498C56.0189 36.9061 55.6162 37.6319 55.1767 37.8651C54.5621 38.1882 53.9582 37.9127 52.3476 36.5617C50.9858 35.428 50.0588 34.7657 48.9568 34.1458C48.644 33.971 48.3897 33.8121 48.3897 33.7909C48.3897 33.722 48.7025 33.7061 49.8732 33.722C50.7738 33.7326 51.2189 33.7644 51.7012 33.8492ZM11.2611 33.8386C11.3777 33.9445 11.3882 34.1511 11.2717 34.1935C11.1657 34.2359 10.9114 34.2359 10.8055 34.1935C10.6942 34.1511 10.6995 33.9657 10.8108 33.8438C10.9167 33.7273 11.1339 33.722 11.2611 33.8386ZM59.6639 33.918C59.7381 33.9922 59.7487 34.379 59.6745 34.5644C59.558 34.8717 59.1502 34.9458 59.0282 34.6756C58.9489 34.4955 59.007 34.3207 59.2507 34.0717C59.4732 33.8438 59.558 33.8121 59.6639 33.918ZM40.1142 34.4213C40.2892 34.7074 40.75 35.3803 41.1369 35.9207C41.5235 36.4611 42.1541 37.3406 42.5462 37.881C44.125 40.0849 44.893 41.6532 44.893 42.6967C44.893 43.7936 43.9182 43.9949 43.0069 43.0836C41.8045 41.881 40.3422 38.3949 39.8548 35.5763C39.7221 34.8028 39.6641 33.9074 39.7433 33.9074C39.77 33.9074 39.9396 34.1405 40.1142 34.4213ZM31.2241 35.2743C31.1393 36.6518 31.0071 37.5207 30.6943 38.8081C30.0585 41.4041 29.0413 43.3167 27.9872 43.894C27.7486 44.0267 27.6426 44.0479 27.3247 44.0479C26.9009 44.0479 26.8004 44 26.6839 43.7245C26.472 43.2053 26.7949 41.881 27.4625 40.5618C27.6532 40.1803 28.3843 38.9035 29.0837 37.722C29.783 36.5406 30.5091 35.3114 30.6943 34.9935C30.8744 34.6703 31.0651 34.3684 31.1075 34.3154C31.1872 34.2253 31.1923 34.2253 31.2347 34.3313C31.2559 34.3948 31.2559 34.8187 31.2241 35.2743ZM22.7739 34.6386C22.7421 34.665 22.3658 34.8929 21.9263 35.1525C20.3366 36.0849 20.1353 36.2439 18.7472 37.6425C17.322 39.0783 17.1525 39.2055 16.5909 39.2055C16.4214 39.2055 16.1989 39.1737 16.1035 39.1313C15.8386 39.02 15.4995 38.6916 15.3406 38.3896C15.2187 38.1564 15.1975 38.0558 15.1975 37.6425C15.1975 37.2558 15.2187 37.1286 15.3141 36.9538C15.8757 35.9154 17.5552 35.1631 20.1777 34.7816C21.1366 34.6439 22.8744 34.5485 22.7739 34.6386ZM13.3909 35.2372C13.6929 35.4756 13.6823 35.7617 13.3591 35.7617C13.0783 35.7617 12.6916 35.2478 12.9088 35.1631C13.0571 35.0995 13.2585 35.1313 13.3909 35.2372ZM11.7273 35.5816C11.9869 35.8041 12.1088 36.1061 12.0028 36.2757C11.9816 36.3074 11.8439 36.3551 11.6955 36.371L11.4253 36.4081L11.3618 36.1697C11.2505 35.7247 11.3035 35.4439 11.4942 35.4439C11.5313 35.4439 11.632 35.5074 11.7273 35.5816ZM57.7672 35.8995C57.7672 36.2756 57.7037 36.3975 57.5023 36.3975C57.354 36.3975 57.3434 36.3869 57.3434 36.1856C57.3434 35.8412 57.4761 35.6505 57.7304 35.6081C57.7515 35.6081 57.7672 35.7352 57.7672 35.8995ZM59.4045 36.0002C59.4944 36.1061 59.5686 36.2121 59.5686 36.2386C59.5686 36.2598 59.5847 36.318 59.6004 36.3604C59.6427 36.4823 59.4363 36.6624 59.2562 36.6624C59.0549 36.6624 58.9328 36.4929 58.9328 36.2227C58.9328 35.7882 59.1341 35.6929 59.4045 36.0002ZM13.5551 37.118C13.677 37.1657 13.8571 37.5472 13.8359 37.7114C13.8147 37.9074 13.624 37.9286 13.4492 37.7538C13.3061 37.6055 13.2638 37.2664 13.3803 37.1498C13.4545 37.0757 13.4439 37.0756 13.5551 37.118ZM12.0664 37.3829C12.2306 37.4465 12.2677 37.6002 12.1935 37.9074L12.1247 38.1988H11.8386H11.5525L11.5843 37.9604C11.6584 37.4518 11.7962 37.2823 12.0664 37.3829ZM57.3328 38.0664C57.3489 38.326 57.195 38.6015 56.9886 38.681C56.6496 38.8081 56.644 38.3949 56.9831 38.0081C57.195 37.7697 57.3116 37.7909 57.3328 38.0664ZM58.578 38.2624C58.8586 38.6439 58.6628 39.7777 58.3343 39.6505C58.2072 39.6028 58.0851 39.3538 58.0851 39.1525C58.0851 38.9829 58.2335 38.2041 58.2814 38.13C58.3288 38.0505 58.4666 38.1141 58.578 38.2624ZM14.2545 39.375C14.5406 39.6823 14.62 39.9525 14.4452 40.0425C14.2121 40.1644 13.979 39.9207 13.9207 39.481C13.8889 39.232 13.8942 39.2055 13.9896 39.2055C14.0426 39.2055 14.1644 39.2849 14.2545 39.375ZM55.4891 39.6134C55.4891 39.6982 55.5052 39.8147 55.5209 39.8783C55.5421 39.9578 55.5264 40.0002 55.4522 40.0214C55.3145 40.0637 54.9118 40.0796 54.8745 40.0373C54.8058 39.9737 55.3145 39.4704 55.4467 39.4704C55.4734 39.4704 55.4891 39.5339 55.4891 39.6134ZM12.9035 39.6346C13.0836 39.73 13.2108 40.0902 13.2055 40.5035C13.2002 40.9856 13.1525 41.1339 13.0147 41.1551C12.8187 41.1869 12.6651 40.8955 12.6386 40.4293C12.6174 40.069 12.6916 39.5763 12.7657 39.5763C12.7816 39.5763 12.8399 39.6028 12.9035 39.6346ZM57.2112 40.424C57.3807 40.583 57.3489 40.7101 57.0785 40.9591C56.6284 41.3724 55.8917 41.3724 55.9926 40.9591C56.0507 40.7313 56.199 40.5088 56.3953 40.3816C56.6284 40.2174 57.0149 40.2386 57.2112 40.424ZM16.2677 40.9856C16.485 41.1498 16.4903 41.2452 16.2783 41.3512C16.1512 41.42 16.1035 41.4253 16.0399 41.3724C15.9234 41.277 15.8068 41.0333 15.8068 40.8796C15.8068 40.7525 15.8174 40.7472 15.9499 40.8002C16.0346 40.832 16.1777 40.9167 16.2677 40.9856ZM54.0641 40.9061C54.1595 41.0015 54.1646 41.028 54.0959 41.1286C53.9421 41.3671 53.7619 41.4465 53.3381 41.473L52.9303 41.4995L52.9672 41.3459C53.0202 41.1392 53.1423 41.0121 53.3966 40.8955C53.6827 40.7631 53.9264 40.7684 54.0641 40.9061ZM14.9485 41.7167C15.1446 41.8227 15.4201 42.1141 15.4889 42.2995C15.5684 42.522 15.4624 42.6174 15.1287 42.6174C14.6147 42.6174 14.0638 42.2677 14.1379 41.9922C14.228 41.6902 14.6306 41.5525 14.9485 41.7167ZM51.7012 41.8227C51.9025 41.9075 51.9924 42.0452 51.9924 42.2677C51.9924 42.4902 51.7542 42.681 51.4257 42.7284C50.9171 42.7975 50.6255 42.5326 50.737 42.1035C50.7687 41.9975 50.8429 41.9234 51.0019 41.8545C51.2668 41.7326 51.4575 41.722 51.7012 41.8227ZM55.0546 41.8863C55.1394 41.9445 55.1712 42.0187 55.1712 42.1512C55.1712 42.5059 54.7741 42.7551 54.1964 42.7551C53.9844 42.7551 53.9476 42.739 53.9738 42.6704C53.99 42.6225 54.0056 42.5432 54.0056 42.4902C54.0056 42.3419 54.3184 42.0134 54.5621 41.9022C54.8215 41.7803 54.9012 41.7803 55.0546 41.8863ZM18.1644 42.0982C18.3499 42.183 18.4929 42.4318 18.4346 42.5695C18.3922 42.6916 17.8201 42.6755 17.5658 42.5483C17.375 42.4529 17.2373 42.2571 17.2373 42.0929C17.2373 41.9816 17.926 41.9869 18.1644 42.0982ZM49.799 42.4953C49.9211 42.5962 49.8838 42.7073 49.6612 42.9192C49.4175 43.1523 48.9937 43.3006 48.4321 43.3642C48.0879 43.396 48.0718 43.396 48.0718 43.2849C48.0718 43.0357 48.3846 42.6598 48.7025 42.5326C49.0679 42.3843 49.6401 42.3631 49.799 42.4953ZM20.4797 42.8081C20.8611 42.9141 20.962 43.29 20.6759 43.5549C20.5382 43.6876 20.4691 43.7088 20.2254 43.7088C19.3989 43.7088 19.187 43.0942 19.9234 42.8344C20.1724 42.7445 20.2307 42.739 20.4797 42.8081ZM46.991 43.1205C47.2136 43.2214 47.4522 43.4702 47.4204 43.571C47.4098 43.6028 47.2826 43.6927 47.1394 43.7724C46.5409 44.1059 46.0056 43.9843 46.0056 43.5231C46.0056 43.3167 46.0959 43.179 46.2866 43.0993C46.5197 42.9989 46.7316 43.0039 46.991 43.1205ZM17.2797 43.2582C17.4598 43.4121 17.5711 43.6452 17.5446 43.8253C17.5287 43.9313 17.4969 43.947 17.2797 43.9631C16.9989 43.9788 16.7552 43.894 16.5114 43.6876C16.2995 43.5075 16.2889 43.3803 16.4744 43.2371C16.681 43.073 17.073 43.0836 17.2797 43.2582ZM52.7235 43.2426C52.7447 43.3642 52.3899 43.7457 52.1886 43.8092C52.0933 43.8359 51.9288 43.8783 51.8228 43.8995C51.627 43.9313 51.6215 43.9258 51.6215 43.7775C51.6215 43.624 51.733 43.4172 51.8864 43.3006C52.1089 43.1205 52.6917 43.0781 52.7235 43.2426ZM22.8905 43.4015C23.1287 43.5126 23.436 43.8198 23.436 43.947C23.436 43.9843 23.4521 44.053 23.4678 44.1008C23.4945 44.175 23.4466 44.1856 23.113 44.1856C22.8744 44.1801 22.6095 44.1432 22.4399 44.0847C22.1221 43.9737 21.6346 43.6609 21.6346 43.5655C21.6346 43.4702 21.8784 43.3273 22.1009 43.2849C22.3607 43.2371 22.6201 43.2794 22.8905 43.4015ZM25.423 43.8304C25.4653 43.8995 25.5183 44.0635 25.534 44.1962C25.5819 44.5353 25.4492 44.6624 25.0678 44.6569C24.7448 44.6569 24.3472 44.5192 24.2625 44.3869C24.1726 44.2386 24.3366 44.0212 24.6545 43.8516C25.0148 43.6664 25.3064 43.6609 25.423 43.8304ZM50.0639 43.9419C50.1542 44.0161 50.1593 44.0318 50.0851 44.1644C49.9423 44.4238 49.7515 44.5192 49.3963 44.5192C48.9831 44.5192 48.8509 44.4187 48.9725 44.1962C49.0204 44.1165 49.137 44.0106 49.2374 43.9631C49.4654 43.8465 49.9211 43.841 50.0639 43.9419ZM19.5843 44.3128C19.8174 44.4081 19.9923 44.6145 20.0081 44.8002C20.0187 44.9379 19.9976 44.9536 19.8545 44.9697C19.6956 44.9854 19.2982 44.8371 19.1446 44.7048C19.028 44.6095 18.8267 44.339 18.8267 44.2861C18.8267 44.2119 19.3936 44.2331 19.5843 44.3128ZM45.9793 44.4238C46.1328 44.5035 46.3078 44.7472 46.2493 44.8053C46.2387 44.8214 45.9844 44.7947 45.6932 44.7523C45.1528 44.673 44.893 44.5671 44.893 44.4238C44.893 44.3073 45.7356 44.3128 45.9793 44.4238ZM47.754 44.5353C48.0032 44.6357 48.0189 44.7099 47.823 44.9273C47.7171 45.0439 47.6111 45.102 47.4573 45.1232L47.2347 45.1499L47.1237 44.8477C47.0601 44.6836 47.0228 44.5247 47.0389 44.498C47.0919 44.4187 47.5208 44.445 47.754 44.5353ZM22.5565 44.8532C22.6256 44.8794 22.6413 44.943 22.6307 45.1605C22.615 45.4198 22.6095 45.4304 22.4455 45.4465C21.9207 45.4995 21.2956 45.0227 21.624 44.8214C21.7143 44.7629 22.3819 44.7841 22.5565 44.8532ZM26.8161 45.0121C26.7898 45.1655 26.5461 45.2927 26.138 45.3724C25.921 45.4198 25.6879 45.4677 25.6294 45.4834C25.5501 45.5101 25.5077 45.4889 25.481 45.4254C25.37 45.1287 25.7408 44.9536 26.5249 44.9324C26.7843 44.9273 26.8322 44.943 26.8161 45.0121ZM24.6015 45.3512C24.6015 45.5682 24.4799 45.7962 24.321 45.8649C24.1408 45.9496 23.7856 45.7538 23.7645 45.5525C23.7433 45.3936 23.8653 45.3033 24.1777 45.2397C24.5592 45.1655 24.6015 45.1761 24.6015 45.3512Z" fill="white"/>
<path d="M66.0554 0.0582784C61.0065 0.354968 56.2065 2.1563 51.2738 5.61063C48.7838 7.35368 45.833 9.89144 43.7824 12.053C40.8846 15.11 38.2886 18.3577 36.9798 20.5617C36.5296 21.314 36.1164 21.7908 35.9998 21.6743C35.9201 21.5948 36.0473 21.3405 36.3177 21.0332C36.8581 20.4239 36.8369 20.0478 36.238 19.5921L35.9519 19.3802L35.9892 19.1312C36.127 18.1352 37.6952 14.6226 38.9561 12.4769C39.5546 11.4544 40.5294 9.97091 41.0436 9.30336C41.5522 8.6411 42.2515 7.92587 42.6648 7.64507C42.8394 7.52852 43.2581 7.3007 43.5972 7.13646C44.286 6.80798 44.5136 6.60136 44.5721 6.25699C44.6195 5.97089 44.5665 5.82785 44.4182 5.82785C44.2648 5.82785 43.523 6.27288 42.9191 6.71792C42.3257 7.16295 41.3135 8.17488 40.7096 8.9272C39.0672 10.9775 37.3824 14.0981 35.7773 18.0504C35.5175 18.6915 35.3323 19.0782 35.2793 19.0941C35.2314 19.11 35.0674 19.1259 34.9084 19.1365L34.6168 19.1524L34.1773 18.1193C33.0274 15.412 31.6131 12.8954 30.1983 11.0199C28.5402 8.83183 26.6698 7.12587 25.3559 6.62255C24.6777 6.35765 24.487 6.46361 24.7307 6.96693C24.879 7.27421 25.266 7.52852 25.8912 7.73514C26.1561 7.81991 26.4473 7.93117 26.5426 7.97885C27.3746 8.40269 28.7572 9.78018 29.9122 11.3431C31.5177 13.5206 33.1389 16.5511 33.9548 18.9246L34.1349 19.4332L33.8064 19.7776C33.6263 19.963 33.4619 20.1802 33.4407 20.2597C33.3877 20.4716 33.5098 20.7047 33.9018 21.118C34.2672 21.5047 34.3574 21.6637 34.2833 21.8014C34.246 21.865 34.193 21.8226 34.029 21.6054C29.6422 15.8146 24.4077 10.9034 18.638 7.17355C15.3585 5.05434 12.2538 3.64505 9.18097 2.88743C7.02467 2.35763 5.34519 2.14041 2.87631 2.08213L1.49352 2.05034L1.2657 2.30994C0.847159 2.78677 0.688217 3.2477 0.640534 4.10598C0.513382 6.58017 2.19816 10.5537 4.48691 13.2027C5.99685 14.9405 5.97566 14.9087 5.97566 15.6769C5.97566 15.9683 6.00214 16.3338 6.03393 16.4875C6.06572 16.6411 6.33592 17.2663 6.63791 17.8809C7.26838 19.163 7.39553 19.5339 7.58626 20.6517C7.87765 22.31 8.05778 22.7922 8.51871 23.1418L8.75712 23.3273L8.78891 24.0478C8.8154 24.5935 8.85779 24.8849 8.96375 25.2451C9.31872 26.4637 10.1558 27.6663 11.0035 28.1644C11.0936 28.2173 11.1677 28.2809 11.1677 28.3021C11.1677 28.3233 11.0883 28.4346 10.9876 28.5405C10.5849 28.9909 10.4472 29.4518 10.373 30.6438C10.2141 33.1021 10.2035 33.2081 9.94918 33.7856L9.83262 34.0611L9.96508 34.3419C10.0498 34.5167 10.124 34.8081 10.1611 35.0995C10.283 36.0743 10.3624 36.3392 10.6167 36.6094L10.7439 36.7472L10.6326 37.028C10.5585 37.2346 10.5267 37.4359 10.5267 37.775C10.5267 38.3207 10.5902 38.6227 10.8234 39.1313C11.0247 39.571 11.3002 39.8942 11.6763 40.1379C11.9359 40.3022 11.9518 40.3286 11.9836 40.5935C12.0684 41.2028 12.5187 42.0028 13.1121 42.5801C13.43 42.8874 13.573 42.9777 14.3518 43.3324C14.4843 43.396 14.8499 43.6821 15.1624 43.9737C15.6234 44.4026 15.777 44.5141 15.9995 44.5828C16.1479 44.6251 16.3386 44.6624 16.4181 44.6624C16.6671 44.6624 17.0115 44.8159 17.3929 45.1075C18.0234 45.5894 17.9916 45.5737 18.6327 45.5843L19.2154 45.5894L20.132 46.0505C21.34 46.6596 21.6422 46.7232 22.3042 46.5168C22.7018 46.3896 23.1307 46.3841 23.8567 46.49C24.1479 46.5324 24.6141 46.5642 24.8896 46.5642C25.4673 46.5697 25.6526 46.5062 26.1985 46.1141C26.6168 45.8119 26.8817 45.6953 27.3585 45.5949C27.862 45.494 28.1375 45.3457 28.4923 44.9854C29.017 44.4611 29.9758 42.8768 31.0036 40.8479C32.1268 38.628 32.9905 36.4452 34.193 32.7948C34.3307 32.371 34.4528 32.0637 34.4579 32.1061C34.4685 32.1485 34.5003 32.816 34.5321 33.5895C34.6647 36.7896 34.919 38.1194 35.5654 38.9088L35.6925 39.0677L35.7985 38.9353C36.0952 38.575 36.3813 37.7591 36.4873 36.9803C36.5135 36.7631 36.5559 35.5763 36.5771 34.3419C36.5932 33.1127 36.625 32.1061 36.6462 32.1061C36.6619 32.1061 36.7733 32.3763 36.8844 32.7048C37.5045 34.4955 38.1826 36.0531 39.4118 38.5167C41.3029 42.3154 42.474 44.0212 43.682 44.7472C43.9626 44.9112 44.1003 44.9536 44.837 45.0863C45.0646 45.1232 45.2926 45.224 45.6317 45.4304C45.8966 45.5843 46.1827 45.7432 46.2674 45.7801C46.5162 45.8755 47.099 45.8492 47.9573 45.7009C48.6091 45.5843 48.9164 45.5631 49.7323 45.5631C50.8449 45.5631 50.8025 45.5682 51.6184 45.0914C52.4237 44.6145 52.7785 44.4556 53.1917 44.3975C53.4037 44.3657 53.6529 44.3285 53.7482 44.3128C53.8436 44.2967 54.1242 44.1377 54.384 43.9525C54.9774 43.5287 55.099 43.4651 55.5547 43.3642C56.0476 43.2532 56.201 43.1417 56.6778 42.5538C57.1284 42.0028 57.2818 41.881 57.6052 41.8333C57.9549 41.7803 58.2567 41.5472 58.7017 41.0015C59.2209 40.3657 59.3536 40.069 59.4277 39.3962C59.4964 38.7922 59.5282 38.7233 59.7719 38.575C60.1483 38.3419 60.4873 37.8174 60.6832 37.1604C60.8264 36.6889 60.8158 35.7882 60.6569 35.3432L60.5403 35.0041L60.7149 34.824L60.89 34.6439L60.9218 33.7326C60.9536 32.9803 60.9748 32.7684 61.0752 32.5087C61.2185 32.1114 61.2024 32.0107 60.8421 31.1842C60.4873 30.3789 60.4606 30.2412 60.3602 28.9803C60.2542 27.5551 60.1165 27.1101 59.6926 26.7657C59.6079 26.6968 59.5388 26.6226 59.5388 26.6014C59.5388 26.5855 59.6185 26.522 59.7138 26.4637C60.005 26.2942 60.5509 25.7379 60.7891 25.367C61.2977 24.5935 61.5414 23.6451 61.5893 22.3047L61.6211 21.4835L61.8805 21.2504C62.3467 20.8372 62.4476 20.4981 62.5854 18.914C62.7125 17.4252 62.8185 17.0226 63.3958 15.7617C63.8993 14.6544 64.0103 14.1881 63.9417 13.4623L63.9044 13.0756L64.2701 12.5087C65.7163 10.2941 66.5589 8.87952 67.0938 7.75633C68.0368 5.78017 68.4925 3.89936 68.4183 2.27816C68.3759 1.26623 68.2276 0.725832 67.8622 0.222518L67.6978 0L67.2315 0.00529805C66.9772 0.0105961 66.4474 0.0370863 66.0554 0.0582784ZM63.7136 0.688746C63.9946 0.815899 64.037 0.92186 63.8832 1.0861C63.6768 1.30332 63.2317 1.44107 62.6277 1.47286C62.0924 1.49935 62.0818 1.49405 62.0818 1.38279C62.0818 0.810601 63.0622 0.392055 63.7136 0.688746ZM67.5125 0.953648C67.6024 0.990734 67.6448 1.03842 67.6342 1.10199C67.6185 1.17087 67.5388 1.20266 67.2476 1.22915C67.0408 1.25564 66.8183 1.25564 66.7547 1.24504C66.6437 1.21855 66.6381 1.20266 66.7017 1.12848C66.8607 0.932456 67.2421 0.852985 67.5125 0.953648ZM65.409 1.66358C65.6158 1.76955 65.7905 2.03445 65.7905 2.24107C65.7905 2.47418 65.4993 2.73379 65.192 2.78147C64.6143 2.87154 63.9891 2.52716 64.0633 2.1616C64.1799 1.58411 64.8105 1.351 65.409 1.66358ZM6.50546 2.65432C6.75447 2.78677 6.99818 3.09405 6.97169 3.2265C6.9346 3.41194 5.28691 3.26359 4.99022 3.05167C4.84188 2.94041 4.96373 2.72319 5.24982 2.59074C5.56771 2.4424 6.18228 2.47418 6.50546 2.65432ZM62.49 2.54836C63.0249 2.61723 63.5229 2.84505 63.6712 3.08346C63.9891 3.60796 63.5865 4.12717 62.7282 4.29672C61.9072 4.45566 60.392 4.19604 59.7931 3.79869C59.4277 3.54968 59.5867 3.15233 60.1695 2.86624C60.8158 2.54836 61.6423 2.4318 62.49 2.54836ZM67.507 2.86624C67.7825 3.08346 67.6024 3.30068 67.0938 3.36955C66.7602 3.41723 66.5852 3.36425 66.5852 3.21591C66.5852 2.85034 67.1947 2.61723 67.507 2.86624ZM2.04981 3.14174C2.41008 3.26889 2.27763 3.39074 1.77961 3.39074C1.64716 3.39074 1.49882 3.37485 1.45113 3.35896C1.36637 3.32717 1.33458 3.17352 1.40345 3.10995C1.45643 3.05167 1.85378 3.07286 2.04981 3.14174ZM59.0514 3.26889C59.1416 3.33776 59.1997 3.43313 59.2103 3.53909C59.237 3.7775 59.0726 3.86757 58.6275 3.86757C58.3152 3.86757 58.2622 3.85167 58.188 3.74571C58.0714 3.56028 58.0341 3.31657 58.1189 3.2477C58.3045 3.09405 58.8344 3.10995 59.0514 3.26889ZM56.6249 3.33247C56.6249 3.38545 56.5774 3.49141 56.5189 3.56558C56.3867 3.72982 55.8302 4.01591 55.5441 4.06359L55.3377 4.09538L55.4381 3.92584C55.6924 3.48611 56.6249 3.01988 56.6249 3.33247ZM4.45512 3.54439C4.85247 3.63975 5.0591 4.00002 4.91605 4.3444C4.82598 4.56162 4.60347 4.70996 4.25909 4.77884C4.01538 4.83182 3.94121 4.82652 3.72929 4.74705C3.41141 4.62519 3.30545 4.46625 3.34253 4.17485C3.37962 3.91525 3.58624 3.68214 3.88823 3.57617C4.13194 3.48611 4.19022 3.48611 4.45512 3.54439ZM57.4145 3.95763C57.5361 3.98942 57.5361 4.00532 57.5149 4.41857C57.4781 5.06493 57.197 5.50997 56.6516 5.77487C56.4184 5.88613 55.7721 5.99209 55.5547 5.9497C55.433 5.92851 55.4275 5.91262 55.4648 5.6795C55.6449 4.55102 56.5668 3.72982 57.4145 3.95763ZM65.7748 4.03181C66.013 4.12187 66.1613 4.29142 66.1613 4.47685C66.1613 4.8742 65.69 5.24506 65.1814 5.24506C64.858 5.24506 64.3918 5.11791 64.1905 4.96957C63.862 4.73645 64.1006 4.25433 64.6355 4.06359C64.9059 3.96823 65.5629 3.94704 65.7748 4.03181ZM8.86308 4.45566C9.40878 4.604 9.58362 4.79473 9.45117 5.10202C9.29752 5.47818 8.65646 5.88613 7.93593 6.07156C7.68162 6.13513 7.43262 6.15103 6.9505 6.13513C6.35712 6.11394 6.28294 6.10335 5.95976 5.93911C5.5836 5.75897 5.37168 5.53646 5.3187 5.26626C5.22863 4.84241 5.89089 4.52453 7.14122 4.39208C7.62334 4.3444 8.57169 4.37619 8.86308 4.45566ZM54.7176 4.37089C54.7176 4.38678 54.6595 4.51394 54.5904 4.65168C54.331 5.16559 53.6953 5.59473 53.1019 5.65301L52.8052 5.6848L52.8633 5.53116C53.0171 5.13381 53.2926 4.84771 53.7533 4.6146C54.0818 4.44506 54.7176 4.28612 54.7176 4.37089ZM13.0591 4.79473C13.4406 4.93248 13.7108 5.16559 13.7108 5.35632C13.7108 5.45169 13.6896 5.46228 13.5412 5.4305C12.9744 5.30864 12.5452 5.01725 12.5452 4.76294C12.5452 4.63049 12.6247 4.63579 13.0591 4.79473ZM10.9558 4.79473C11.332 4.99076 10.9929 5.45699 10.4737 5.45699C10.1664 5.45699 9.94918 5.30334 9.94918 5.08612C9.94918 4.85301 10.1611 4.71526 10.5161 4.71526C10.675 4.71526 10.871 4.75235 10.9558 4.79473ZM62.1348 4.78943C62.7388 4.90069 63.1364 5.07023 63.3958 5.32983C63.539 5.46758 63.6183 5.59473 63.6077 5.65301C63.5865 5.77487 63.094 6.07156 62.7176 6.18811C62.2514 6.33116 61.0913 6.30467 60.4344 6.12984C59.6659 5.92851 59.0938 5.61063 58.9297 5.30334L58.8555 5.1497L59.131 5.04374C59.5176 4.8901 59.735 4.83182 60.0686 4.77354C60.5191 4.69937 61.6898 4.70996 62.1348 4.78943ZM2.42067 5.155C2.6273 5.57354 2.46306 5.63182 1.70014 5.4252C1.5465 5.38281 1.41935 5.32983 1.41935 5.30864C1.41935 5.23977 1.70014 4.99076 1.84319 4.93248C1.91736 4.90069 2.04981 4.8848 2.13458 4.8901C2.26703 4.90069 2.31471 4.94308 2.42067 5.155ZM12.7412 5.53116C13.1015 5.7007 13.4724 6.07686 13.6419 6.44242C13.785 6.7603 13.8644 7.32719 13.7744 7.38547C13.6896 7.43845 12.985 7.32189 12.6035 7.19474C12.2008 7.06759 11.8406 6.7603 11.7452 6.47951C11.7134 6.37884 11.6975 6.15103 11.7081 5.97089C11.7293 5.70599 11.7558 5.63182 11.8777 5.52586C12.0684 5.36162 12.381 5.36692 12.7412 5.53116ZM66.5746 5.7007C66.7496 5.82255 66.7335 6.14043 66.5483 6.36295C66.2885 6.67024 65.8964 6.755 65.5946 6.56957C65.3721 6.43712 65.3242 6.25169 65.4569 6.02917C65.6633 5.6795 66.2834 5.49407 66.5746 5.7007ZM15.0512 5.74838C15.7611 5.93381 16.3651 6.36295 16.4923 6.7762L16.5293 6.90335L16.1797 6.86626C15.7134 6.81858 15.3161 6.66494 15.0353 6.42653C14.8287 6.24639 14.5055 5.81195 14.5055 5.71129C14.5055 5.64771 14.7174 5.65831 15.0512 5.74838ZM58.4317 5.92851C58.4898 5.98679 58.3787 6.27818 58.2143 6.47421C57.8328 6.92984 56.911 7.16825 56.254 6.97752C56.0951 6.92984 55.9149 6.86096 55.8619 6.81858C55.7666 6.74971 55.7721 6.73381 55.9628 6.52189C56.2752 6.17752 56.752 5.9656 57.3772 5.88613C57.7218 5.84374 58.3732 5.87023 58.4317 5.92851ZM4.67764 6.08745C4.92135 6.19341 5.23393 6.52719 5.23393 6.68083C5.23393 6.74441 5.14386 6.83977 4.98492 6.94573C4.2379 7.41726 3.31074 7.34838 3.12002 6.80798C3.05644 6.62255 3.06174 6.56957 3.13061 6.40004C3.30545 5.98149 4.06836 5.82785 4.67764 6.08745ZM9.81673 6.57487C10.0498 6.60666 10.2618 6.64904 10.283 6.67024C10.3677 6.755 10.2459 7.01991 10.0181 7.24242C9.55183 7.69276 8.70414 7.97885 7.67103 8.03713C7.12533 8.06362 6.18758 8.00004 5.83791 7.91527C5.67897 7.87289 5.66837 7.69276 5.81142 7.39077C6.04453 6.88216 6.54784 6.60666 7.43262 6.51129C7.87765 6.46891 9.22865 6.5007 9.81673 6.57487ZM52.6674 6.54838C52.6195 6.67553 51.576 7.59209 51.1255 7.90468C50.903 8.05302 50.4847 8.30203 50.188 8.45038C49.6582 8.72058 48.593 9.10203 48.535 9.04376C48.4714 8.98018 48.7838 8.54574 49.139 8.20667C49.8646 7.50203 50.9509 6.90865 52.0686 6.59606C52.6196 6.44242 52.7098 6.43712 52.6674 6.54838ZM65.0648 7.19474L65.3191 7.306L65.303 7.71925L65.2874 8.13249L64.9958 8.28614C64.7838 8.40269 64.6304 8.44508 64.4291 8.44508C64.1854 8.45037 64.1269 8.42918 63.984 8.28084C63.6768 7.97355 63.7242 7.36428 64.0845 7.13646C64.2752 7.01461 64.7203 7.0411 65.0648 7.19474ZM60.8739 7.15236C61.4304 7.23183 61.9017 7.41196 62.1348 7.62388L62.3361 7.81461L62.262 8.15898C62.1348 8.75766 61.7322 9.1815 61.0964 9.37753C60.0529 9.70071 58.8712 9.22389 58.6381 8.3921C58.3944 7.52322 59.4383 6.94573 60.8739 7.15236ZM12.3969 7.43845C12.8313 7.53381 13.0432 7.63978 13.3028 7.88349C13.5359 8.1113 13.5465 8.17488 13.3558 8.26494C12.6141 8.60402 11.7982 8.55634 11.2419 8.13249C10.9346 7.89938 10.7863 7.45434 10.9982 7.40136C11.2048 7.34838 12.0631 7.36958 12.3969 7.43845ZM56.201 7.54971C56.3337 7.59209 56.4977 7.68216 56.5719 7.74044L56.7045 7.8411L56.4926 8.03183C56.0421 8.43448 55.3215 8.68879 54.6383 8.68879C54.1721 8.68879 53.9072 8.63051 53.7588 8.49806C53.6368 8.3921 53.7059 8.16958 53.9335 7.94176C54.3997 7.48083 55.4805 7.29011 56.201 7.54971ZM17.6578 7.81991C18.3095 7.98415 18.9717 8.27024 19.5386 8.63051C20.0207 8.9325 20.9691 9.7219 20.9691 9.81727C20.9691 9.90204 20.3598 9.82257 19.83 9.66892C19.2207 9.49409 18.2989 9.03846 17.7797 8.6464C17.2658 8.25965 16.6777 7.74574 16.6777 7.67686C16.6777 7.60799 17.0433 7.66097 17.6578 7.81991ZM3.62863 7.81461C3.86174 7.95236 4.01538 8.17488 4.01538 8.36561C4.01538 8.63051 3.52267 8.81594 3.14651 8.68879C2.72796 8.55104 2.55313 8.07951 2.82333 7.81461C2.99816 7.63448 3.31604 7.63448 3.62863 7.81461ZM10.3465 8.95369C10.6856 9.11793 10.8498 9.37753 10.8498 9.74839C10.8445 10.5696 10.1134 11.1259 9.02203 11.1259C8.0207 11.1259 7.25778 10.6438 7.16242 9.95502C7.10944 9.57886 7.23659 9.34574 7.57566 9.1974C8.43394 8.81594 9.81673 8.69938 10.3465 8.95369ZM15.0618 8.97488C15.4221 9.13912 15.687 9.36693 15.7823 9.60535C15.8671 9.81197 15.7876 9.87555 15.3161 9.96031C14.9134 10.0398 14.3571 10.008 13.8697 9.88084C13.4883 9.78018 12.7042 9.44111 12.7042 9.37223C12.7042 9.29806 12.985 9.06495 13.181 8.96958C13.4883 8.82654 13.6578 8.80005 14.2141 8.81594C14.6591 8.82654 14.7969 8.85303 15.0618 8.97488ZM62.8079 8.85832C62.9032 8.98548 62.9244 9.17621 62.8659 9.48879L62.813 9.80137H62.5057C62.209 9.80137 62.1984 9.79608 62.1403 9.63713C62.0501 9.38283 62.0712 9.1974 62.1933 9.03846C62.3679 8.81594 62.7019 8.72057 62.8079 8.85832ZM5.39287 9.12323C5.66307 9.26097 5.8697 9.53647 5.8697 9.75369C5.8697 9.93383 5.64188 10.2146 5.40877 10.31C5.18625 10.4053 4.69353 10.4053 4.47631 10.31C4.06836 10.1351 3.91472 9.74839 4.13194 9.43051C4.40744 9.02256 4.93724 8.89541 5.39287 9.12323ZM53.0434 9.48349C53.1176 9.50998 53.1811 9.55237 53.1811 9.57886C53.1811 9.60535 53.0383 9.80137 52.8633 10.0186C52.3335 10.665 51.7189 12.0107 51.4858 13.0332C51.4489 13.1921 51.3904 13.3775 51.3535 13.4358C51.3112 13.4994 51.0462 13.6954 50.7546 13.8703C49.0805 14.8981 47.7085 16.4027 47.3058 17.6531C47.2685 17.7643 47.152 17.9233 47.046 18.0133C46.9401 18.1034 45.8012 18.7021 44.5191 19.3484C42.1189 20.5617 39.8831 22.0981 39.8831 22.0981C39.8831 22.0981 37.8804 23.2478 37.0115 23.3379L36.6568 23.3749L36.6831 23.0941C36.7627 22.3365 37.1336 21.4147 37.6846 20.6094C38.1983 19.8517 38.4899 19.518 40.2539 17.6372C40.6778 17.1868 41.3191 16.4769 41.6844 16.0584C42.0502 15.6345 42.6804 14.9087 43.0831 14.4425C43.9308 13.4676 45.446 11.9312 46.0288 11.4597C47.5284 10.2517 48.9321 9.65833 50.6805 9.48879C51.3374 9.42521 52.8845 9.41992 53.0434 9.48349ZM56.429 9.56296C57.2979 9.74839 57.8383 10.3047 58.0341 11.2265C58.3046 12.5087 57.8277 13.6583 56.8262 14.1352C56.2328 14.4213 55.3588 14.4848 54.5324 14.3047C53.9178 14.167 51.8939 13.616 51.846 13.5683C51.7931 13.5206 52.1533 11.7669 52.3017 11.3802C52.4712 10.9246 52.6357 10.6755 52.9374 10.3948C53.6423 9.7431 55.3588 9.33515 56.429 9.56296ZM64.6991 9.91793C64.7258 10.0186 64.7309 10.1722 64.7097 10.2517C64.6198 10.6014 64.0633 10.8928 63.8993 10.6755C63.8039 10.5378 63.8145 10.1934 63.9205 10.008C64.0103 9.85965 64.1642 9.77488 64.413 9.7325C64.6198 9.70071 64.6461 9.71661 64.6991 9.91793ZM19.3532 10.5431C21.8223 10.8186 23.2367 11.6769 26.585 14.914C27.2102 15.518 28.3546 16.604 29.1281 17.3246C30.8552 18.9352 32.323 20.4239 32.7998 21.0597C33.3614 21.8014 33.6475 22.4531 33.7691 23.2531L33.8009 23.4862L33.3296 23.4491C32.8422 23.412 32.1852 23.2531 31.6817 23.0518C31.2685 22.8875 30.9612 22.7233 29.7108 22.0133C27.4276 20.7153 25.9598 20.0054 24.6247 19.5498C23.0832 19.0252 22.9137 18.9034 22.4687 17.9815C21.8859 16.7683 21.3773 16.2915 19.332 15.0729L18.3572 14.4901L18.2406 14.0663C17.9704 13.0703 17.3876 12.0054 16.6035 11.0517C16.3598 10.755 16.3174 10.6755 16.381 10.6385C16.5929 10.5166 18.5691 10.4583 19.3532 10.5431ZM61.1231 10.6544C61.605 10.9246 61.8013 11.5603 61.5626 12.0954C61.2185 12.8742 59.8304 13.0067 59.4595 12.2914C59.1628 11.7193 59.454 10.861 60.0368 10.5855C60.3284 10.453 60.8209 10.4795 61.1231 10.6544ZM7.32665 10.8186C7.42732 11.0676 7.475 11.3643 7.43262 11.4914C7.40613 11.5868 7.35844 11.6027 7.08824 11.6027H6.77566L6.6697 11.3113C6.46837 10.7815 6.53195 10.6544 6.99818 10.6491C7.23659 10.6491 7.25778 10.6597 7.32665 10.8186ZM15.2896 10.9458C16.3545 11.1577 17.0538 11.714 17.3876 12.6093C17.5466 13.0385 18.0234 14.6703 17.9969 14.6968C17.9704 14.7232 16.7413 15.1524 15.936 15.4173C15.6022 15.5285 15.1201 15.6504 14.8658 15.6822C13.4883 15.8676 12.2379 15.2795 11.7346 14.2146C11.5757 13.8703 11.5651 13.8226 11.5704 13.2451C11.5704 12.7418 11.5916 12.5828 11.6922 12.3285C11.9889 11.5815 12.5929 11.1312 13.5783 10.9352C14.034 10.8451 14.8128 10.8451 15.2896 10.9458ZM62.9189 11.1047C63.0567 11.2001 63.1944 11.4491 63.1944 11.6027C63.1944 11.7616 62.9562 11.8411 62.6913 11.7616C62.4582 11.6928 62.0818 11.4597 62.0818 11.3802C62.0818 11.3537 62.1509 11.2583 62.2357 11.1736C62.4158 10.9987 62.7176 10.9616 62.9189 11.1047ZM5.41936 11.7405C5.71605 11.8782 5.8538 12.302 5.67897 12.5458C5.52532 12.7683 5.10148 12.6464 4.94784 12.3232C4.83128 12.0795 4.84188 11.8888 4.96903 11.7616C5.09618 11.6345 5.18625 11.6292 5.41936 11.7405ZM9.66309 12.2862C10.3518 12.5987 10.5532 13.6424 10.0234 14.1617C9.81143 14.3789 9.61011 14.4689 9.28693 14.5007C8.19553 14.612 7.58096 13.4411 8.30149 12.604C8.64057 12.2067 9.19686 12.0742 9.66309 12.2862ZM7.37434 12.9325C7.53328 13.0544 7.54387 13.1338 7.43791 13.3458C7.34255 13.5259 7.15182 13.616 6.86043 13.616C6.47897 13.616 6.3889 13.3881 6.64851 13.0862C6.88162 12.8054 7.14122 12.7524 7.37434 12.9325ZM62.5799 14.0186C62.6278 14.1458 62.6171 14.6756 62.5642 14.6756C62.4209 14.6756 62.1933 14.5431 62.1403 14.4319C62.0606 14.257 62.0662 14.0027 62.1509 13.9709C62.2993 13.9074 62.5481 13.9338 62.5799 14.0186ZM60.7573 14.0663C61.001 14.1934 61.0065 14.3259 60.7785 14.6597L60.5772 14.9511L60.2542 14.9299C59.6926 14.8822 59.3904 14.6332 59.5282 14.3312C59.6609 14.0398 60.4026 13.8809 60.7573 14.0663ZM54.0818 14.4636C55.4063 14.5855 56.4977 14.8451 56.8635 15.1206C57.8116 15.8464 57.801 17.8173 56.8423 18.7498C56.2328 19.3431 55.5814 19.359 52.2275 18.8875C49.5467 18.506 48.9427 18.3577 48.3231 17.9445C48.0526 17.7696 47.9361 17.563 47.9361 17.2716C47.9361 16.8213 48.3972 16.1431 49.1601 15.465C49.9387 14.7656 50.3308 14.559 51.0195 14.4689C51.5125 14.4054 53.3774 14.4001 54.0818 14.4636ZM19.2472 15.7034C19.7558 15.8464 20.1638 16.0636 20.6885 16.4663C21.6845 17.2398 22.0817 17.7325 22.0817 18.1935C22.0817 18.9193 21.3137 19.2849 18.6115 19.8358C17.9704 19.9683 17.0062 20.1749 16.4658 20.2915C15.6552 20.4716 15.3532 20.514 14.7174 20.5405C14.0128 20.567 13.9227 20.5564 13.6366 20.4504C13.2446 20.3021 12.9744 20.0584 12.7624 19.661C12.4287 19.0305 12.2697 17.9974 12.4287 17.4464C12.5982 16.8742 13.1545 16.3762 13.9121 16.1378C14.3413 16.0054 15.5757 15.7776 16.5452 15.6557C17.3293 15.5603 18.8181 15.5868 19.2472 15.7034ZM7.7293 15.7935C7.86705 15.9312 7.82467 16.1855 7.63924 16.355C7.475 16.5034 7.32136 16.5087 7.24718 16.3762C7.12533 16.1431 7.21539 15.8199 7.42202 15.7352C7.59156 15.6663 7.60745 15.6716 7.7293 15.7935ZM10.2512 15.7617C10.426 15.8358 10.4366 15.8517 10.4048 16.016C10.3836 16.106 10.2883 16.265 10.1876 16.3656C10.0392 16.5193 9.96507 16.5511 9.71607 16.5723C9.22335 16.6146 8.88958 16.3868 8.88958 16.0213C8.88958 15.9206 8.89487 15.8411 8.90547 15.8411C8.91077 15.8411 9.01143 15.804 9.12799 15.7617C9.40878 15.661 10.0075 15.661 10.2512 15.7617ZM60.0368 16.3391C60.3178 16.4557 60.4556 16.6729 60.4289 16.959C60.3865 17.3829 60.0635 17.6796 59.5125 17.8014C59.0357 17.9074 58.4317 17.7272 58.3838 17.4623C58.3045 17.0756 58.6169 16.5564 59.0302 16.3656C59.29 16.2491 59.788 16.2332 60.0368 16.3391ZM61.8436 17.0491C61.8013 17.2822 61.3986 17.6954 61.2079 17.6954C60.9375 17.6954 61.0752 17.2239 61.4834 16.7895L61.7377 16.5193L61.8063 16.6941C61.8487 16.7948 61.8648 16.9378 61.8436 17.0491ZM11.1042 18.0239C11.4273 18.1776 11.6181 18.4478 11.6181 18.7603C11.6181 19.1736 11.3161 19.3908 10.7333 19.3908C10.124 19.3908 9.6313 19.0411 9.6313 18.6067C9.6313 17.9868 10.3836 17.6901 11.1042 18.0239ZM8.41805 18.4319C8.8207 18.6915 8.99554 18.9511 8.99554 19.2902C8.99554 19.4597 8.98494 19.4597 8.64587 19.3378C8.47103 19.269 8.26441 18.9829 8.17434 18.6915C8.03659 18.2199 8.05778 18.1988 8.41805 18.4319ZM48.4129 18.8345C48.6884 18.8822 49.3454 18.9988 49.8701 19.1047C50.7546 19.2796 50.956 19.2955 52.5721 19.3643C54.7549 19.4597 55.1732 19.5233 55.8463 19.8782C56.6566 20.3127 57.0805 21.2769 56.8953 22.2624C56.7681 22.9193 56.2328 23.7723 55.703 24.1484C55.3427 24.4081 55.0728 24.4875 54.5586 24.4875C54.0767 24.4928 53.7003 24.4134 52.4924 24.0531C51.5917 23.7882 50.6966 23.6028 49.8171 23.4968C48.4502 23.3379 47.9255 23.3908 44.9692 23.9736C41.8912 24.5776 41.6738 24.6094 40.148 24.6094C38.9773 24.6094 38.7972 24.5988 38.2937 24.4875C37.9864 24.4187 37.5519 24.2862 37.3243 24.2014C36.9959 24.069 36.9268 24.0266 36.9747 23.963C37.07 23.8518 37.6261 23.6028 38.442 23.3114C39.8144 22.8186 40.0844 22.665 41.8595 21.3935C44.3071 19.6398 45.3189 19.0676 46.3997 18.8398C46.8608 18.7392 47.7983 18.7392 48.4129 18.8345ZM58.7178 18.9511C59.2845 19.2425 59.3536 19.6981 58.8661 19.9047C58.3363 20.1219 57.7057 19.8094 57.5785 19.269C57.5467 19.11 57.5573 19.0464 57.6476 18.9352C57.748 18.8027 57.7747 18.7974 58.1295 18.8186C58.3626 18.8345 58.5851 18.8875 58.7178 18.9511ZM60.9692 19.4491C60.9692 19.6186 60.9375 19.6981 60.8103 19.82C60.6039 20.0319 60.3708 20.0213 60.3441 19.8041C60.3229 19.6133 60.4077 19.4597 60.6145 19.3378C60.8845 19.1683 60.9692 19.1948 60.9692 19.4491ZM23.8673 19.6345C24.5612 19.7776 25.5309 20.1378 26.8605 20.7471C27.7082 21.1339 28.185 21.4094 29.4197 22.2253C31.2367 23.4332 32.0793 23.8147 33.2766 23.9736C33.5309 24.0054 33.5309 24.0107 33.4407 24.1114C33.2766 24.2915 32.5188 24.6306 31.9678 24.7683C31.6711 24.8425 31.1044 24.9326 30.6857 24.9643C29.4883 25.065 28.3707 24.9749 24.8367 24.4928C23.9572 24.3763 23.6024 24.3551 22.4792 24.3498C21.234 24.3498 21.1174 24.3551 20.487 24.4928C19.83 24.6306 19.0247 24.8796 17.4724 25.4253C16.2379 25.8544 15.687 25.8756 14.9505 25.51C14.2724 25.1763 13.6578 24.3657 13.4989 23.5922C13.3982 23.1047 13.4512 22.3895 13.6154 22.0292C13.7956 21.6372 14.1664 21.2451 14.5479 21.0438C15.1307 20.7312 15.7558 20.62 17.4989 20.5034C18.9293 20.408 19.3002 20.3445 20.6512 19.963C21.0751 19.8464 21.621 19.7034 21.8698 19.6504C22.4419 19.5339 23.332 19.5233 23.8673 19.6345ZM12.5134 20.567C12.577 21.1021 12.5611 21.1763 12.3757 21.2875C12.079 21.4729 11.7293 21.5365 11.4167 21.4623C11.2631 21.4253 11.083 21.3511 11.0141 21.2928L10.8816 21.1868L10.9823 20.9961C11.2048 20.5829 11.7028 20.3021 12.2326 20.2968L12.4763 20.2915L12.5134 20.567ZM9.52004 20.9855C9.71077 21.0544 9.84322 21.2663 9.84322 21.51C9.84322 21.6425 9.82203 21.669 9.72137 21.669C9.65779 21.669 9.54653 21.6319 9.47766 21.5842C9.3611 21.4994 9.15977 21.1286 9.15448 20.9908C9.15448 20.9114 9.29752 20.9061 9.52004 20.9855ZM59.6714 21.9021C60.0262 22.0557 60.1695 22.5167 59.9732 22.8822C59.8461 23.1206 59.5812 23.2584 59.2582 23.2584C58.3202 23.2584 58.188 22.2094 59.0887 21.8915C59.3112 21.812 59.4595 21.8173 59.6714 21.9021ZM11.4485 23.5445C11.5439 23.5816 11.6975 23.7034 11.7982 23.8147C11.9518 23.9895 11.973 24.0425 11.9465 24.2279C11.8724 24.7842 11.1253 25.0544 10.6432 24.6994C10.2194 24.3922 10.2353 23.6981 10.6644 23.518C10.834 23.4544 11.2631 23.465 11.4485 23.5445ZM43.4222 25.8915C45.7164 25.9021 47.5546 25.9339 47.5389 25.9604C47.486 26.0451 45.9016 26.3736 44.678 26.5538C44.3758 26.5961 43.7083 26.6226 42.85 26.6226C41.6899 26.6173 41.4144 26.6014 40.8846 26.5008C40.1429 26.363 39.7085 26.2253 39.221 25.9869C38.8764 25.8173 38.8659 25.8067 39.0621 25.8332C39.1787 25.8491 41.1389 25.8756 43.4222 25.8915ZM52.5191 25.9604C54.384 26.1723 55.6394 26.914 55.9679 28.016C56.09 28.4134 56.0794 28.6995 55.931 28.8584C55.6132 29.1975 54.935 29.3511 53.7215 29.3511C52.7098 29.3511 49.9231 29.1286 49.3827 29.0067C48.6939 28.8531 48.3125 28.5352 47.8831 27.7723C47.5334 27.1524 47.1681 26.6226 47.046 26.5644C46.9774 26.5273 46.9456 26.4902 46.9718 26.469C47.1363 26.3683 49.2818 26.0081 50.1083 25.9445C50.6542 25.9021 52.0741 25.9127 52.5191 25.9604ZM31.5122 26.0293C31.5122 26.4054 29.732 26.9829 28.1532 27.1259C27.3161 27.2001 25.764 27.1895 25.0859 27.0995C24.1161 26.9723 23.0353 26.7339 23.0353 26.6491C23.0353 26.6279 23.5918 26.5961 24.27 26.575C28.4499 26.4531 29.7956 26.3524 30.8501 26.0716C31.3109 25.9498 31.5122 25.9392 31.5122 26.0293ZM39.5389 26.4213C42.0871 27.2955 42.1561 27.3008 43.9893 26.9935C44.9535 26.8346 45.2502 26.8028 45.7376 26.8187C46.2725 26.8346 46.3522 26.8504 46.6752 27.0094C47.2367 27.2849 47.7615 27.8624 48.2434 28.726C48.3387 28.8955 48.6515 29.563 48.9482 30.2094C49.5734 31.5922 49.695 31.82 50.135 32.424C50.5321 32.9591 50.6911 33.2187 50.6911 33.3193C50.6911 33.3776 50.5427 33.3882 49.8328 33.3617C48.1747 33.3035 46.5904 32.816 44.3072 31.677C43.3535 31.1948 41.7162 30.2836 41.0224 29.8385C39.1892 28.6677 38.0131 27.3379 38.0131 26.4372C38.0131 26.273 38.0288 26.1087 38.05 26.0769C38.1135 25.971 38.4687 26.0557 39.5389 26.4213ZM32.5188 26.3048C32.5718 26.3683 32.5561 26.4796 32.4446 26.8663C32.1746 27.8094 31.7559 28.4663 30.8925 29.3034C30.0554 30.114 29.0539 30.8293 27.1784 31.9525C24.5455 33.5313 22.8976 34.1776 21.1386 34.3366C20.7572 34.3684 20.4234 34.3896 20.3916 34.379C20.3598 34.3684 20.4393 34.2253 20.577 34.0664C20.8737 33.7061 21.3561 32.7313 21.6896 31.8147C22.2355 30.3101 22.5267 29.5683 22.7598 29.1233C23.5969 27.4862 24.4183 27.1206 26.5058 27.465C28.344 27.7723 28.5614 27.7352 30.7442 26.8187C31.7029 26.416 32.2064 26.2359 32.3654 26.2306C32.4128 26.2253 32.4819 26.2624 32.5188 26.3048ZM22.0499 26.9935C22.7124 27.0624 23.1413 27.1259 23.5757 27.2107L23.719 27.2372L23.5071 27.4279C23.3638 27.5604 23.2049 27.8147 22.9718 28.2862C22.5267 29.1975 22.3309 29.4836 22.0075 29.6955C21.2713 30.1776 19.3585 30.4849 17.075 30.4902C15.7081 30.4902 15.3373 30.4425 15.0247 30.2306L14.8499 30.114L14.8552 29.6637C14.8552 29.2875 14.8764 29.171 15.0088 28.9008C15.4644 27.9365 16.7836 27.2584 18.6909 26.9935C19.385 26.8981 21.1547 26.8981 22.0499 26.9935ZM39.1998 29.065C40.4553 30.0717 42.0714 31.163 43.7879 32.1591L44.5348 32.5935L44.7573 33.2399C45.3879 35.0783 46.0449 36.4823 46.993 38.0134C47.984 39.6187 48.1217 39.979 48.0844 40.9432C48.0476 41.9551 47.8725 42.1512 47.0672 42.1088C46.3679 42.077 45.7321 41.6426 44.8844 40.6306C44.3601 39.9949 43.9045 39.3485 42.8661 37.7485C42.3731 36.9909 41.5149 35.7353 40.9588 34.9564C38.6277 31.714 37.9228 30.4584 37.3985 28.6465C37.1599 27.8359 37.123 27.5551 37.2184 27.4067C37.2976 27.2902 37.3032 27.2902 37.9122 27.9101C38.2568 28.2544 38.8341 28.7736 39.1998 29.065ZM33.425 27.4491C33.5309 27.6504 33.3453 28.9167 33.0753 29.8491C32.6939 31.163 32.2382 32.0637 30.6645 34.5962C30.1508 35.428 29.3612 36.7366 28.9161 37.5101C27.3691 40.1697 26.3998 41.6585 25.8751 42.1618C25.3932 42.6225 24.9638 42.8238 24.4234 42.8238C24.2009 42.8238 23.9678 42.8081 23.9042 42.7869C23.7508 42.739 23.5177 42.2836 23.4592 41.9181C23.3905 41.5207 23.4647 40.922 23.6448 40.3816C23.7241 40.1591 24.0631 39.4121 24.4077 38.7286C25.3826 36.779 25.87 35.5392 26.2409 34.0664C26.4104 33.3988 26.4367 33.3405 26.6274 33.1657C26.744 33.065 27.4751 32.5193 28.2592 31.9631C31.0091 29.9922 32.1691 28.9538 33.0486 27.6557C33.1652 27.4809 33.2872 27.3379 33.3135 27.3379C33.3402 27.3379 33.3877 27.3855 33.425 27.4491ZM58.511 27.6875C58.9509 27.8995 59.3269 28.5564 59.3269 29.1233V29.4147L59.1573 29.3829C58.7441 29.3034 58.2304 28.9856 57.8489 28.5776C57.6421 28.3551 57.4725 28.1326 57.4725 28.0796C57.4725 27.9471 57.6739 27.7087 57.8646 27.624C58.0502 27.5392 58.241 27.5604 58.511 27.6875ZM36.6038 28.4081C36.6992 28.5935 37.1281 29.3829 37.568 30.1723C39.2685 33.224 39.7877 34.6439 39.9098 36.5829C39.9255 36.8425 39.9522 37.2081 39.9678 37.3882C39.9784 37.5737 39.9734 37.722 39.9522 37.722C39.931 37.722 39.8195 37.5631 39.7135 37.3617C39.6076 37.1657 39.221 36.4929 38.8502 35.8677C37.0806 32.8584 36.3334 30.8664 36.3334 29.1392C36.3334 28.6094 36.3758 28.0796 36.4182 28.0796C36.4288 28.0796 36.5135 28.2279 36.6038 28.4081ZM34.4367 29.1339C34.4897 29.7591 34.4846 29.9763 34.4104 30.575C34.2515 31.8889 33.87 32.9538 32.6777 35.4703C31.8886 37.1286 31.6181 37.7432 31.6181 37.8598C31.6181 37.9021 31.597 37.9339 31.5707 37.9339C31.5016 37.9339 31.4062 37.0651 31.4062 36.4187C31.4117 35.3856 31.6131 34.3313 32.042 33.1657C32.2645 32.5617 32.4234 32.1962 33.2766 30.3313C33.5521 29.7167 33.8539 29.0067 33.9442 28.7471C34.0396 28.4822 34.14 28.2385 34.1718 28.1961C34.2883 28.0584 34.3731 28.3763 34.4367 29.1339ZM13.1174 29.1445C13.2605 29.1975 13.271 29.3723 13.1545 29.7591C13.0379 30.1511 12.7518 30.416 12.1055 30.7339L11.5651 30.9988L11.5492 30.7551C11.5015 30.0134 11.9571 29.2187 12.5081 29.0862C12.683 29.0438 12.9002 29.065 13.1174 29.1445ZM49.9337 29.4836C50.3893 29.6054 50.6169 29.6266 51.9626 29.669C54.707 29.7644 55.2635 29.9021 56.2328 30.7233C56.6778 31.0942 57.0542 31.5763 57.2767 32.0478C57.4886 32.4929 57.5361 33.0915 57.3933 33.4677C57.2606 33.8121 56.9957 34.0823 56.6355 34.2412C56.3811 34.3578 56.2116 34.3895 55.7191 34.416C55.1626 34.4478 55.0622 34.4372 54.4527 34.2889C51.7931 33.6425 50.1719 32.3869 49.3348 30.3313C49.0699 29.6902 49.0805 29.3564 49.3509 29.3511C49.3877 29.3511 49.6476 29.4094 49.9337 29.4836ZM58.3626 30.2147C58.5322 30.3948 58.6381 30.6915 58.6381 30.9882C58.6381 31.322 58.5483 31.4174 58.2355 31.4174C58.0291 31.4174 57.9918 31.4015 57.9443 31.269C57.8595 31.0518 57.907 30.4054 58.0185 30.2359C58.1295 30.0611 58.2143 30.0558 58.3626 30.2147ZM21.5837 30.6703C21.515 31.4544 21.3137 32.0001 20.8419 32.7101C20.5294 33.1763 19.8035 33.9286 19.3055 34.2995C17.6631 35.518 15.5333 36.0372 14.4419 35.4915C13.3717 34.9511 13.3399 33.6319 14.373 32.4346C15.0459 31.6558 15.6128 31.3061 16.5717 31.0783C16.879 31.0041 17.8697 30.8346 18.781 30.7021C19.687 30.5697 20.5825 30.416 20.7678 30.363C21.1971 30.2306 21.2819 30.22 21.4671 30.2465L21.621 30.2677L21.5837 30.6703ZM59.9469 30.6015C60.1322 30.8875 60.005 31.4703 59.7507 31.4703C59.5655 31.4703 59.4646 31.2425 59.507 30.8823C59.5494 30.4637 59.6129 30.3366 59.7507 30.4107C59.8092 30.4425 59.894 30.5273 59.9469 30.6015ZM12.9426 31.8147C12.9956 31.9313 13.0538 32.1644 13.0644 32.3339C13.0856 32.5988 13.0697 32.6571 12.9638 32.7737C12.7995 32.9485 12.5346 32.9485 12.3916 32.7684C12.1691 32.477 12.2061 32.0372 12.4922 31.7352C12.6883 31.5233 12.8101 31.5445 12.9426 31.8147ZM58.4423 32.0584C58.6381 32.2068 58.7284 32.5246 58.633 32.7207C58.5483 32.8955 58.3202 33.0386 58.1986 32.9909C58.1244 32.9644 58.1083 32.8796 58.1083 32.5352C58.1083 31.9207 58.1668 31.8359 58.4423 32.0584ZM11.2737 32.1326C11.4538 32.3286 11.4909 32.8425 11.332 33.0015C11.2048 33.1286 11.0989 33.1021 11.0141 32.922C10.9081 32.6836 10.9611 32.0001 11.0883 32.0001C11.12 32.0001 11.2048 32.0584 11.2737 32.1326ZM60.1428 32.3339C60.1851 32.3975 60.1851 32.4505 60.1428 32.514C60.0792 32.6147 59.8355 32.6942 59.7189 32.6518C59.6079 32.6094 59.6291 32.4081 59.7562 32.2438C59.8567 32.1167 59.8779 32.1061 59.9787 32.175C60.0423 32.2121 60.1165 32.2862 60.1428 32.3339ZM46.1242 33.2505C49.9599 34.7657 52.3017 36.4081 53.0222 38.0929C53.1231 38.3207 53.1494 38.4849 53.1494 38.8346C53.1549 39.2373 53.1388 39.3167 52.9959 39.571C52.6992 40.1114 52.1003 40.4982 51.3162 40.6571C50.2142 40.8849 49.3242 40.6359 48.593 39.9101C47.9679 39.2796 47.0303 37.7485 46.0873 35.8041C45.282 34.1458 44.9268 33.1604 45.0752 32.9803C45.1124 32.9379 45.1599 32.9008 45.1866 32.9008C45.2129 32.9008 45.6367 33.0597 46.1242 33.2505ZM12.9002 33.6266C12.9903 33.8439 12.9744 34.3472 12.8737 34.4478C12.8313 34.4902 12.7518 34.4637 12.577 34.3631C12.3333 34.22 12.2432 34.0717 12.3174 33.9445C12.4022 33.8015 12.7306 33.4306 12.773 33.4306C12.7942 33.4306 12.8525 33.5207 12.9002 33.6266ZM26.0022 33.7538C26.0022 34.1035 25.7958 35.0041 25.5945 35.5498C25.4038 36.0531 24.3759 38.273 23.772 39.4863C23.3956 40.2333 23.009 40.8161 22.7068 41.0916C21.8698 41.8439 20.026 41.8969 18.9294 41.1922C18.4048 40.8585 18.1823 40.4134 18.23 39.7882C18.3466 38.2306 20.3227 36.3816 23.936 34.4372C24.8261 33.9551 25.7267 33.5419 25.8857 33.5366C25.9865 33.5366 26.0022 33.5631 26.0022 33.7538ZM58.1825 33.7273C58.2304 33.8491 58.082 34.1511 57.9231 34.2571C57.7536 34.3684 57.6315 34.3154 57.5522 34.0929C57.5098 33.9657 57.5204 33.9339 57.6739 33.7962C57.8646 33.6266 58.1295 33.5895 58.1825 33.7273ZM51.7774 33.8492C53.2765 34.1035 54.4103 34.5061 55.2529 35.0783C55.7933 35.4439 56.09 35.8942 56.0951 36.3498C56.0951 36.9061 55.6924 37.6319 55.2529 37.8651C54.6383 38.1882 54.0343 37.9127 52.4237 36.5617C51.0619 35.428 50.135 34.7657 49.033 34.1458C48.7202 33.971 48.4659 33.8121 48.4659 33.7909C48.4659 33.722 48.7787 33.7061 49.9493 33.722C50.85 33.7326 51.295 33.7644 51.7774 33.8492ZM11.3373 33.8386C11.4538 33.9445 11.4644 34.1511 11.3479 34.1935C11.2419 34.2359 10.9876 34.2359 10.8816 34.1935C10.7704 34.1511 10.7757 33.9657 10.8869 33.8439C10.9929 33.7273 11.2101 33.722 11.3373 33.8386ZM59.7401 33.918C59.8143 33.9922 59.8249 34.379 59.7507 34.5644C59.6341 34.8717 59.2264 34.9458 59.1043 34.6756C59.0251 34.4955 59.0831 34.3207 59.3269 34.0717C59.5494 33.8439 59.6341 33.8121 59.7401 33.918ZM40.1904 34.4213C40.3654 34.7074 40.8261 35.3803 41.2131 35.9207C41.5996 36.4611 42.2303 37.3406 42.6224 37.881C44.2012 40.0849 44.9692 41.6532 44.9692 42.6967C44.9692 43.7936 43.9944 43.9949 43.0831 43.0836C41.8806 41.881 40.4184 38.3949 39.931 35.5763C39.7983 34.8028 39.7402 33.9074 39.8195 33.9074C39.8462 33.9074 40.0157 34.1405 40.1904 34.4213ZM31.3003 35.2743C31.2155 36.6518 31.0833 37.5207 30.7705 38.8081C30.1347 41.4041 29.1175 43.3167 28.0634 43.894C27.8247 44.0267 27.7188 44.0479 27.4009 44.0479C26.9771 44.0479 26.8766 44 26.7601 43.7245C26.5481 43.2053 26.8711 41.881 27.5387 40.5618C27.7294 40.1803 28.4605 38.9035 29.1599 37.722C29.8592 36.5406 30.5852 35.3114 30.7705 34.9935C30.9506 34.6703 31.1413 34.3684 31.1837 34.3154C31.2634 34.2253 31.2685 34.2253 31.3109 34.3313C31.332 34.3948 31.332 34.8187 31.3003 35.2743ZM22.8501 34.6386C22.8183 34.665 22.4419 34.8929 22.0024 35.1525C20.4128 36.0849 20.2115 36.2439 18.8234 37.6425C17.3982 39.0783 17.2287 39.2055 16.6671 39.2055C16.4976 39.2055 16.275 39.1737 16.1797 39.1313C15.9148 39.02 15.5757 38.6916 15.4168 38.3896C15.2949 38.1565 15.2737 38.0558 15.2737 37.6425C15.2737 37.2558 15.2949 37.1286 15.3903 36.9538C15.9519 35.9154 17.6313 35.1631 20.2539 34.7816C21.2128 34.6439 22.9506 34.5485 22.8501 34.6386ZM13.4671 35.2372C13.7691 35.4756 13.7585 35.7617 13.4353 35.7617C13.1545 35.7617 12.7677 35.2478 12.985 35.1631C13.1333 35.0995 13.3346 35.1313 13.4671 35.2372ZM11.8035 35.5816C12.0631 35.8041 12.185 36.1061 12.079 36.2757C12.0578 36.3074 11.9201 36.3551 11.7717 36.371L11.5015 36.4081L11.4379 36.1697C11.3267 35.7247 11.3796 35.4439 11.5704 35.4439C11.6075 35.4439 11.7081 35.5074 11.8035 35.5816ZM57.8434 35.8995C57.8434 36.2757 57.7798 36.3975 57.5785 36.3975C57.4302 36.3975 57.4196 36.3869 57.4196 36.1856C57.4196 35.8412 57.5522 35.6505 57.8065 35.6081C57.8277 35.6081 57.8434 35.7352 57.8434 35.8995ZM59.4807 36.0002C59.5706 36.1061 59.6447 36.2121 59.6447 36.2386C59.6447 36.2598 59.6608 36.318 59.6765 36.3604C59.7189 36.4823 59.5125 36.6624 59.3324 36.6624C59.131 36.6624 59.009 36.4929 59.009 36.2227C59.009 35.7882 59.2103 35.6929 59.4807 36.0002ZM13.6313 37.118C13.7532 37.1657 13.9333 37.5472 13.9121 37.7114C13.8909 37.9074 13.7002 37.9286 13.5254 37.7538C13.3823 37.6055 13.3399 37.2664 13.4565 37.1498C13.5307 37.0757 13.5201 37.0757 13.6313 37.118ZM12.1426 37.3829C12.3068 37.4465 12.3439 37.6002 12.2697 37.9074L12.2008 38.1988H11.9148H11.6287L11.6604 37.9604C11.7346 37.4518 11.8724 37.2823 12.1426 37.3829ZM57.409 38.0664C57.4251 38.326 57.2712 38.6015 57.0648 38.681C56.7257 38.8081 56.7202 38.3949 57.0593 38.0081C57.2712 37.7697 57.3878 37.7909 57.409 38.0664ZM58.6542 38.2624C58.9348 38.6439 58.739 39.7777 58.4105 39.6505C58.2834 39.6028 58.1613 39.3538 58.1613 39.1525C58.1613 38.9829 58.3096 38.2041 58.3575 38.13C58.405 38.0505 58.5427 38.1141 58.6542 38.2624ZM14.3307 39.375C14.6168 39.6823 14.6962 39.9525 14.5214 40.0426C14.2883 40.1644 14.0552 39.9207 13.9969 39.481C13.9651 39.232 13.9704 39.2055 14.0658 39.2055C14.1187 39.2055 14.2406 39.2849 14.3307 39.375ZM55.5653 39.6134C55.5653 39.6982 55.5814 39.8147 55.597 39.8783C55.6182 39.9578 55.6026 40.0002 55.5284 40.0214C55.3906 40.0637 54.988 40.0796 54.9507 40.0373C54.882 39.9737 55.3906 39.4704 55.5229 39.4704C55.5496 39.4704 55.5653 39.5339 55.5653 39.6134ZM12.9797 39.6346C13.1598 39.73 13.2869 40.0902 13.2816 40.5035C13.2763 40.9856 13.2287 41.1339 13.0909 41.1551C12.8949 41.1869 12.7412 40.8955 12.7148 40.4293C12.6936 40.069 12.7677 39.5763 12.8419 39.5763C12.8578 39.5763 12.9161 39.6028 12.9797 39.6346ZM57.2873 40.424C57.4569 40.583 57.4251 40.7101 57.1547 40.9591C56.7045 41.3724 55.9679 41.3724 56.0688 40.9591C56.1269 40.7313 56.2752 40.5088 56.4714 40.3816C56.7045 40.2174 57.0911 40.2386 57.2873 40.424ZM16.3439 40.9856C16.5611 41.1498 16.5664 41.2452 16.3545 41.3512C16.2274 41.42 16.1797 41.4253 16.1161 41.3724C15.9995 41.277 15.883 41.0333 15.883 40.8796C15.883 40.7525 15.8936 40.7472 16.026 40.8002C16.1108 40.832 16.2538 40.9167 16.3439 40.9856ZM54.1403 40.9061C54.2357 41.0015 54.2407 41.028 54.1721 41.1287C54.0182 41.3671 53.8381 41.4465 53.4143 41.473L53.0065 41.4995L53.0434 41.3459C53.0964 41.1392 53.2184 41.0121 53.4727 40.8955C53.7588 40.7631 54.0025 40.7684 54.1403 40.9061ZM15.0247 41.7167C15.2207 41.8227 15.4962 42.1141 15.5651 42.2995C15.6446 42.522 15.5386 42.6174 15.2048 42.6174C14.6909 42.6174 14.1399 42.2677 14.2141 41.9922C14.3042 41.6902 14.7068 41.5525 15.0247 41.7167ZM51.7774 41.8227C51.9787 41.9075 52.0686 42.0452 52.0686 42.2677C52.0686 42.4902 51.8304 42.681 51.5019 42.7284C50.9933 42.7975 50.7017 42.5326 50.8131 42.1035C50.8449 41.9975 50.9191 41.9234 51.078 41.8545C51.3429 41.7326 51.5337 41.722 51.7774 41.8227ZM55.1308 41.8863C55.2156 41.9445 55.2474 42.0187 55.2474 42.1512C55.2474 42.5059 54.8502 42.7551 54.2725 42.7551C54.0606 42.7551 54.0237 42.739 54.05 42.6704C54.0661 42.6225 54.0818 42.5432 54.0818 42.4902C54.0818 42.3419 54.3946 42.0134 54.6383 41.9022C54.8977 41.7803 54.9774 41.7803 55.1308 41.8863ZM18.2406 42.0982C18.426 42.183 18.5691 42.4318 18.5108 42.5695C18.4684 42.6916 17.8962 42.6755 17.6419 42.5483C17.4512 42.4529 17.3134 42.2571 17.3134 42.0929C17.3134 41.9816 18.0022 41.9869 18.2406 42.0982ZM49.8752 42.4953C49.9972 42.5962 49.9599 42.7073 49.7374 42.9192C49.4937 43.1523 49.0699 43.3006 48.5083 43.3642C48.1641 43.396 48.148 43.396 48.148 43.285C48.148 43.0357 48.4608 42.6598 48.7787 42.5326C49.144 42.3843 49.7162 42.3631 49.8752 42.4953ZM20.5558 42.8081C20.9373 42.9141 21.0382 43.29 20.7521 43.5549C20.6143 43.6876 20.5453 43.7088 20.3015 43.7088C19.475 43.7088 19.2631 43.0942 19.9996 42.8344C20.2486 42.7445 20.3068 42.739 20.5558 42.8081ZM47.0672 43.1205C47.2897 43.2214 47.5284 43.4702 47.4966 43.571C47.486 43.6028 47.3588 43.6927 47.2156 43.7724C46.6171 44.1059 46.0818 43.9843 46.0818 43.5231C46.0818 43.3167 46.1721 43.179 46.3628 43.0993C46.5959 42.9989 46.8078 43.0039 47.0672 43.1205ZM17.3558 43.2582C17.536 43.4121 17.6472 43.6452 17.6207 43.8254C17.6048 43.9313 17.5731 43.947 17.3558 43.9631C17.075 43.9788 16.8313 43.894 16.5876 43.6876C16.3757 43.5075 16.3651 43.3803 16.5505 43.2371C16.7572 43.073 17.1492 43.0836 17.3558 43.2582ZM52.7997 43.2426C52.8209 43.3642 52.4661 43.7457 52.2648 43.8092C52.1694 43.8359 52.005 43.8783 51.899 43.8995C51.7032 43.9313 51.6977 43.9258 51.6977 43.7775C51.6977 43.624 51.8092 43.4172 51.9626 43.3006C52.1851 43.1205 52.7679 43.0781 52.7997 43.2426ZM22.9667 43.4015C23.2049 43.5126 23.5121 43.8198 23.5121 43.947C23.5121 43.9843 23.5283 44.053 23.5439 44.1008C23.5706 44.175 23.5227 44.1856 23.1892 44.1856C22.9506 44.1801 22.6857 44.1432 22.5161 44.0847C22.1982 43.9737 21.7108 43.6609 21.7108 43.5655C21.7108 43.4702 21.9545 43.3273 22.177 43.285C22.4369 43.2371 22.6963 43.2794 22.9667 43.4015ZM25.4991 43.8304C25.5415 43.8995 25.5945 44.0636 25.6102 44.1962C25.6581 44.5353 25.5254 44.6624 25.1439 44.6569C24.821 44.6569 24.4234 44.5192 24.3386 44.3869C24.2488 44.2386 24.4128 44.0212 24.7307 43.8516C25.091 43.6664 25.3826 43.6609 25.4991 43.8304ZM50.1401 43.9419C50.2303 44.0161 50.2354 44.0318 50.1613 44.1644C50.0184 44.4238 49.8277 44.5192 49.4725 44.5192C49.0593 44.5192 48.927 44.4187 49.0487 44.1962C49.0966 44.1165 49.2131 44.0106 49.3136 43.9631C49.5416 43.8465 49.9972 43.841 50.1401 43.9419ZM19.6605 44.3128C19.8936 44.4081 20.0684 44.6145 20.0843 44.8002C20.0949 44.9379 20.0737 44.9536 19.9307 44.9697C19.7717 44.9854 19.3744 44.8371 19.2207 44.7048C19.1042 44.6095 18.9029 44.339 18.9029 44.2861C18.9029 44.2119 19.4697 44.2331 19.6605 44.3128ZM46.0555 44.4238C46.2089 44.5035 46.384 44.7472 46.3255 44.8053C46.3149 44.8214 46.0606 44.7947 45.7694 44.7523C45.229 44.673 44.9692 44.5671 44.9692 44.4238C44.9692 44.3073 45.8118 44.3128 46.0555 44.4238ZM47.8301 44.5353C48.0793 44.6357 48.095 44.7099 47.8992 44.9273C47.7933 45.0439 47.6873 45.102 47.5334 45.1232L47.3109 45.1499L47.1999 44.8477C47.1363 44.6836 47.099 44.5247 47.1151 44.498C47.1681 44.4187 47.597 44.445 47.8301 44.5353ZM22.6327 44.8532C22.7018 44.8794 22.7174 44.943 22.7068 45.1605C22.6912 45.4198 22.6857 45.4304 22.5216 45.4465C21.9969 45.4995 21.3717 45.0227 21.7002 44.8214C21.7905 44.7629 22.4581 44.7841 22.6327 44.8532ZM26.8923 45.0121C26.866 45.1655 26.6223 45.2927 26.2141 45.3724C25.9971 45.4198 25.764 45.4677 25.7055 45.4834C25.6263 45.5101 25.5839 45.4889 25.5572 45.4254C25.4461 45.1287 25.817 44.9536 26.6011 44.9324C26.8605 44.9273 26.9084 44.943 26.8923 45.0121ZM24.6777 45.3512C24.6777 45.5682 24.5561 45.7962 24.3971 45.8649C24.217 45.9496 23.8618 45.7538 23.8406 45.5525C23.8194 45.3936 23.9415 45.3033 24.2539 45.2397C24.6353 45.1655 24.6777 45.1761 24.6777 45.3512Z" fill="url(#paint0_angular_284_9133)"/>
</g>
<defs>
<radialGradient id="paint0_angular_284_9133" cx="0" cy="0" r="1" gradientUnits="userSpaceOnUse" gradientTransform="translate(34.5299 23.3116) rotate(0.593324) scale(7.9598 11.5739)">
<stop offset="0.0920002" stop-color="#4B65F0"/>
<stop offset="0.240484" stop-color="#65B9D6"/>
<stop offset="0.372499" stop-color="#A286C1"/>
<stop offset="0.543006" stop-color="#23699D"/>
<stop offset="0.963234" stop-color="#A18ED8"/>
</radialGradient>
</defs>
</svg>
